%TF.GenerationSoftware,KiCad,Pcbnew,7.0.7*%
%TF.CreationDate,2023-08-22T14:12:51-05:00*%
%TF.ProjectId,O2 thermistor cable,4f322074-6865-4726-9d69-73746f722063,0*%
%TF.SameCoordinates,Original*%
%TF.FileFunction,Legend,Top*%
%TF.FilePolarity,Positive*%
%FSLAX46Y46*%
G04 Gerber Fmt 4.6, Leading zero omitted, Abs format (unit mm)*
G04 Created by KiCad (PCBNEW 7.0.7) date 2023-08-22 14:12:51*
%MOMM*%
%LPD*%
G01*
G04 APERTURE LIST*
%ADD10C,0.150000*%
%ADD11C,0.120000*%
%ADD12C,0.127000*%
%ADD13C,0.200000*%
G04 APERTURE END LIST*
D10*
X140193922Y-51869819D02*
X140765350Y-51869819D01*
X140479636Y-52869819D02*
X140479636Y-51869819D01*
X141098684Y-52869819D02*
X141098684Y-51869819D01*
X141527255Y-52869819D02*
X141527255Y-52346009D01*
X141527255Y-52346009D02*
X141479636Y-52250771D01*
X141479636Y-52250771D02*
X141384398Y-52203152D01*
X141384398Y-52203152D02*
X141241541Y-52203152D01*
X141241541Y-52203152D02*
X141146303Y-52250771D01*
X141146303Y-52250771D02*
X141098684Y-52298390D01*
X142384398Y-52822200D02*
X142289160Y-52869819D01*
X142289160Y-52869819D02*
X142098684Y-52869819D01*
X142098684Y-52869819D02*
X142003446Y-52822200D01*
X142003446Y-52822200D02*
X141955827Y-52726961D01*
X141955827Y-52726961D02*
X141955827Y-52346009D01*
X141955827Y-52346009D02*
X142003446Y-52250771D01*
X142003446Y-52250771D02*
X142098684Y-52203152D01*
X142098684Y-52203152D02*
X142289160Y-52203152D01*
X142289160Y-52203152D02*
X142384398Y-52250771D01*
X142384398Y-52250771D02*
X142432017Y-52346009D01*
X142432017Y-52346009D02*
X142432017Y-52441247D01*
X142432017Y-52441247D02*
X141955827Y-52536485D01*
X142860589Y-52869819D02*
X142860589Y-52203152D01*
X142860589Y-52393628D02*
X142908208Y-52298390D01*
X142908208Y-52298390D02*
X142955827Y-52250771D01*
X142955827Y-52250771D02*
X143051065Y-52203152D01*
X143051065Y-52203152D02*
X143146303Y-52203152D01*
X143479637Y-52869819D02*
X143479637Y-52203152D01*
X143479637Y-52298390D02*
X143527256Y-52250771D01*
X143527256Y-52250771D02*
X143622494Y-52203152D01*
X143622494Y-52203152D02*
X143765351Y-52203152D01*
X143765351Y-52203152D02*
X143860589Y-52250771D01*
X143860589Y-52250771D02*
X143908208Y-52346009D01*
X143908208Y-52346009D02*
X143908208Y-52869819D01*
X143908208Y-52346009D02*
X143955827Y-52250771D01*
X143955827Y-52250771D02*
X144051065Y-52203152D01*
X144051065Y-52203152D02*
X144193922Y-52203152D01*
X144193922Y-52203152D02*
X144289161Y-52250771D01*
X144289161Y-52250771D02*
X144336780Y-52346009D01*
X144336780Y-52346009D02*
X144336780Y-52869819D01*
X144812970Y-52869819D02*
X144812970Y-52203152D01*
X144812970Y-51869819D02*
X144765351Y-51917438D01*
X144765351Y-51917438D02*
X144812970Y-51965057D01*
X144812970Y-51965057D02*
X144860589Y-51917438D01*
X144860589Y-51917438D02*
X144812970Y-51869819D01*
X144812970Y-51869819D02*
X144812970Y-51965057D01*
X145241541Y-52822200D02*
X145336779Y-52869819D01*
X145336779Y-52869819D02*
X145527255Y-52869819D01*
X145527255Y-52869819D02*
X145622493Y-52822200D01*
X145622493Y-52822200D02*
X145670112Y-52726961D01*
X145670112Y-52726961D02*
X145670112Y-52679342D01*
X145670112Y-52679342D02*
X145622493Y-52584104D01*
X145622493Y-52584104D02*
X145527255Y-52536485D01*
X145527255Y-52536485D02*
X145384398Y-52536485D01*
X145384398Y-52536485D02*
X145289160Y-52488866D01*
X145289160Y-52488866D02*
X145241541Y-52393628D01*
X145241541Y-52393628D02*
X145241541Y-52346009D01*
X145241541Y-52346009D02*
X145289160Y-52250771D01*
X145289160Y-52250771D02*
X145384398Y-52203152D01*
X145384398Y-52203152D02*
X145527255Y-52203152D01*
X145527255Y-52203152D02*
X145622493Y-52250771D01*
X145955827Y-52203152D02*
X146336779Y-52203152D01*
X146098684Y-51869819D02*
X146098684Y-52726961D01*
X146098684Y-52726961D02*
X146146303Y-52822200D01*
X146146303Y-52822200D02*
X146241541Y-52869819D01*
X146241541Y-52869819D02*
X146336779Y-52869819D01*
X146812970Y-52869819D02*
X146717732Y-52822200D01*
X146717732Y-52822200D02*
X146670113Y-52774580D01*
X146670113Y-52774580D02*
X146622494Y-52679342D01*
X146622494Y-52679342D02*
X146622494Y-52393628D01*
X146622494Y-52393628D02*
X146670113Y-52298390D01*
X146670113Y-52298390D02*
X146717732Y-52250771D01*
X146717732Y-52250771D02*
X146812970Y-52203152D01*
X146812970Y-52203152D02*
X146955827Y-52203152D01*
X146955827Y-52203152D02*
X147051065Y-52250771D01*
X147051065Y-52250771D02*
X147098684Y-52298390D01*
X147098684Y-52298390D02*
X147146303Y-52393628D01*
X147146303Y-52393628D02*
X147146303Y-52679342D01*
X147146303Y-52679342D02*
X147098684Y-52774580D01*
X147098684Y-52774580D02*
X147051065Y-52822200D01*
X147051065Y-52822200D02*
X146955827Y-52869819D01*
X146955827Y-52869819D02*
X146812970Y-52869819D01*
X147574875Y-52869819D02*
X147574875Y-52203152D01*
X147574875Y-52393628D02*
X147622494Y-52298390D01*
X147622494Y-52298390D02*
X147670113Y-52250771D01*
X147670113Y-52250771D02*
X147765351Y-52203152D01*
X147765351Y-52203152D02*
X147860589Y-52203152D01*
X149479637Y-51917438D02*
X149384399Y-51869819D01*
X149384399Y-51869819D02*
X149241542Y-51869819D01*
X149241542Y-51869819D02*
X149098685Y-51917438D01*
X149098685Y-51917438D02*
X149003447Y-52012676D01*
X149003447Y-52012676D02*
X148955828Y-52107914D01*
X148955828Y-52107914D02*
X148908209Y-52298390D01*
X148908209Y-52298390D02*
X148908209Y-52441247D01*
X148908209Y-52441247D02*
X148955828Y-52631723D01*
X148955828Y-52631723D02*
X149003447Y-52726961D01*
X149003447Y-52726961D02*
X149098685Y-52822200D01*
X149098685Y-52822200D02*
X149241542Y-52869819D01*
X149241542Y-52869819D02*
X149336780Y-52869819D01*
X149336780Y-52869819D02*
X149479637Y-52822200D01*
X149479637Y-52822200D02*
X149527256Y-52774580D01*
X149527256Y-52774580D02*
X149527256Y-52441247D01*
X149527256Y-52441247D02*
X149336780Y-52441247D01*
X149955828Y-52869819D02*
X149955828Y-52203152D01*
X149955828Y-52393628D02*
X150003447Y-52298390D01*
X150003447Y-52298390D02*
X150051066Y-52250771D01*
X150051066Y-52250771D02*
X150146304Y-52203152D01*
X150146304Y-52203152D02*
X150241542Y-52203152D01*
X150717733Y-52869819D02*
X150622495Y-52822200D01*
X150622495Y-52822200D02*
X150574876Y-52774580D01*
X150574876Y-52774580D02*
X150527257Y-52679342D01*
X150527257Y-52679342D02*
X150527257Y-52393628D01*
X150527257Y-52393628D02*
X150574876Y-52298390D01*
X150574876Y-52298390D02*
X150622495Y-52250771D01*
X150622495Y-52250771D02*
X150717733Y-52203152D01*
X150717733Y-52203152D02*
X150860590Y-52203152D01*
X150860590Y-52203152D02*
X150955828Y-52250771D01*
X150955828Y-52250771D02*
X151003447Y-52298390D01*
X151003447Y-52298390D02*
X151051066Y-52393628D01*
X151051066Y-52393628D02*
X151051066Y-52679342D01*
X151051066Y-52679342D02*
X151003447Y-52774580D01*
X151003447Y-52774580D02*
X150955828Y-52822200D01*
X150955828Y-52822200D02*
X150860590Y-52869819D01*
X150860590Y-52869819D02*
X150717733Y-52869819D01*
X151908209Y-52203152D02*
X151908209Y-52869819D01*
X151479638Y-52203152D02*
X151479638Y-52726961D01*
X151479638Y-52726961D02*
X151527257Y-52822200D01*
X151527257Y-52822200D02*
X151622495Y-52869819D01*
X151622495Y-52869819D02*
X151765352Y-52869819D01*
X151765352Y-52869819D02*
X151860590Y-52822200D01*
X151860590Y-52822200D02*
X151908209Y-52774580D01*
X152384400Y-52203152D02*
X152384400Y-52869819D01*
X152384400Y-52298390D02*
X152432019Y-52250771D01*
X152432019Y-52250771D02*
X152527257Y-52203152D01*
X152527257Y-52203152D02*
X152670114Y-52203152D01*
X152670114Y-52203152D02*
X152765352Y-52250771D01*
X152765352Y-52250771D02*
X152812971Y-52346009D01*
X152812971Y-52346009D02*
X152812971Y-52869819D01*
X153717733Y-52869819D02*
X153717733Y-51869819D01*
X153717733Y-52822200D02*
X153622495Y-52869819D01*
X153622495Y-52869819D02*
X153432019Y-52869819D01*
X153432019Y-52869819D02*
X153336781Y-52822200D01*
X153336781Y-52822200D02*
X153289162Y-52774580D01*
X153289162Y-52774580D02*
X153241543Y-52679342D01*
X153241543Y-52679342D02*
X153241543Y-52393628D01*
X153241543Y-52393628D02*
X153289162Y-52298390D01*
X153289162Y-52298390D02*
X153336781Y-52250771D01*
X153336781Y-52250771D02*
X153432019Y-52203152D01*
X153432019Y-52203152D02*
X153622495Y-52203152D01*
X153622495Y-52203152D02*
X153717733Y-52250771D01*
X154860591Y-51869819D02*
X155527257Y-51869819D01*
X155527257Y-51869819D02*
X155098686Y-52869819D01*
X140908207Y-29774580D02*
X140860588Y-29822200D01*
X140860588Y-29822200D02*
X140717731Y-29869819D01*
X140717731Y-29869819D02*
X140622493Y-29869819D01*
X140622493Y-29869819D02*
X140479636Y-29822200D01*
X140479636Y-29822200D02*
X140384398Y-29726961D01*
X140384398Y-29726961D02*
X140336779Y-29631723D01*
X140336779Y-29631723D02*
X140289160Y-29441247D01*
X140289160Y-29441247D02*
X140289160Y-29298390D01*
X140289160Y-29298390D02*
X140336779Y-29107914D01*
X140336779Y-29107914D02*
X140384398Y-29012676D01*
X140384398Y-29012676D02*
X140479636Y-28917438D01*
X140479636Y-28917438D02*
X140622493Y-28869819D01*
X140622493Y-28869819D02*
X140717731Y-28869819D01*
X140717731Y-28869819D02*
X140860588Y-28917438D01*
X140860588Y-28917438D02*
X140908207Y-28965057D01*
X141765350Y-29203152D02*
X141765350Y-29869819D01*
X141336779Y-29203152D02*
X141336779Y-29726961D01*
X141336779Y-29726961D02*
X141384398Y-29822200D01*
X141384398Y-29822200D02*
X141479636Y-29869819D01*
X141479636Y-29869819D02*
X141622493Y-29869819D01*
X141622493Y-29869819D02*
X141717731Y-29822200D01*
X141717731Y-29822200D02*
X141765350Y-29774580D01*
X142241541Y-29869819D02*
X142241541Y-29203152D01*
X142241541Y-29393628D02*
X142289160Y-29298390D01*
X142289160Y-29298390D02*
X142336779Y-29250771D01*
X142336779Y-29250771D02*
X142432017Y-29203152D01*
X142432017Y-29203152D02*
X142527255Y-29203152D01*
X142860589Y-29869819D02*
X142860589Y-29203152D01*
X142860589Y-29393628D02*
X142908208Y-29298390D01*
X142908208Y-29298390D02*
X142955827Y-29250771D01*
X142955827Y-29250771D02*
X143051065Y-29203152D01*
X143051065Y-29203152D02*
X143146303Y-29203152D01*
X143860589Y-29822200D02*
X143765351Y-29869819D01*
X143765351Y-29869819D02*
X143574875Y-29869819D01*
X143574875Y-29869819D02*
X143479637Y-29822200D01*
X143479637Y-29822200D02*
X143432018Y-29726961D01*
X143432018Y-29726961D02*
X143432018Y-29346009D01*
X143432018Y-29346009D02*
X143479637Y-29250771D01*
X143479637Y-29250771D02*
X143574875Y-29203152D01*
X143574875Y-29203152D02*
X143765351Y-29203152D01*
X143765351Y-29203152D02*
X143860589Y-29250771D01*
X143860589Y-29250771D02*
X143908208Y-29346009D01*
X143908208Y-29346009D02*
X143908208Y-29441247D01*
X143908208Y-29441247D02*
X143432018Y-29536485D01*
X144336780Y-29203152D02*
X144336780Y-29869819D01*
X144336780Y-29298390D02*
X144384399Y-29250771D01*
X144384399Y-29250771D02*
X144479637Y-29203152D01*
X144479637Y-29203152D02*
X144622494Y-29203152D01*
X144622494Y-29203152D02*
X144717732Y-29250771D01*
X144717732Y-29250771D02*
X144765351Y-29346009D01*
X144765351Y-29346009D02*
X144765351Y-29869819D01*
X145098685Y-29203152D02*
X145479637Y-29203152D01*
X145241542Y-28869819D02*
X145241542Y-29726961D01*
X145241542Y-29726961D02*
X145289161Y-29822200D01*
X145289161Y-29822200D02*
X145384399Y-29869819D01*
X145384399Y-29869819D02*
X145479637Y-29869819D01*
X146527257Y-29822200D02*
X146670114Y-29869819D01*
X146670114Y-29869819D02*
X146908209Y-29869819D01*
X146908209Y-29869819D02*
X147003447Y-29822200D01*
X147003447Y-29822200D02*
X147051066Y-29774580D01*
X147051066Y-29774580D02*
X147098685Y-29679342D01*
X147098685Y-29679342D02*
X147098685Y-29584104D01*
X147098685Y-29584104D02*
X147051066Y-29488866D01*
X147051066Y-29488866D02*
X147003447Y-29441247D01*
X147003447Y-29441247D02*
X146908209Y-29393628D01*
X146908209Y-29393628D02*
X146717733Y-29346009D01*
X146717733Y-29346009D02*
X146622495Y-29298390D01*
X146622495Y-29298390D02*
X146574876Y-29250771D01*
X146574876Y-29250771D02*
X146527257Y-29155533D01*
X146527257Y-29155533D02*
X146527257Y-29060295D01*
X146527257Y-29060295D02*
X146574876Y-28965057D01*
X146574876Y-28965057D02*
X146622495Y-28917438D01*
X146622495Y-28917438D02*
X146717733Y-28869819D01*
X146717733Y-28869819D02*
X146955828Y-28869819D01*
X146955828Y-28869819D02*
X147098685Y-28917438D01*
X147908209Y-29822200D02*
X147812971Y-29869819D01*
X147812971Y-29869819D02*
X147622495Y-29869819D01*
X147622495Y-29869819D02*
X147527257Y-29822200D01*
X147527257Y-29822200D02*
X147479638Y-29726961D01*
X147479638Y-29726961D02*
X147479638Y-29346009D01*
X147479638Y-29346009D02*
X147527257Y-29250771D01*
X147527257Y-29250771D02*
X147622495Y-29203152D01*
X147622495Y-29203152D02*
X147812971Y-29203152D01*
X147812971Y-29203152D02*
X147908209Y-29250771D01*
X147908209Y-29250771D02*
X147955828Y-29346009D01*
X147955828Y-29346009D02*
X147955828Y-29441247D01*
X147955828Y-29441247D02*
X147479638Y-29536485D01*
X148384400Y-29203152D02*
X148384400Y-29869819D01*
X148384400Y-29298390D02*
X148432019Y-29250771D01*
X148432019Y-29250771D02*
X148527257Y-29203152D01*
X148527257Y-29203152D02*
X148670114Y-29203152D01*
X148670114Y-29203152D02*
X148765352Y-29250771D01*
X148765352Y-29250771D02*
X148812971Y-29346009D01*
X148812971Y-29346009D02*
X148812971Y-29869819D01*
X149241543Y-29822200D02*
X149336781Y-29869819D01*
X149336781Y-29869819D02*
X149527257Y-29869819D01*
X149527257Y-29869819D02*
X149622495Y-29822200D01*
X149622495Y-29822200D02*
X149670114Y-29726961D01*
X149670114Y-29726961D02*
X149670114Y-29679342D01*
X149670114Y-29679342D02*
X149622495Y-29584104D01*
X149622495Y-29584104D02*
X149527257Y-29536485D01*
X149527257Y-29536485D02*
X149384400Y-29536485D01*
X149384400Y-29536485D02*
X149289162Y-29488866D01*
X149289162Y-29488866D02*
X149241543Y-29393628D01*
X149241543Y-29393628D02*
X149241543Y-29346009D01*
X149241543Y-29346009D02*
X149289162Y-29250771D01*
X149289162Y-29250771D02*
X149384400Y-29203152D01*
X149384400Y-29203152D02*
X149527257Y-29203152D01*
X149527257Y-29203152D02*
X149622495Y-29250771D01*
X150241543Y-29869819D02*
X150146305Y-29822200D01*
X150146305Y-29822200D02*
X150098686Y-29774580D01*
X150098686Y-29774580D02*
X150051067Y-29679342D01*
X150051067Y-29679342D02*
X150051067Y-29393628D01*
X150051067Y-29393628D02*
X150098686Y-29298390D01*
X150098686Y-29298390D02*
X150146305Y-29250771D01*
X150146305Y-29250771D02*
X150241543Y-29203152D01*
X150241543Y-29203152D02*
X150384400Y-29203152D01*
X150384400Y-29203152D02*
X150479638Y-29250771D01*
X150479638Y-29250771D02*
X150527257Y-29298390D01*
X150527257Y-29298390D02*
X150574876Y-29393628D01*
X150574876Y-29393628D02*
X150574876Y-29679342D01*
X150574876Y-29679342D02*
X150527257Y-29774580D01*
X150527257Y-29774580D02*
X150479638Y-29822200D01*
X150479638Y-29822200D02*
X150384400Y-29869819D01*
X150384400Y-29869819D02*
X150241543Y-29869819D01*
X151003448Y-29869819D02*
X151003448Y-29203152D01*
X151003448Y-29393628D02*
X151051067Y-29298390D01*
X151051067Y-29298390D02*
X151098686Y-29250771D01*
X151098686Y-29250771D02*
X151193924Y-29203152D01*
X151193924Y-29203152D02*
X151289162Y-29203152D01*
X152384401Y-29869819D02*
X152384401Y-28869819D01*
X152384401Y-28869819D02*
X152765353Y-28869819D01*
X152765353Y-28869819D02*
X152860591Y-28917438D01*
X152860591Y-28917438D02*
X152908210Y-28965057D01*
X152908210Y-28965057D02*
X152955829Y-29060295D01*
X152955829Y-29060295D02*
X152955829Y-29203152D01*
X152955829Y-29203152D02*
X152908210Y-29298390D01*
X152908210Y-29298390D02*
X152860591Y-29346009D01*
X152860591Y-29346009D02*
X152765353Y-29393628D01*
X152765353Y-29393628D02*
X152384401Y-29393628D01*
X153289163Y-28869819D02*
X153527258Y-29869819D01*
X153527258Y-29869819D02*
X153717734Y-29155533D01*
X153717734Y-29155533D02*
X153908210Y-29869819D01*
X153908210Y-29869819D02*
X154146306Y-28869819D01*
X155098686Y-29869819D02*
X154765353Y-29393628D01*
X154527258Y-29869819D02*
X154527258Y-28869819D01*
X154527258Y-28869819D02*
X154908210Y-28869819D01*
X154908210Y-28869819D02*
X155003448Y-28917438D01*
X155003448Y-28917438D02*
X155051067Y-28965057D01*
X155051067Y-28965057D02*
X155098686Y-29060295D01*
X155098686Y-29060295D02*
X155098686Y-29203152D01*
X155098686Y-29203152D02*
X155051067Y-29298390D01*
X155051067Y-29298390D02*
X155003448Y-29346009D01*
X155003448Y-29346009D02*
X154908210Y-29393628D01*
X154908210Y-29393628D02*
X154527258Y-29393628D01*
X156574877Y-30250771D02*
X156527258Y-30203152D01*
X156527258Y-30203152D02*
X156432020Y-30060295D01*
X156432020Y-30060295D02*
X156384401Y-29965057D01*
X156384401Y-29965057D02*
X156336782Y-29822200D01*
X156336782Y-29822200D02*
X156289163Y-29584104D01*
X156289163Y-29584104D02*
X156289163Y-29393628D01*
X156289163Y-29393628D02*
X156336782Y-29155533D01*
X156336782Y-29155533D02*
X156384401Y-29012676D01*
X156384401Y-29012676D02*
X156432020Y-28917438D01*
X156432020Y-28917438D02*
X156527258Y-28774580D01*
X156527258Y-28774580D02*
X156574877Y-28726961D01*
X156955830Y-29488866D02*
X157717735Y-29488866D01*
X157336782Y-29869819D02*
X157336782Y-29107914D01*
X158670115Y-28869819D02*
X158193925Y-28869819D01*
X158193925Y-28869819D02*
X158146306Y-29346009D01*
X158146306Y-29346009D02*
X158193925Y-29298390D01*
X158193925Y-29298390D02*
X158289163Y-29250771D01*
X158289163Y-29250771D02*
X158527258Y-29250771D01*
X158527258Y-29250771D02*
X158622496Y-29298390D01*
X158622496Y-29298390D02*
X158670115Y-29346009D01*
X158670115Y-29346009D02*
X158717734Y-29441247D01*
X158717734Y-29441247D02*
X158717734Y-29679342D01*
X158717734Y-29679342D02*
X158670115Y-29774580D01*
X158670115Y-29774580D02*
X158622496Y-29822200D01*
X158622496Y-29822200D02*
X158527258Y-29869819D01*
X158527258Y-29869819D02*
X158289163Y-29869819D01*
X158289163Y-29869819D02*
X158193925Y-29822200D01*
X158193925Y-29822200D02*
X158146306Y-29774580D01*
X159003449Y-28869819D02*
X159336782Y-29869819D01*
X159336782Y-29869819D02*
X159670115Y-28869819D01*
X159908211Y-30250771D02*
X159955830Y-30203152D01*
X159955830Y-30203152D02*
X160051068Y-30060295D01*
X160051068Y-30060295D02*
X160098687Y-29965057D01*
X160098687Y-29965057D02*
X160146306Y-29822200D01*
X160146306Y-29822200D02*
X160193925Y-29584104D01*
X160193925Y-29584104D02*
X160193925Y-29393628D01*
X160193925Y-29393628D02*
X160146306Y-29155533D01*
X160146306Y-29155533D02*
X160098687Y-29012676D01*
X160098687Y-29012676D02*
X160051068Y-28917438D01*
X160051068Y-28917438D02*
X159955830Y-28774580D01*
X159955830Y-28774580D02*
X159908211Y-28726961D01*
X140193922Y-43869819D02*
X140765350Y-43869819D01*
X140479636Y-44869819D02*
X140479636Y-43869819D01*
X141098684Y-44869819D02*
X141098684Y-43869819D01*
X141527255Y-44869819D02*
X141527255Y-44346009D01*
X141527255Y-44346009D02*
X141479636Y-44250771D01*
X141479636Y-44250771D02*
X141384398Y-44203152D01*
X141384398Y-44203152D02*
X141241541Y-44203152D01*
X141241541Y-44203152D02*
X141146303Y-44250771D01*
X141146303Y-44250771D02*
X141098684Y-44298390D01*
X142384398Y-44822200D02*
X142289160Y-44869819D01*
X142289160Y-44869819D02*
X142098684Y-44869819D01*
X142098684Y-44869819D02*
X142003446Y-44822200D01*
X142003446Y-44822200D02*
X141955827Y-44726961D01*
X141955827Y-44726961D02*
X141955827Y-44346009D01*
X141955827Y-44346009D02*
X142003446Y-44250771D01*
X142003446Y-44250771D02*
X142098684Y-44203152D01*
X142098684Y-44203152D02*
X142289160Y-44203152D01*
X142289160Y-44203152D02*
X142384398Y-44250771D01*
X142384398Y-44250771D02*
X142432017Y-44346009D01*
X142432017Y-44346009D02*
X142432017Y-44441247D01*
X142432017Y-44441247D02*
X141955827Y-44536485D01*
X142860589Y-44869819D02*
X142860589Y-44203152D01*
X142860589Y-44393628D02*
X142908208Y-44298390D01*
X142908208Y-44298390D02*
X142955827Y-44250771D01*
X142955827Y-44250771D02*
X143051065Y-44203152D01*
X143051065Y-44203152D02*
X143146303Y-44203152D01*
X143479637Y-44869819D02*
X143479637Y-44203152D01*
X143479637Y-44298390D02*
X143527256Y-44250771D01*
X143527256Y-44250771D02*
X143622494Y-44203152D01*
X143622494Y-44203152D02*
X143765351Y-44203152D01*
X143765351Y-44203152D02*
X143860589Y-44250771D01*
X143860589Y-44250771D02*
X143908208Y-44346009D01*
X143908208Y-44346009D02*
X143908208Y-44869819D01*
X143908208Y-44346009D02*
X143955827Y-44250771D01*
X143955827Y-44250771D02*
X144051065Y-44203152D01*
X144051065Y-44203152D02*
X144193922Y-44203152D01*
X144193922Y-44203152D02*
X144289161Y-44250771D01*
X144289161Y-44250771D02*
X144336780Y-44346009D01*
X144336780Y-44346009D02*
X144336780Y-44869819D01*
X144812970Y-44869819D02*
X144812970Y-44203152D01*
X144812970Y-43869819D02*
X144765351Y-43917438D01*
X144765351Y-43917438D02*
X144812970Y-43965057D01*
X144812970Y-43965057D02*
X144860589Y-43917438D01*
X144860589Y-43917438D02*
X144812970Y-43869819D01*
X144812970Y-43869819D02*
X144812970Y-43965057D01*
X145241541Y-44822200D02*
X145336779Y-44869819D01*
X145336779Y-44869819D02*
X145527255Y-44869819D01*
X145527255Y-44869819D02*
X145622493Y-44822200D01*
X145622493Y-44822200D02*
X145670112Y-44726961D01*
X145670112Y-44726961D02*
X145670112Y-44679342D01*
X145670112Y-44679342D02*
X145622493Y-44584104D01*
X145622493Y-44584104D02*
X145527255Y-44536485D01*
X145527255Y-44536485D02*
X145384398Y-44536485D01*
X145384398Y-44536485D02*
X145289160Y-44488866D01*
X145289160Y-44488866D02*
X145241541Y-44393628D01*
X145241541Y-44393628D02*
X145241541Y-44346009D01*
X145241541Y-44346009D02*
X145289160Y-44250771D01*
X145289160Y-44250771D02*
X145384398Y-44203152D01*
X145384398Y-44203152D02*
X145527255Y-44203152D01*
X145527255Y-44203152D02*
X145622493Y-44250771D01*
X145955827Y-44203152D02*
X146336779Y-44203152D01*
X146098684Y-43869819D02*
X146098684Y-44726961D01*
X146098684Y-44726961D02*
X146146303Y-44822200D01*
X146146303Y-44822200D02*
X146241541Y-44869819D01*
X146241541Y-44869819D02*
X146336779Y-44869819D01*
X146812970Y-44869819D02*
X146717732Y-44822200D01*
X146717732Y-44822200D02*
X146670113Y-44774580D01*
X146670113Y-44774580D02*
X146622494Y-44679342D01*
X146622494Y-44679342D02*
X146622494Y-44393628D01*
X146622494Y-44393628D02*
X146670113Y-44298390D01*
X146670113Y-44298390D02*
X146717732Y-44250771D01*
X146717732Y-44250771D02*
X146812970Y-44203152D01*
X146812970Y-44203152D02*
X146955827Y-44203152D01*
X146955827Y-44203152D02*
X147051065Y-44250771D01*
X147051065Y-44250771D02*
X147098684Y-44298390D01*
X147098684Y-44298390D02*
X147146303Y-44393628D01*
X147146303Y-44393628D02*
X147146303Y-44679342D01*
X147146303Y-44679342D02*
X147098684Y-44774580D01*
X147098684Y-44774580D02*
X147051065Y-44822200D01*
X147051065Y-44822200D02*
X146955827Y-44869819D01*
X146955827Y-44869819D02*
X146812970Y-44869819D01*
X147574875Y-44869819D02*
X147574875Y-44203152D01*
X147574875Y-44393628D02*
X147622494Y-44298390D01*
X147622494Y-44298390D02*
X147670113Y-44250771D01*
X147670113Y-44250771D02*
X147765351Y-44203152D01*
X147765351Y-44203152D02*
X147860589Y-44203152D01*
X149479637Y-43917438D02*
X149384399Y-43869819D01*
X149384399Y-43869819D02*
X149241542Y-43869819D01*
X149241542Y-43869819D02*
X149098685Y-43917438D01*
X149098685Y-43917438D02*
X149003447Y-44012676D01*
X149003447Y-44012676D02*
X148955828Y-44107914D01*
X148955828Y-44107914D02*
X148908209Y-44298390D01*
X148908209Y-44298390D02*
X148908209Y-44441247D01*
X148908209Y-44441247D02*
X148955828Y-44631723D01*
X148955828Y-44631723D02*
X149003447Y-44726961D01*
X149003447Y-44726961D02*
X149098685Y-44822200D01*
X149098685Y-44822200D02*
X149241542Y-44869819D01*
X149241542Y-44869819D02*
X149336780Y-44869819D01*
X149336780Y-44869819D02*
X149479637Y-44822200D01*
X149479637Y-44822200D02*
X149527256Y-44774580D01*
X149527256Y-44774580D02*
X149527256Y-44441247D01*
X149527256Y-44441247D02*
X149336780Y-44441247D01*
X149955828Y-44869819D02*
X149955828Y-44203152D01*
X149955828Y-44393628D02*
X150003447Y-44298390D01*
X150003447Y-44298390D02*
X150051066Y-44250771D01*
X150051066Y-44250771D02*
X150146304Y-44203152D01*
X150146304Y-44203152D02*
X150241542Y-44203152D01*
X150717733Y-44869819D02*
X150622495Y-44822200D01*
X150622495Y-44822200D02*
X150574876Y-44774580D01*
X150574876Y-44774580D02*
X150527257Y-44679342D01*
X150527257Y-44679342D02*
X150527257Y-44393628D01*
X150527257Y-44393628D02*
X150574876Y-44298390D01*
X150574876Y-44298390D02*
X150622495Y-44250771D01*
X150622495Y-44250771D02*
X150717733Y-44203152D01*
X150717733Y-44203152D02*
X150860590Y-44203152D01*
X150860590Y-44203152D02*
X150955828Y-44250771D01*
X150955828Y-44250771D02*
X151003447Y-44298390D01*
X151003447Y-44298390D02*
X151051066Y-44393628D01*
X151051066Y-44393628D02*
X151051066Y-44679342D01*
X151051066Y-44679342D02*
X151003447Y-44774580D01*
X151003447Y-44774580D02*
X150955828Y-44822200D01*
X150955828Y-44822200D02*
X150860590Y-44869819D01*
X150860590Y-44869819D02*
X150717733Y-44869819D01*
X151908209Y-44203152D02*
X151908209Y-44869819D01*
X151479638Y-44203152D02*
X151479638Y-44726961D01*
X151479638Y-44726961D02*
X151527257Y-44822200D01*
X151527257Y-44822200D02*
X151622495Y-44869819D01*
X151622495Y-44869819D02*
X151765352Y-44869819D01*
X151765352Y-44869819D02*
X151860590Y-44822200D01*
X151860590Y-44822200D02*
X151908209Y-44774580D01*
X152384400Y-44203152D02*
X152384400Y-44869819D01*
X152384400Y-44298390D02*
X152432019Y-44250771D01*
X152432019Y-44250771D02*
X152527257Y-44203152D01*
X152527257Y-44203152D02*
X152670114Y-44203152D01*
X152670114Y-44203152D02*
X152765352Y-44250771D01*
X152765352Y-44250771D02*
X152812971Y-44346009D01*
X152812971Y-44346009D02*
X152812971Y-44869819D01*
X153717733Y-44869819D02*
X153717733Y-43869819D01*
X153717733Y-44822200D02*
X153622495Y-44869819D01*
X153622495Y-44869819D02*
X153432019Y-44869819D01*
X153432019Y-44869819D02*
X153336781Y-44822200D01*
X153336781Y-44822200D02*
X153289162Y-44774580D01*
X153289162Y-44774580D02*
X153241543Y-44679342D01*
X153241543Y-44679342D02*
X153241543Y-44393628D01*
X153241543Y-44393628D02*
X153289162Y-44298390D01*
X153289162Y-44298390D02*
X153336781Y-44250771D01*
X153336781Y-44250771D02*
X153432019Y-44203152D01*
X153432019Y-44203152D02*
X153622495Y-44203152D01*
X153622495Y-44203152D02*
X153717733Y-44250771D01*
X155098686Y-44298390D02*
X155003448Y-44250771D01*
X155003448Y-44250771D02*
X154955829Y-44203152D01*
X154955829Y-44203152D02*
X154908210Y-44107914D01*
X154908210Y-44107914D02*
X154908210Y-44060295D01*
X154908210Y-44060295D02*
X154955829Y-43965057D01*
X154955829Y-43965057D02*
X155003448Y-43917438D01*
X155003448Y-43917438D02*
X155098686Y-43869819D01*
X155098686Y-43869819D02*
X155289162Y-43869819D01*
X155289162Y-43869819D02*
X155384400Y-43917438D01*
X155384400Y-43917438D02*
X155432019Y-43965057D01*
X155432019Y-43965057D02*
X155479638Y-44060295D01*
X155479638Y-44060295D02*
X155479638Y-44107914D01*
X155479638Y-44107914D02*
X155432019Y-44203152D01*
X155432019Y-44203152D02*
X155384400Y-44250771D01*
X155384400Y-44250771D02*
X155289162Y-44298390D01*
X155289162Y-44298390D02*
X155098686Y-44298390D01*
X155098686Y-44298390D02*
X155003448Y-44346009D01*
X155003448Y-44346009D02*
X154955829Y-44393628D01*
X154955829Y-44393628D02*
X154908210Y-44488866D01*
X154908210Y-44488866D02*
X154908210Y-44679342D01*
X154908210Y-44679342D02*
X154955829Y-44774580D01*
X154955829Y-44774580D02*
X155003448Y-44822200D01*
X155003448Y-44822200D02*
X155098686Y-44869819D01*
X155098686Y-44869819D02*
X155289162Y-44869819D01*
X155289162Y-44869819D02*
X155384400Y-44822200D01*
X155384400Y-44822200D02*
X155432019Y-44774580D01*
X155432019Y-44774580D02*
X155479638Y-44679342D01*
X155479638Y-44679342D02*
X155479638Y-44488866D01*
X155479638Y-44488866D02*
X155432019Y-44393628D01*
X155432019Y-44393628D02*
X155384400Y-44346009D01*
X155384400Y-44346009D02*
X155289162Y-44298390D01*
X140193922Y-74869819D02*
X140765350Y-74869819D01*
X140479636Y-75869819D02*
X140479636Y-74869819D01*
X141098684Y-75869819D02*
X141098684Y-74869819D01*
X141527255Y-75869819D02*
X141527255Y-75346009D01*
X141527255Y-75346009D02*
X141479636Y-75250771D01*
X141479636Y-75250771D02*
X141384398Y-75203152D01*
X141384398Y-75203152D02*
X141241541Y-75203152D01*
X141241541Y-75203152D02*
X141146303Y-75250771D01*
X141146303Y-75250771D02*
X141098684Y-75298390D01*
X142384398Y-75822200D02*
X142289160Y-75869819D01*
X142289160Y-75869819D02*
X142098684Y-75869819D01*
X142098684Y-75869819D02*
X142003446Y-75822200D01*
X142003446Y-75822200D02*
X141955827Y-75726961D01*
X141955827Y-75726961D02*
X141955827Y-75346009D01*
X141955827Y-75346009D02*
X142003446Y-75250771D01*
X142003446Y-75250771D02*
X142098684Y-75203152D01*
X142098684Y-75203152D02*
X142289160Y-75203152D01*
X142289160Y-75203152D02*
X142384398Y-75250771D01*
X142384398Y-75250771D02*
X142432017Y-75346009D01*
X142432017Y-75346009D02*
X142432017Y-75441247D01*
X142432017Y-75441247D02*
X141955827Y-75536485D01*
X142860589Y-75869819D02*
X142860589Y-75203152D01*
X142860589Y-75393628D02*
X142908208Y-75298390D01*
X142908208Y-75298390D02*
X142955827Y-75250771D01*
X142955827Y-75250771D02*
X143051065Y-75203152D01*
X143051065Y-75203152D02*
X143146303Y-75203152D01*
X143479637Y-75869819D02*
X143479637Y-75203152D01*
X143479637Y-75298390D02*
X143527256Y-75250771D01*
X143527256Y-75250771D02*
X143622494Y-75203152D01*
X143622494Y-75203152D02*
X143765351Y-75203152D01*
X143765351Y-75203152D02*
X143860589Y-75250771D01*
X143860589Y-75250771D02*
X143908208Y-75346009D01*
X143908208Y-75346009D02*
X143908208Y-75869819D01*
X143908208Y-75346009D02*
X143955827Y-75250771D01*
X143955827Y-75250771D02*
X144051065Y-75203152D01*
X144051065Y-75203152D02*
X144193922Y-75203152D01*
X144193922Y-75203152D02*
X144289161Y-75250771D01*
X144289161Y-75250771D02*
X144336780Y-75346009D01*
X144336780Y-75346009D02*
X144336780Y-75869819D01*
X144812970Y-75869819D02*
X144812970Y-75203152D01*
X144812970Y-74869819D02*
X144765351Y-74917438D01*
X144765351Y-74917438D02*
X144812970Y-74965057D01*
X144812970Y-74965057D02*
X144860589Y-74917438D01*
X144860589Y-74917438D02*
X144812970Y-74869819D01*
X144812970Y-74869819D02*
X144812970Y-74965057D01*
X145241541Y-75822200D02*
X145336779Y-75869819D01*
X145336779Y-75869819D02*
X145527255Y-75869819D01*
X145527255Y-75869819D02*
X145622493Y-75822200D01*
X145622493Y-75822200D02*
X145670112Y-75726961D01*
X145670112Y-75726961D02*
X145670112Y-75679342D01*
X145670112Y-75679342D02*
X145622493Y-75584104D01*
X145622493Y-75584104D02*
X145527255Y-75536485D01*
X145527255Y-75536485D02*
X145384398Y-75536485D01*
X145384398Y-75536485D02*
X145289160Y-75488866D01*
X145289160Y-75488866D02*
X145241541Y-75393628D01*
X145241541Y-75393628D02*
X145241541Y-75346009D01*
X145241541Y-75346009D02*
X145289160Y-75250771D01*
X145289160Y-75250771D02*
X145384398Y-75203152D01*
X145384398Y-75203152D02*
X145527255Y-75203152D01*
X145527255Y-75203152D02*
X145622493Y-75250771D01*
X145955827Y-75203152D02*
X146336779Y-75203152D01*
X146098684Y-74869819D02*
X146098684Y-75726961D01*
X146098684Y-75726961D02*
X146146303Y-75822200D01*
X146146303Y-75822200D02*
X146241541Y-75869819D01*
X146241541Y-75869819D02*
X146336779Y-75869819D01*
X146812970Y-75869819D02*
X146717732Y-75822200D01*
X146717732Y-75822200D02*
X146670113Y-75774580D01*
X146670113Y-75774580D02*
X146622494Y-75679342D01*
X146622494Y-75679342D02*
X146622494Y-75393628D01*
X146622494Y-75393628D02*
X146670113Y-75298390D01*
X146670113Y-75298390D02*
X146717732Y-75250771D01*
X146717732Y-75250771D02*
X146812970Y-75203152D01*
X146812970Y-75203152D02*
X146955827Y-75203152D01*
X146955827Y-75203152D02*
X147051065Y-75250771D01*
X147051065Y-75250771D02*
X147098684Y-75298390D01*
X147098684Y-75298390D02*
X147146303Y-75393628D01*
X147146303Y-75393628D02*
X147146303Y-75679342D01*
X147146303Y-75679342D02*
X147098684Y-75774580D01*
X147098684Y-75774580D02*
X147051065Y-75822200D01*
X147051065Y-75822200D02*
X146955827Y-75869819D01*
X146955827Y-75869819D02*
X146812970Y-75869819D01*
X147574875Y-75869819D02*
X147574875Y-75203152D01*
X147574875Y-75393628D02*
X147622494Y-75298390D01*
X147622494Y-75298390D02*
X147670113Y-75250771D01*
X147670113Y-75250771D02*
X147765351Y-75203152D01*
X147765351Y-75203152D02*
X147860589Y-75203152D01*
X149479637Y-74917438D02*
X149384399Y-74869819D01*
X149384399Y-74869819D02*
X149241542Y-74869819D01*
X149241542Y-74869819D02*
X149098685Y-74917438D01*
X149098685Y-74917438D02*
X149003447Y-75012676D01*
X149003447Y-75012676D02*
X148955828Y-75107914D01*
X148955828Y-75107914D02*
X148908209Y-75298390D01*
X148908209Y-75298390D02*
X148908209Y-75441247D01*
X148908209Y-75441247D02*
X148955828Y-75631723D01*
X148955828Y-75631723D02*
X149003447Y-75726961D01*
X149003447Y-75726961D02*
X149098685Y-75822200D01*
X149098685Y-75822200D02*
X149241542Y-75869819D01*
X149241542Y-75869819D02*
X149336780Y-75869819D01*
X149336780Y-75869819D02*
X149479637Y-75822200D01*
X149479637Y-75822200D02*
X149527256Y-75774580D01*
X149527256Y-75774580D02*
X149527256Y-75441247D01*
X149527256Y-75441247D02*
X149336780Y-75441247D01*
X149955828Y-75869819D02*
X149955828Y-75203152D01*
X149955828Y-75393628D02*
X150003447Y-75298390D01*
X150003447Y-75298390D02*
X150051066Y-75250771D01*
X150051066Y-75250771D02*
X150146304Y-75203152D01*
X150146304Y-75203152D02*
X150241542Y-75203152D01*
X150717733Y-75869819D02*
X150622495Y-75822200D01*
X150622495Y-75822200D02*
X150574876Y-75774580D01*
X150574876Y-75774580D02*
X150527257Y-75679342D01*
X150527257Y-75679342D02*
X150527257Y-75393628D01*
X150527257Y-75393628D02*
X150574876Y-75298390D01*
X150574876Y-75298390D02*
X150622495Y-75250771D01*
X150622495Y-75250771D02*
X150717733Y-75203152D01*
X150717733Y-75203152D02*
X150860590Y-75203152D01*
X150860590Y-75203152D02*
X150955828Y-75250771D01*
X150955828Y-75250771D02*
X151003447Y-75298390D01*
X151003447Y-75298390D02*
X151051066Y-75393628D01*
X151051066Y-75393628D02*
X151051066Y-75679342D01*
X151051066Y-75679342D02*
X151003447Y-75774580D01*
X151003447Y-75774580D02*
X150955828Y-75822200D01*
X150955828Y-75822200D02*
X150860590Y-75869819D01*
X150860590Y-75869819D02*
X150717733Y-75869819D01*
X151908209Y-75203152D02*
X151908209Y-75869819D01*
X151479638Y-75203152D02*
X151479638Y-75726961D01*
X151479638Y-75726961D02*
X151527257Y-75822200D01*
X151527257Y-75822200D02*
X151622495Y-75869819D01*
X151622495Y-75869819D02*
X151765352Y-75869819D01*
X151765352Y-75869819D02*
X151860590Y-75822200D01*
X151860590Y-75822200D02*
X151908209Y-75774580D01*
X152384400Y-75203152D02*
X152384400Y-75869819D01*
X152384400Y-75298390D02*
X152432019Y-75250771D01*
X152432019Y-75250771D02*
X152527257Y-75203152D01*
X152527257Y-75203152D02*
X152670114Y-75203152D01*
X152670114Y-75203152D02*
X152765352Y-75250771D01*
X152765352Y-75250771D02*
X152812971Y-75346009D01*
X152812971Y-75346009D02*
X152812971Y-75869819D01*
X153717733Y-75869819D02*
X153717733Y-74869819D01*
X153717733Y-75822200D02*
X153622495Y-75869819D01*
X153622495Y-75869819D02*
X153432019Y-75869819D01*
X153432019Y-75869819D02*
X153336781Y-75822200D01*
X153336781Y-75822200D02*
X153289162Y-75774580D01*
X153289162Y-75774580D02*
X153241543Y-75679342D01*
X153241543Y-75679342D02*
X153241543Y-75393628D01*
X153241543Y-75393628D02*
X153289162Y-75298390D01*
X153289162Y-75298390D02*
X153336781Y-75250771D01*
X153336781Y-75250771D02*
X153432019Y-75203152D01*
X153432019Y-75203152D02*
X153622495Y-75203152D01*
X153622495Y-75203152D02*
X153717733Y-75250771D01*
X155384400Y-75203152D02*
X155384400Y-75869819D01*
X155146305Y-74822200D02*
X154908210Y-75536485D01*
X154908210Y-75536485D02*
X155527257Y-75536485D01*
X140193922Y-66869819D02*
X140765350Y-66869819D01*
X140479636Y-67869819D02*
X140479636Y-66869819D01*
X141098684Y-67869819D02*
X141098684Y-66869819D01*
X141527255Y-67869819D02*
X141527255Y-67346009D01*
X141527255Y-67346009D02*
X141479636Y-67250771D01*
X141479636Y-67250771D02*
X141384398Y-67203152D01*
X141384398Y-67203152D02*
X141241541Y-67203152D01*
X141241541Y-67203152D02*
X141146303Y-67250771D01*
X141146303Y-67250771D02*
X141098684Y-67298390D01*
X142384398Y-67822200D02*
X142289160Y-67869819D01*
X142289160Y-67869819D02*
X142098684Y-67869819D01*
X142098684Y-67869819D02*
X142003446Y-67822200D01*
X142003446Y-67822200D02*
X141955827Y-67726961D01*
X141955827Y-67726961D02*
X141955827Y-67346009D01*
X141955827Y-67346009D02*
X142003446Y-67250771D01*
X142003446Y-67250771D02*
X142098684Y-67203152D01*
X142098684Y-67203152D02*
X142289160Y-67203152D01*
X142289160Y-67203152D02*
X142384398Y-67250771D01*
X142384398Y-67250771D02*
X142432017Y-67346009D01*
X142432017Y-67346009D02*
X142432017Y-67441247D01*
X142432017Y-67441247D02*
X141955827Y-67536485D01*
X142860589Y-67869819D02*
X142860589Y-67203152D01*
X142860589Y-67393628D02*
X142908208Y-67298390D01*
X142908208Y-67298390D02*
X142955827Y-67250771D01*
X142955827Y-67250771D02*
X143051065Y-67203152D01*
X143051065Y-67203152D02*
X143146303Y-67203152D01*
X143479637Y-67869819D02*
X143479637Y-67203152D01*
X143479637Y-67298390D02*
X143527256Y-67250771D01*
X143527256Y-67250771D02*
X143622494Y-67203152D01*
X143622494Y-67203152D02*
X143765351Y-67203152D01*
X143765351Y-67203152D02*
X143860589Y-67250771D01*
X143860589Y-67250771D02*
X143908208Y-67346009D01*
X143908208Y-67346009D02*
X143908208Y-67869819D01*
X143908208Y-67346009D02*
X143955827Y-67250771D01*
X143955827Y-67250771D02*
X144051065Y-67203152D01*
X144051065Y-67203152D02*
X144193922Y-67203152D01*
X144193922Y-67203152D02*
X144289161Y-67250771D01*
X144289161Y-67250771D02*
X144336780Y-67346009D01*
X144336780Y-67346009D02*
X144336780Y-67869819D01*
X144812970Y-67869819D02*
X144812970Y-67203152D01*
X144812970Y-66869819D02*
X144765351Y-66917438D01*
X144765351Y-66917438D02*
X144812970Y-66965057D01*
X144812970Y-66965057D02*
X144860589Y-66917438D01*
X144860589Y-66917438D02*
X144812970Y-66869819D01*
X144812970Y-66869819D02*
X144812970Y-66965057D01*
X145241541Y-67822200D02*
X145336779Y-67869819D01*
X145336779Y-67869819D02*
X145527255Y-67869819D01*
X145527255Y-67869819D02*
X145622493Y-67822200D01*
X145622493Y-67822200D02*
X145670112Y-67726961D01*
X145670112Y-67726961D02*
X145670112Y-67679342D01*
X145670112Y-67679342D02*
X145622493Y-67584104D01*
X145622493Y-67584104D02*
X145527255Y-67536485D01*
X145527255Y-67536485D02*
X145384398Y-67536485D01*
X145384398Y-67536485D02*
X145289160Y-67488866D01*
X145289160Y-67488866D02*
X145241541Y-67393628D01*
X145241541Y-67393628D02*
X145241541Y-67346009D01*
X145241541Y-67346009D02*
X145289160Y-67250771D01*
X145289160Y-67250771D02*
X145384398Y-67203152D01*
X145384398Y-67203152D02*
X145527255Y-67203152D01*
X145527255Y-67203152D02*
X145622493Y-67250771D01*
X145955827Y-67203152D02*
X146336779Y-67203152D01*
X146098684Y-66869819D02*
X146098684Y-67726961D01*
X146098684Y-67726961D02*
X146146303Y-67822200D01*
X146146303Y-67822200D02*
X146241541Y-67869819D01*
X146241541Y-67869819D02*
X146336779Y-67869819D01*
X146812970Y-67869819D02*
X146717732Y-67822200D01*
X146717732Y-67822200D02*
X146670113Y-67774580D01*
X146670113Y-67774580D02*
X146622494Y-67679342D01*
X146622494Y-67679342D02*
X146622494Y-67393628D01*
X146622494Y-67393628D02*
X146670113Y-67298390D01*
X146670113Y-67298390D02*
X146717732Y-67250771D01*
X146717732Y-67250771D02*
X146812970Y-67203152D01*
X146812970Y-67203152D02*
X146955827Y-67203152D01*
X146955827Y-67203152D02*
X147051065Y-67250771D01*
X147051065Y-67250771D02*
X147098684Y-67298390D01*
X147098684Y-67298390D02*
X147146303Y-67393628D01*
X147146303Y-67393628D02*
X147146303Y-67679342D01*
X147146303Y-67679342D02*
X147098684Y-67774580D01*
X147098684Y-67774580D02*
X147051065Y-67822200D01*
X147051065Y-67822200D02*
X146955827Y-67869819D01*
X146955827Y-67869819D02*
X146812970Y-67869819D01*
X147574875Y-67869819D02*
X147574875Y-67203152D01*
X147574875Y-67393628D02*
X147622494Y-67298390D01*
X147622494Y-67298390D02*
X147670113Y-67250771D01*
X147670113Y-67250771D02*
X147765351Y-67203152D01*
X147765351Y-67203152D02*
X147860589Y-67203152D01*
X149479637Y-66917438D02*
X149384399Y-66869819D01*
X149384399Y-66869819D02*
X149241542Y-66869819D01*
X149241542Y-66869819D02*
X149098685Y-66917438D01*
X149098685Y-66917438D02*
X149003447Y-67012676D01*
X149003447Y-67012676D02*
X148955828Y-67107914D01*
X148955828Y-67107914D02*
X148908209Y-67298390D01*
X148908209Y-67298390D02*
X148908209Y-67441247D01*
X148908209Y-67441247D02*
X148955828Y-67631723D01*
X148955828Y-67631723D02*
X149003447Y-67726961D01*
X149003447Y-67726961D02*
X149098685Y-67822200D01*
X149098685Y-67822200D02*
X149241542Y-67869819D01*
X149241542Y-67869819D02*
X149336780Y-67869819D01*
X149336780Y-67869819D02*
X149479637Y-67822200D01*
X149479637Y-67822200D02*
X149527256Y-67774580D01*
X149527256Y-67774580D02*
X149527256Y-67441247D01*
X149527256Y-67441247D02*
X149336780Y-67441247D01*
X149955828Y-67869819D02*
X149955828Y-67203152D01*
X149955828Y-67393628D02*
X150003447Y-67298390D01*
X150003447Y-67298390D02*
X150051066Y-67250771D01*
X150051066Y-67250771D02*
X150146304Y-67203152D01*
X150146304Y-67203152D02*
X150241542Y-67203152D01*
X150717733Y-67869819D02*
X150622495Y-67822200D01*
X150622495Y-67822200D02*
X150574876Y-67774580D01*
X150574876Y-67774580D02*
X150527257Y-67679342D01*
X150527257Y-67679342D02*
X150527257Y-67393628D01*
X150527257Y-67393628D02*
X150574876Y-67298390D01*
X150574876Y-67298390D02*
X150622495Y-67250771D01*
X150622495Y-67250771D02*
X150717733Y-67203152D01*
X150717733Y-67203152D02*
X150860590Y-67203152D01*
X150860590Y-67203152D02*
X150955828Y-67250771D01*
X150955828Y-67250771D02*
X151003447Y-67298390D01*
X151003447Y-67298390D02*
X151051066Y-67393628D01*
X151051066Y-67393628D02*
X151051066Y-67679342D01*
X151051066Y-67679342D02*
X151003447Y-67774580D01*
X151003447Y-67774580D02*
X150955828Y-67822200D01*
X150955828Y-67822200D02*
X150860590Y-67869819D01*
X150860590Y-67869819D02*
X150717733Y-67869819D01*
X151908209Y-67203152D02*
X151908209Y-67869819D01*
X151479638Y-67203152D02*
X151479638Y-67726961D01*
X151479638Y-67726961D02*
X151527257Y-67822200D01*
X151527257Y-67822200D02*
X151622495Y-67869819D01*
X151622495Y-67869819D02*
X151765352Y-67869819D01*
X151765352Y-67869819D02*
X151860590Y-67822200D01*
X151860590Y-67822200D02*
X151908209Y-67774580D01*
X152384400Y-67203152D02*
X152384400Y-67869819D01*
X152384400Y-67298390D02*
X152432019Y-67250771D01*
X152432019Y-67250771D02*
X152527257Y-67203152D01*
X152527257Y-67203152D02*
X152670114Y-67203152D01*
X152670114Y-67203152D02*
X152765352Y-67250771D01*
X152765352Y-67250771D02*
X152812971Y-67346009D01*
X152812971Y-67346009D02*
X152812971Y-67869819D01*
X153717733Y-67869819D02*
X153717733Y-66869819D01*
X153717733Y-67822200D02*
X153622495Y-67869819D01*
X153622495Y-67869819D02*
X153432019Y-67869819D01*
X153432019Y-67869819D02*
X153336781Y-67822200D01*
X153336781Y-67822200D02*
X153289162Y-67774580D01*
X153289162Y-67774580D02*
X153241543Y-67679342D01*
X153241543Y-67679342D02*
X153241543Y-67393628D01*
X153241543Y-67393628D02*
X153289162Y-67298390D01*
X153289162Y-67298390D02*
X153336781Y-67250771D01*
X153336781Y-67250771D02*
X153432019Y-67203152D01*
X153432019Y-67203152D02*
X153622495Y-67203152D01*
X153622495Y-67203152D02*
X153717733Y-67250771D01*
X155432019Y-66869819D02*
X154955829Y-66869819D01*
X154955829Y-66869819D02*
X154908210Y-67346009D01*
X154908210Y-67346009D02*
X154955829Y-67298390D01*
X154955829Y-67298390D02*
X155051067Y-67250771D01*
X155051067Y-67250771D02*
X155289162Y-67250771D01*
X155289162Y-67250771D02*
X155384400Y-67298390D01*
X155384400Y-67298390D02*
X155432019Y-67346009D01*
X155432019Y-67346009D02*
X155479638Y-67441247D01*
X155479638Y-67441247D02*
X155479638Y-67679342D01*
X155479638Y-67679342D02*
X155432019Y-67774580D01*
X155432019Y-67774580D02*
X155384400Y-67822200D01*
X155384400Y-67822200D02*
X155289162Y-67869819D01*
X155289162Y-67869819D02*
X155051067Y-67869819D01*
X155051067Y-67869819D02*
X154955829Y-67822200D01*
X154955829Y-67822200D02*
X154908210Y-67774580D01*
X140193922Y-59869819D02*
X140765350Y-59869819D01*
X140479636Y-60869819D02*
X140479636Y-59869819D01*
X141098684Y-60869819D02*
X141098684Y-59869819D01*
X141527255Y-60869819D02*
X141527255Y-60346009D01*
X141527255Y-60346009D02*
X141479636Y-60250771D01*
X141479636Y-60250771D02*
X141384398Y-60203152D01*
X141384398Y-60203152D02*
X141241541Y-60203152D01*
X141241541Y-60203152D02*
X141146303Y-60250771D01*
X141146303Y-60250771D02*
X141098684Y-60298390D01*
X142384398Y-60822200D02*
X142289160Y-60869819D01*
X142289160Y-60869819D02*
X142098684Y-60869819D01*
X142098684Y-60869819D02*
X142003446Y-60822200D01*
X142003446Y-60822200D02*
X141955827Y-60726961D01*
X141955827Y-60726961D02*
X141955827Y-60346009D01*
X141955827Y-60346009D02*
X142003446Y-60250771D01*
X142003446Y-60250771D02*
X142098684Y-60203152D01*
X142098684Y-60203152D02*
X142289160Y-60203152D01*
X142289160Y-60203152D02*
X142384398Y-60250771D01*
X142384398Y-60250771D02*
X142432017Y-60346009D01*
X142432017Y-60346009D02*
X142432017Y-60441247D01*
X142432017Y-60441247D02*
X141955827Y-60536485D01*
X142860589Y-60869819D02*
X142860589Y-60203152D01*
X142860589Y-60393628D02*
X142908208Y-60298390D01*
X142908208Y-60298390D02*
X142955827Y-60250771D01*
X142955827Y-60250771D02*
X143051065Y-60203152D01*
X143051065Y-60203152D02*
X143146303Y-60203152D01*
X143479637Y-60869819D02*
X143479637Y-60203152D01*
X143479637Y-60298390D02*
X143527256Y-60250771D01*
X143527256Y-60250771D02*
X143622494Y-60203152D01*
X143622494Y-60203152D02*
X143765351Y-60203152D01*
X143765351Y-60203152D02*
X143860589Y-60250771D01*
X143860589Y-60250771D02*
X143908208Y-60346009D01*
X143908208Y-60346009D02*
X143908208Y-60869819D01*
X143908208Y-60346009D02*
X143955827Y-60250771D01*
X143955827Y-60250771D02*
X144051065Y-60203152D01*
X144051065Y-60203152D02*
X144193922Y-60203152D01*
X144193922Y-60203152D02*
X144289161Y-60250771D01*
X144289161Y-60250771D02*
X144336780Y-60346009D01*
X144336780Y-60346009D02*
X144336780Y-60869819D01*
X144812970Y-60869819D02*
X144812970Y-60203152D01*
X144812970Y-59869819D02*
X144765351Y-59917438D01*
X144765351Y-59917438D02*
X144812970Y-59965057D01*
X144812970Y-59965057D02*
X144860589Y-59917438D01*
X144860589Y-59917438D02*
X144812970Y-59869819D01*
X144812970Y-59869819D02*
X144812970Y-59965057D01*
X145241541Y-60822200D02*
X145336779Y-60869819D01*
X145336779Y-60869819D02*
X145527255Y-60869819D01*
X145527255Y-60869819D02*
X145622493Y-60822200D01*
X145622493Y-60822200D02*
X145670112Y-60726961D01*
X145670112Y-60726961D02*
X145670112Y-60679342D01*
X145670112Y-60679342D02*
X145622493Y-60584104D01*
X145622493Y-60584104D02*
X145527255Y-60536485D01*
X145527255Y-60536485D02*
X145384398Y-60536485D01*
X145384398Y-60536485D02*
X145289160Y-60488866D01*
X145289160Y-60488866D02*
X145241541Y-60393628D01*
X145241541Y-60393628D02*
X145241541Y-60346009D01*
X145241541Y-60346009D02*
X145289160Y-60250771D01*
X145289160Y-60250771D02*
X145384398Y-60203152D01*
X145384398Y-60203152D02*
X145527255Y-60203152D01*
X145527255Y-60203152D02*
X145622493Y-60250771D01*
X145955827Y-60203152D02*
X146336779Y-60203152D01*
X146098684Y-59869819D02*
X146098684Y-60726961D01*
X146098684Y-60726961D02*
X146146303Y-60822200D01*
X146146303Y-60822200D02*
X146241541Y-60869819D01*
X146241541Y-60869819D02*
X146336779Y-60869819D01*
X146812970Y-60869819D02*
X146717732Y-60822200D01*
X146717732Y-60822200D02*
X146670113Y-60774580D01*
X146670113Y-60774580D02*
X146622494Y-60679342D01*
X146622494Y-60679342D02*
X146622494Y-60393628D01*
X146622494Y-60393628D02*
X146670113Y-60298390D01*
X146670113Y-60298390D02*
X146717732Y-60250771D01*
X146717732Y-60250771D02*
X146812970Y-60203152D01*
X146812970Y-60203152D02*
X146955827Y-60203152D01*
X146955827Y-60203152D02*
X147051065Y-60250771D01*
X147051065Y-60250771D02*
X147098684Y-60298390D01*
X147098684Y-60298390D02*
X147146303Y-60393628D01*
X147146303Y-60393628D02*
X147146303Y-60679342D01*
X147146303Y-60679342D02*
X147098684Y-60774580D01*
X147098684Y-60774580D02*
X147051065Y-60822200D01*
X147051065Y-60822200D02*
X146955827Y-60869819D01*
X146955827Y-60869819D02*
X146812970Y-60869819D01*
X147574875Y-60869819D02*
X147574875Y-60203152D01*
X147574875Y-60393628D02*
X147622494Y-60298390D01*
X147622494Y-60298390D02*
X147670113Y-60250771D01*
X147670113Y-60250771D02*
X147765351Y-60203152D01*
X147765351Y-60203152D02*
X147860589Y-60203152D01*
X149479637Y-59917438D02*
X149384399Y-59869819D01*
X149384399Y-59869819D02*
X149241542Y-59869819D01*
X149241542Y-59869819D02*
X149098685Y-59917438D01*
X149098685Y-59917438D02*
X149003447Y-60012676D01*
X149003447Y-60012676D02*
X148955828Y-60107914D01*
X148955828Y-60107914D02*
X148908209Y-60298390D01*
X148908209Y-60298390D02*
X148908209Y-60441247D01*
X148908209Y-60441247D02*
X148955828Y-60631723D01*
X148955828Y-60631723D02*
X149003447Y-60726961D01*
X149003447Y-60726961D02*
X149098685Y-60822200D01*
X149098685Y-60822200D02*
X149241542Y-60869819D01*
X149241542Y-60869819D02*
X149336780Y-60869819D01*
X149336780Y-60869819D02*
X149479637Y-60822200D01*
X149479637Y-60822200D02*
X149527256Y-60774580D01*
X149527256Y-60774580D02*
X149527256Y-60441247D01*
X149527256Y-60441247D02*
X149336780Y-60441247D01*
X149955828Y-60869819D02*
X149955828Y-60203152D01*
X149955828Y-60393628D02*
X150003447Y-60298390D01*
X150003447Y-60298390D02*
X150051066Y-60250771D01*
X150051066Y-60250771D02*
X150146304Y-60203152D01*
X150146304Y-60203152D02*
X150241542Y-60203152D01*
X150717733Y-60869819D02*
X150622495Y-60822200D01*
X150622495Y-60822200D02*
X150574876Y-60774580D01*
X150574876Y-60774580D02*
X150527257Y-60679342D01*
X150527257Y-60679342D02*
X150527257Y-60393628D01*
X150527257Y-60393628D02*
X150574876Y-60298390D01*
X150574876Y-60298390D02*
X150622495Y-60250771D01*
X150622495Y-60250771D02*
X150717733Y-60203152D01*
X150717733Y-60203152D02*
X150860590Y-60203152D01*
X150860590Y-60203152D02*
X150955828Y-60250771D01*
X150955828Y-60250771D02*
X151003447Y-60298390D01*
X151003447Y-60298390D02*
X151051066Y-60393628D01*
X151051066Y-60393628D02*
X151051066Y-60679342D01*
X151051066Y-60679342D02*
X151003447Y-60774580D01*
X151003447Y-60774580D02*
X150955828Y-60822200D01*
X150955828Y-60822200D02*
X150860590Y-60869819D01*
X150860590Y-60869819D02*
X150717733Y-60869819D01*
X151908209Y-60203152D02*
X151908209Y-60869819D01*
X151479638Y-60203152D02*
X151479638Y-60726961D01*
X151479638Y-60726961D02*
X151527257Y-60822200D01*
X151527257Y-60822200D02*
X151622495Y-60869819D01*
X151622495Y-60869819D02*
X151765352Y-60869819D01*
X151765352Y-60869819D02*
X151860590Y-60822200D01*
X151860590Y-60822200D02*
X151908209Y-60774580D01*
X152384400Y-60203152D02*
X152384400Y-60869819D01*
X152384400Y-60298390D02*
X152432019Y-60250771D01*
X152432019Y-60250771D02*
X152527257Y-60203152D01*
X152527257Y-60203152D02*
X152670114Y-60203152D01*
X152670114Y-60203152D02*
X152765352Y-60250771D01*
X152765352Y-60250771D02*
X152812971Y-60346009D01*
X152812971Y-60346009D02*
X152812971Y-60869819D01*
X153717733Y-60869819D02*
X153717733Y-59869819D01*
X153717733Y-60822200D02*
X153622495Y-60869819D01*
X153622495Y-60869819D02*
X153432019Y-60869819D01*
X153432019Y-60869819D02*
X153336781Y-60822200D01*
X153336781Y-60822200D02*
X153289162Y-60774580D01*
X153289162Y-60774580D02*
X153241543Y-60679342D01*
X153241543Y-60679342D02*
X153241543Y-60393628D01*
X153241543Y-60393628D02*
X153289162Y-60298390D01*
X153289162Y-60298390D02*
X153336781Y-60250771D01*
X153336781Y-60250771D02*
X153432019Y-60203152D01*
X153432019Y-60203152D02*
X153622495Y-60203152D01*
X153622495Y-60203152D02*
X153717733Y-60250771D01*
X155384400Y-59869819D02*
X155193924Y-59869819D01*
X155193924Y-59869819D02*
X155098686Y-59917438D01*
X155098686Y-59917438D02*
X155051067Y-59965057D01*
X155051067Y-59965057D02*
X154955829Y-60107914D01*
X154955829Y-60107914D02*
X154908210Y-60298390D01*
X154908210Y-60298390D02*
X154908210Y-60679342D01*
X154908210Y-60679342D02*
X154955829Y-60774580D01*
X154955829Y-60774580D02*
X155003448Y-60822200D01*
X155003448Y-60822200D02*
X155098686Y-60869819D01*
X155098686Y-60869819D02*
X155289162Y-60869819D01*
X155289162Y-60869819D02*
X155384400Y-60822200D01*
X155384400Y-60822200D02*
X155432019Y-60774580D01*
X155432019Y-60774580D02*
X155479638Y-60679342D01*
X155479638Y-60679342D02*
X155479638Y-60441247D01*
X155479638Y-60441247D02*
X155432019Y-60346009D01*
X155432019Y-60346009D02*
X155384400Y-60298390D01*
X155384400Y-60298390D02*
X155289162Y-60250771D01*
X155289162Y-60250771D02*
X155098686Y-60250771D01*
X155098686Y-60250771D02*
X155003448Y-60298390D01*
X155003448Y-60298390D02*
X154955829Y-60346009D01*
X154955829Y-60346009D02*
X154908210Y-60441247D01*
X140908207Y-37774580D02*
X140860588Y-37822200D01*
X140860588Y-37822200D02*
X140717731Y-37869819D01*
X140717731Y-37869819D02*
X140622493Y-37869819D01*
X140622493Y-37869819D02*
X140479636Y-37822200D01*
X140479636Y-37822200D02*
X140384398Y-37726961D01*
X140384398Y-37726961D02*
X140336779Y-37631723D01*
X140336779Y-37631723D02*
X140289160Y-37441247D01*
X140289160Y-37441247D02*
X140289160Y-37298390D01*
X140289160Y-37298390D02*
X140336779Y-37107914D01*
X140336779Y-37107914D02*
X140384398Y-37012676D01*
X140384398Y-37012676D02*
X140479636Y-36917438D01*
X140479636Y-36917438D02*
X140622493Y-36869819D01*
X140622493Y-36869819D02*
X140717731Y-36869819D01*
X140717731Y-36869819D02*
X140860588Y-36917438D01*
X140860588Y-36917438D02*
X140908207Y-36965057D01*
X141765350Y-37203152D02*
X141765350Y-37869819D01*
X141336779Y-37203152D02*
X141336779Y-37726961D01*
X141336779Y-37726961D02*
X141384398Y-37822200D01*
X141384398Y-37822200D02*
X141479636Y-37869819D01*
X141479636Y-37869819D02*
X141622493Y-37869819D01*
X141622493Y-37869819D02*
X141717731Y-37822200D01*
X141717731Y-37822200D02*
X141765350Y-37774580D01*
X142241541Y-37869819D02*
X142241541Y-37203152D01*
X142241541Y-37393628D02*
X142289160Y-37298390D01*
X142289160Y-37298390D02*
X142336779Y-37250771D01*
X142336779Y-37250771D02*
X142432017Y-37203152D01*
X142432017Y-37203152D02*
X142527255Y-37203152D01*
X142860589Y-37869819D02*
X142860589Y-37203152D01*
X142860589Y-37393628D02*
X142908208Y-37298390D01*
X142908208Y-37298390D02*
X142955827Y-37250771D01*
X142955827Y-37250771D02*
X143051065Y-37203152D01*
X143051065Y-37203152D02*
X143146303Y-37203152D01*
X143860589Y-37822200D02*
X143765351Y-37869819D01*
X143765351Y-37869819D02*
X143574875Y-37869819D01*
X143574875Y-37869819D02*
X143479637Y-37822200D01*
X143479637Y-37822200D02*
X143432018Y-37726961D01*
X143432018Y-37726961D02*
X143432018Y-37346009D01*
X143432018Y-37346009D02*
X143479637Y-37250771D01*
X143479637Y-37250771D02*
X143574875Y-37203152D01*
X143574875Y-37203152D02*
X143765351Y-37203152D01*
X143765351Y-37203152D02*
X143860589Y-37250771D01*
X143860589Y-37250771D02*
X143908208Y-37346009D01*
X143908208Y-37346009D02*
X143908208Y-37441247D01*
X143908208Y-37441247D02*
X143432018Y-37536485D01*
X144336780Y-37203152D02*
X144336780Y-37869819D01*
X144336780Y-37298390D02*
X144384399Y-37250771D01*
X144384399Y-37250771D02*
X144479637Y-37203152D01*
X144479637Y-37203152D02*
X144622494Y-37203152D01*
X144622494Y-37203152D02*
X144717732Y-37250771D01*
X144717732Y-37250771D02*
X144765351Y-37346009D01*
X144765351Y-37346009D02*
X144765351Y-37869819D01*
X145098685Y-37203152D02*
X145479637Y-37203152D01*
X145241542Y-36869819D02*
X145241542Y-37726961D01*
X145241542Y-37726961D02*
X145289161Y-37822200D01*
X145289161Y-37822200D02*
X145384399Y-37869819D01*
X145384399Y-37869819D02*
X145479637Y-37869819D01*
X147098685Y-36917438D02*
X147003447Y-36869819D01*
X147003447Y-36869819D02*
X146860590Y-36869819D01*
X146860590Y-36869819D02*
X146717733Y-36917438D01*
X146717733Y-36917438D02*
X146622495Y-37012676D01*
X146622495Y-37012676D02*
X146574876Y-37107914D01*
X146574876Y-37107914D02*
X146527257Y-37298390D01*
X146527257Y-37298390D02*
X146527257Y-37441247D01*
X146527257Y-37441247D02*
X146574876Y-37631723D01*
X146574876Y-37631723D02*
X146622495Y-37726961D01*
X146622495Y-37726961D02*
X146717733Y-37822200D01*
X146717733Y-37822200D02*
X146860590Y-37869819D01*
X146860590Y-37869819D02*
X146955828Y-37869819D01*
X146955828Y-37869819D02*
X147098685Y-37822200D01*
X147098685Y-37822200D02*
X147146304Y-37774580D01*
X147146304Y-37774580D02*
X147146304Y-37441247D01*
X147146304Y-37441247D02*
X146955828Y-37441247D01*
X147574876Y-37869819D02*
X147574876Y-36869819D01*
X147574876Y-36869819D02*
X148146304Y-37869819D01*
X148146304Y-37869819D02*
X148146304Y-36869819D01*
X148622495Y-37869819D02*
X148622495Y-36869819D01*
X148622495Y-36869819D02*
X148860590Y-36869819D01*
X148860590Y-36869819D02*
X149003447Y-36917438D01*
X149003447Y-36917438D02*
X149098685Y-37012676D01*
X149098685Y-37012676D02*
X149146304Y-37107914D01*
X149146304Y-37107914D02*
X149193923Y-37298390D01*
X149193923Y-37298390D02*
X149193923Y-37441247D01*
X149193923Y-37441247D02*
X149146304Y-37631723D01*
X149146304Y-37631723D02*
X149098685Y-37726961D01*
X149098685Y-37726961D02*
X149003447Y-37822200D01*
X149003447Y-37822200D02*
X148860590Y-37869819D01*
X148860590Y-37869819D02*
X148622495Y-37869819D01*
X119016666Y-131604819D02*
X119016666Y-132319104D01*
X119016666Y-132319104D02*
X118969047Y-132461961D01*
X118969047Y-132461961D02*
X118873809Y-132557200D01*
X118873809Y-132557200D02*
X118730952Y-132604819D01*
X118730952Y-132604819D02*
X118635714Y-132604819D01*
X119397619Y-131604819D02*
X120016666Y-131604819D01*
X120016666Y-131604819D02*
X119683333Y-131985771D01*
X119683333Y-131985771D02*
X119826190Y-131985771D01*
X119826190Y-131985771D02*
X119921428Y-132033390D01*
X119921428Y-132033390D02*
X119969047Y-132081009D01*
X119969047Y-132081009D02*
X120016666Y-132176247D01*
X120016666Y-132176247D02*
X120016666Y-132414342D01*
X120016666Y-132414342D02*
X119969047Y-132509580D01*
X119969047Y-132509580D02*
X119921428Y-132557200D01*
X119921428Y-132557200D02*
X119826190Y-132604819D01*
X119826190Y-132604819D02*
X119540476Y-132604819D01*
X119540476Y-132604819D02*
X119445238Y-132557200D01*
X119445238Y-132557200D02*
X119397619Y-132509580D01*
X127055714Y-27494819D02*
X127055714Y-26494819D01*
X127055714Y-26494819D02*
X127293809Y-26494819D01*
X127293809Y-26494819D02*
X127436666Y-26542438D01*
X127436666Y-26542438D02*
X127531904Y-26637676D01*
X127531904Y-26637676D02*
X127579523Y-26732914D01*
X127579523Y-26732914D02*
X127627142Y-26923390D01*
X127627142Y-26923390D02*
X127627142Y-27066247D01*
X127627142Y-27066247D02*
X127579523Y-27256723D01*
X127579523Y-27256723D02*
X127531904Y-27351961D01*
X127531904Y-27351961D02*
X127436666Y-27447200D01*
X127436666Y-27447200D02*
X127293809Y-27494819D01*
X127293809Y-27494819D02*
X127055714Y-27494819D01*
X128008095Y-26590057D02*
X128055714Y-26542438D01*
X128055714Y-26542438D02*
X128150952Y-26494819D01*
X128150952Y-26494819D02*
X128389047Y-26494819D01*
X128389047Y-26494819D02*
X128484285Y-26542438D01*
X128484285Y-26542438D02*
X128531904Y-26590057D01*
X128531904Y-26590057D02*
X128579523Y-26685295D01*
X128579523Y-26685295D02*
X128579523Y-26780533D01*
X128579523Y-26780533D02*
X128531904Y-26923390D01*
X128531904Y-26923390D02*
X127960476Y-27494819D01*
X127960476Y-27494819D02*
X128579523Y-27494819D01*
X129436666Y-26494819D02*
X129246190Y-26494819D01*
X129246190Y-26494819D02*
X129150952Y-26542438D01*
X129150952Y-26542438D02*
X129103333Y-26590057D01*
X129103333Y-26590057D02*
X129008095Y-26732914D01*
X129008095Y-26732914D02*
X128960476Y-26923390D01*
X128960476Y-26923390D02*
X128960476Y-27304342D01*
X128960476Y-27304342D02*
X129008095Y-27399580D01*
X129008095Y-27399580D02*
X129055714Y-27447200D01*
X129055714Y-27447200D02*
X129150952Y-27494819D01*
X129150952Y-27494819D02*
X129341428Y-27494819D01*
X129341428Y-27494819D02*
X129436666Y-27447200D01*
X129436666Y-27447200D02*
X129484285Y-27399580D01*
X129484285Y-27399580D02*
X129531904Y-27304342D01*
X129531904Y-27304342D02*
X129531904Y-27066247D01*
X129531904Y-27066247D02*
X129484285Y-26971009D01*
X129484285Y-26971009D02*
X129436666Y-26923390D01*
X129436666Y-26923390D02*
X129341428Y-26875771D01*
X129341428Y-26875771D02*
X129150952Y-26875771D01*
X129150952Y-26875771D02*
X129055714Y-26923390D01*
X129055714Y-26923390D02*
X129008095Y-26971009D01*
X129008095Y-26971009D02*
X128960476Y-27066247D01*
X102383333Y-82604819D02*
X102050000Y-82128628D01*
X101811905Y-82604819D02*
X101811905Y-81604819D01*
X101811905Y-81604819D02*
X102192857Y-81604819D01*
X102192857Y-81604819D02*
X102288095Y-81652438D01*
X102288095Y-81652438D02*
X102335714Y-81700057D01*
X102335714Y-81700057D02*
X102383333Y-81795295D01*
X102383333Y-81795295D02*
X102383333Y-81938152D01*
X102383333Y-81938152D02*
X102335714Y-82033390D01*
X102335714Y-82033390D02*
X102288095Y-82081009D01*
X102288095Y-82081009D02*
X102192857Y-82128628D01*
X102192857Y-82128628D02*
X101811905Y-82128628D01*
X103240476Y-81604819D02*
X103050000Y-81604819D01*
X103050000Y-81604819D02*
X102954762Y-81652438D01*
X102954762Y-81652438D02*
X102907143Y-81700057D01*
X102907143Y-81700057D02*
X102811905Y-81842914D01*
X102811905Y-81842914D02*
X102764286Y-82033390D01*
X102764286Y-82033390D02*
X102764286Y-82414342D01*
X102764286Y-82414342D02*
X102811905Y-82509580D01*
X102811905Y-82509580D02*
X102859524Y-82557200D01*
X102859524Y-82557200D02*
X102954762Y-82604819D01*
X102954762Y-82604819D02*
X103145238Y-82604819D01*
X103145238Y-82604819D02*
X103240476Y-82557200D01*
X103240476Y-82557200D02*
X103288095Y-82509580D01*
X103288095Y-82509580D02*
X103335714Y-82414342D01*
X103335714Y-82414342D02*
X103335714Y-82176247D01*
X103335714Y-82176247D02*
X103288095Y-82081009D01*
X103288095Y-82081009D02*
X103240476Y-82033390D01*
X103240476Y-82033390D02*
X103145238Y-81985771D01*
X103145238Y-81985771D02*
X102954762Y-81985771D01*
X102954762Y-81985771D02*
X102859524Y-82033390D01*
X102859524Y-82033390D02*
X102811905Y-82081009D01*
X102811905Y-82081009D02*
X102764286Y-82176247D01*
X135407142Y-86374819D02*
X135073809Y-85898628D01*
X134835714Y-86374819D02*
X134835714Y-85374819D01*
X134835714Y-85374819D02*
X135216666Y-85374819D01*
X135216666Y-85374819D02*
X135311904Y-85422438D01*
X135311904Y-85422438D02*
X135359523Y-85470057D01*
X135359523Y-85470057D02*
X135407142Y-85565295D01*
X135407142Y-85565295D02*
X135407142Y-85708152D01*
X135407142Y-85708152D02*
X135359523Y-85803390D01*
X135359523Y-85803390D02*
X135311904Y-85851009D01*
X135311904Y-85851009D02*
X135216666Y-85898628D01*
X135216666Y-85898628D02*
X134835714Y-85898628D01*
X136359523Y-86374819D02*
X135788095Y-86374819D01*
X136073809Y-86374819D02*
X136073809Y-85374819D01*
X136073809Y-85374819D02*
X135978571Y-85517676D01*
X135978571Y-85517676D02*
X135883333Y-85612914D01*
X135883333Y-85612914D02*
X135788095Y-85660533D01*
X136835714Y-86374819D02*
X137026190Y-86374819D01*
X137026190Y-86374819D02*
X137121428Y-86327200D01*
X137121428Y-86327200D02*
X137169047Y-86279580D01*
X137169047Y-86279580D02*
X137264285Y-86136723D01*
X137264285Y-86136723D02*
X137311904Y-85946247D01*
X137311904Y-85946247D02*
X137311904Y-85565295D01*
X137311904Y-85565295D02*
X137264285Y-85470057D01*
X137264285Y-85470057D02*
X137216666Y-85422438D01*
X137216666Y-85422438D02*
X137121428Y-85374819D01*
X137121428Y-85374819D02*
X136930952Y-85374819D01*
X136930952Y-85374819D02*
X136835714Y-85422438D01*
X136835714Y-85422438D02*
X136788095Y-85470057D01*
X136788095Y-85470057D02*
X136740476Y-85565295D01*
X136740476Y-85565295D02*
X136740476Y-85803390D01*
X136740476Y-85803390D02*
X136788095Y-85898628D01*
X136788095Y-85898628D02*
X136835714Y-85946247D01*
X136835714Y-85946247D02*
X136930952Y-85993866D01*
X136930952Y-85993866D02*
X137121428Y-85993866D01*
X137121428Y-85993866D02*
X137216666Y-85946247D01*
X137216666Y-85946247D02*
X137264285Y-85898628D01*
X137264285Y-85898628D02*
X137311904Y-85803390D01*
X127055714Y-43494819D02*
X127055714Y-42494819D01*
X127055714Y-42494819D02*
X127293809Y-42494819D01*
X127293809Y-42494819D02*
X127436666Y-42542438D01*
X127436666Y-42542438D02*
X127531904Y-42637676D01*
X127531904Y-42637676D02*
X127579523Y-42732914D01*
X127579523Y-42732914D02*
X127627142Y-42923390D01*
X127627142Y-42923390D02*
X127627142Y-43066247D01*
X127627142Y-43066247D02*
X127579523Y-43256723D01*
X127579523Y-43256723D02*
X127531904Y-43351961D01*
X127531904Y-43351961D02*
X127436666Y-43447200D01*
X127436666Y-43447200D02*
X127293809Y-43494819D01*
X127293809Y-43494819D02*
X127055714Y-43494819D01*
X128008095Y-42590057D02*
X128055714Y-42542438D01*
X128055714Y-42542438D02*
X128150952Y-42494819D01*
X128150952Y-42494819D02*
X128389047Y-42494819D01*
X128389047Y-42494819D02*
X128484285Y-42542438D01*
X128484285Y-42542438D02*
X128531904Y-42590057D01*
X128531904Y-42590057D02*
X128579523Y-42685295D01*
X128579523Y-42685295D02*
X128579523Y-42780533D01*
X128579523Y-42780533D02*
X128531904Y-42923390D01*
X128531904Y-42923390D02*
X127960476Y-43494819D01*
X127960476Y-43494819D02*
X128579523Y-43494819D01*
X129436666Y-42828152D02*
X129436666Y-43494819D01*
X129198571Y-42447200D02*
X128960476Y-43161485D01*
X128960476Y-43161485D02*
X129579523Y-43161485D01*
X109275714Y-49134819D02*
X109275714Y-48134819D01*
X109275714Y-48134819D02*
X109513809Y-48134819D01*
X109513809Y-48134819D02*
X109656666Y-48182438D01*
X109656666Y-48182438D02*
X109751904Y-48277676D01*
X109751904Y-48277676D02*
X109799523Y-48372914D01*
X109799523Y-48372914D02*
X109847142Y-48563390D01*
X109847142Y-48563390D02*
X109847142Y-48706247D01*
X109847142Y-48706247D02*
X109799523Y-48896723D01*
X109799523Y-48896723D02*
X109751904Y-48991961D01*
X109751904Y-48991961D02*
X109656666Y-49087200D01*
X109656666Y-49087200D02*
X109513809Y-49134819D01*
X109513809Y-49134819D02*
X109275714Y-49134819D01*
X110799523Y-49134819D02*
X110228095Y-49134819D01*
X110513809Y-49134819D02*
X110513809Y-48134819D01*
X110513809Y-48134819D02*
X110418571Y-48277676D01*
X110418571Y-48277676D02*
X110323333Y-48372914D01*
X110323333Y-48372914D02*
X110228095Y-48420533D01*
X111751904Y-49134819D02*
X111180476Y-49134819D01*
X111466190Y-49134819D02*
X111466190Y-48134819D01*
X111466190Y-48134819D02*
X111370952Y-48277676D01*
X111370952Y-48277676D02*
X111275714Y-48372914D01*
X111275714Y-48372914D02*
X111180476Y-48420533D01*
X109751905Y-110094819D02*
X109751905Y-109094819D01*
X109751905Y-109094819D02*
X109990000Y-109094819D01*
X109990000Y-109094819D02*
X110132857Y-109142438D01*
X110132857Y-109142438D02*
X110228095Y-109237676D01*
X110228095Y-109237676D02*
X110275714Y-109332914D01*
X110275714Y-109332914D02*
X110323333Y-109523390D01*
X110323333Y-109523390D02*
X110323333Y-109666247D01*
X110323333Y-109666247D02*
X110275714Y-109856723D01*
X110275714Y-109856723D02*
X110228095Y-109951961D01*
X110228095Y-109951961D02*
X110132857Y-110047200D01*
X110132857Y-110047200D02*
X109990000Y-110094819D01*
X109990000Y-110094819D02*
X109751905Y-110094819D01*
X110656667Y-109094819D02*
X111275714Y-109094819D01*
X111275714Y-109094819D02*
X110942381Y-109475771D01*
X110942381Y-109475771D02*
X111085238Y-109475771D01*
X111085238Y-109475771D02*
X111180476Y-109523390D01*
X111180476Y-109523390D02*
X111228095Y-109571009D01*
X111228095Y-109571009D02*
X111275714Y-109666247D01*
X111275714Y-109666247D02*
X111275714Y-109904342D01*
X111275714Y-109904342D02*
X111228095Y-109999580D01*
X111228095Y-109999580D02*
X111180476Y-110047200D01*
X111180476Y-110047200D02*
X111085238Y-110094819D01*
X111085238Y-110094819D02*
X110799524Y-110094819D01*
X110799524Y-110094819D02*
X110704286Y-110047200D01*
X110704286Y-110047200D02*
X110656667Y-109999580D01*
X65519819Y-58118333D02*
X66234104Y-58118333D01*
X66234104Y-58118333D02*
X66376961Y-58165952D01*
X66376961Y-58165952D02*
X66472200Y-58261190D01*
X66472200Y-58261190D02*
X66519819Y-58404047D01*
X66519819Y-58404047D02*
X66519819Y-58499285D01*
X65615057Y-57689761D02*
X65567438Y-57642142D01*
X65567438Y-57642142D02*
X65519819Y-57546904D01*
X65519819Y-57546904D02*
X65519819Y-57308809D01*
X65519819Y-57308809D02*
X65567438Y-57213571D01*
X65567438Y-57213571D02*
X65615057Y-57165952D01*
X65615057Y-57165952D02*
X65710295Y-57118333D01*
X65710295Y-57118333D02*
X65805533Y-57118333D01*
X65805533Y-57118333D02*
X65948390Y-57165952D01*
X65948390Y-57165952D02*
X66519819Y-57737380D01*
X66519819Y-57737380D02*
X66519819Y-57118333D01*
X109275714Y-41514819D02*
X109275714Y-40514819D01*
X109275714Y-40514819D02*
X109513809Y-40514819D01*
X109513809Y-40514819D02*
X109656666Y-40562438D01*
X109656666Y-40562438D02*
X109751904Y-40657676D01*
X109751904Y-40657676D02*
X109799523Y-40752914D01*
X109799523Y-40752914D02*
X109847142Y-40943390D01*
X109847142Y-40943390D02*
X109847142Y-41086247D01*
X109847142Y-41086247D02*
X109799523Y-41276723D01*
X109799523Y-41276723D02*
X109751904Y-41371961D01*
X109751904Y-41371961D02*
X109656666Y-41467200D01*
X109656666Y-41467200D02*
X109513809Y-41514819D01*
X109513809Y-41514819D02*
X109275714Y-41514819D01*
X110799523Y-41514819D02*
X110228095Y-41514819D01*
X110513809Y-41514819D02*
X110513809Y-40514819D01*
X110513809Y-40514819D02*
X110418571Y-40657676D01*
X110418571Y-40657676D02*
X110323333Y-40752914D01*
X110323333Y-40752914D02*
X110228095Y-40800533D01*
X111180476Y-40610057D02*
X111228095Y-40562438D01*
X111228095Y-40562438D02*
X111323333Y-40514819D01*
X111323333Y-40514819D02*
X111561428Y-40514819D01*
X111561428Y-40514819D02*
X111656666Y-40562438D01*
X111656666Y-40562438D02*
X111704285Y-40610057D01*
X111704285Y-40610057D02*
X111751904Y-40705295D01*
X111751904Y-40705295D02*
X111751904Y-40800533D01*
X111751904Y-40800533D02*
X111704285Y-40943390D01*
X111704285Y-40943390D02*
X111132857Y-41514819D01*
X111132857Y-41514819D02*
X111751904Y-41514819D01*
X102383333Y-120454819D02*
X102050000Y-119978628D01*
X101811905Y-120454819D02*
X101811905Y-119454819D01*
X101811905Y-119454819D02*
X102192857Y-119454819D01*
X102192857Y-119454819D02*
X102288095Y-119502438D01*
X102288095Y-119502438D02*
X102335714Y-119550057D01*
X102335714Y-119550057D02*
X102383333Y-119645295D01*
X102383333Y-119645295D02*
X102383333Y-119788152D01*
X102383333Y-119788152D02*
X102335714Y-119883390D01*
X102335714Y-119883390D02*
X102288095Y-119931009D01*
X102288095Y-119931009D02*
X102192857Y-119978628D01*
X102192857Y-119978628D02*
X101811905Y-119978628D01*
X103335714Y-120454819D02*
X102764286Y-120454819D01*
X103050000Y-120454819D02*
X103050000Y-119454819D01*
X103050000Y-119454819D02*
X102954762Y-119597676D01*
X102954762Y-119597676D02*
X102859524Y-119692914D01*
X102859524Y-119692914D02*
X102764286Y-119740533D01*
X109751905Y-71994819D02*
X109751905Y-70994819D01*
X109751905Y-70994819D02*
X109990000Y-70994819D01*
X109990000Y-70994819D02*
X110132857Y-71042438D01*
X110132857Y-71042438D02*
X110228095Y-71137676D01*
X110228095Y-71137676D02*
X110275714Y-71232914D01*
X110275714Y-71232914D02*
X110323333Y-71423390D01*
X110323333Y-71423390D02*
X110323333Y-71566247D01*
X110323333Y-71566247D02*
X110275714Y-71756723D01*
X110275714Y-71756723D02*
X110228095Y-71851961D01*
X110228095Y-71851961D02*
X110132857Y-71947200D01*
X110132857Y-71947200D02*
X109990000Y-71994819D01*
X109990000Y-71994819D02*
X109751905Y-71994819D01*
X110894762Y-71423390D02*
X110799524Y-71375771D01*
X110799524Y-71375771D02*
X110751905Y-71328152D01*
X110751905Y-71328152D02*
X110704286Y-71232914D01*
X110704286Y-71232914D02*
X110704286Y-71185295D01*
X110704286Y-71185295D02*
X110751905Y-71090057D01*
X110751905Y-71090057D02*
X110799524Y-71042438D01*
X110799524Y-71042438D02*
X110894762Y-70994819D01*
X110894762Y-70994819D02*
X111085238Y-70994819D01*
X111085238Y-70994819D02*
X111180476Y-71042438D01*
X111180476Y-71042438D02*
X111228095Y-71090057D01*
X111228095Y-71090057D02*
X111275714Y-71185295D01*
X111275714Y-71185295D02*
X111275714Y-71232914D01*
X111275714Y-71232914D02*
X111228095Y-71328152D01*
X111228095Y-71328152D02*
X111180476Y-71375771D01*
X111180476Y-71375771D02*
X111085238Y-71423390D01*
X111085238Y-71423390D02*
X110894762Y-71423390D01*
X110894762Y-71423390D02*
X110799524Y-71471009D01*
X110799524Y-71471009D02*
X110751905Y-71518628D01*
X110751905Y-71518628D02*
X110704286Y-71613866D01*
X110704286Y-71613866D02*
X110704286Y-71804342D01*
X110704286Y-71804342D02*
X110751905Y-71899580D01*
X110751905Y-71899580D02*
X110799524Y-71947200D01*
X110799524Y-71947200D02*
X110894762Y-71994819D01*
X110894762Y-71994819D02*
X111085238Y-71994819D01*
X111085238Y-71994819D02*
X111180476Y-71947200D01*
X111180476Y-71947200D02*
X111228095Y-71899580D01*
X111228095Y-71899580D02*
X111275714Y-71804342D01*
X111275714Y-71804342D02*
X111275714Y-71613866D01*
X111275714Y-71613866D02*
X111228095Y-71518628D01*
X111228095Y-71518628D02*
X111180476Y-71471009D01*
X111180476Y-71471009D02*
X111085238Y-71423390D01*
X109751905Y-102474819D02*
X109751905Y-101474819D01*
X109751905Y-101474819D02*
X109990000Y-101474819D01*
X109990000Y-101474819D02*
X110132857Y-101522438D01*
X110132857Y-101522438D02*
X110228095Y-101617676D01*
X110228095Y-101617676D02*
X110275714Y-101712914D01*
X110275714Y-101712914D02*
X110323333Y-101903390D01*
X110323333Y-101903390D02*
X110323333Y-102046247D01*
X110323333Y-102046247D02*
X110275714Y-102236723D01*
X110275714Y-102236723D02*
X110228095Y-102331961D01*
X110228095Y-102331961D02*
X110132857Y-102427200D01*
X110132857Y-102427200D02*
X109990000Y-102474819D01*
X109990000Y-102474819D02*
X109751905Y-102474819D01*
X111180476Y-101808152D02*
X111180476Y-102474819D01*
X110942381Y-101427200D02*
X110704286Y-102141485D01*
X110704286Y-102141485D02*
X111323333Y-102141485D01*
X135407142Y-93374819D02*
X135073809Y-92898628D01*
X134835714Y-93374819D02*
X134835714Y-92374819D01*
X134835714Y-92374819D02*
X135216666Y-92374819D01*
X135216666Y-92374819D02*
X135311904Y-92422438D01*
X135311904Y-92422438D02*
X135359523Y-92470057D01*
X135359523Y-92470057D02*
X135407142Y-92565295D01*
X135407142Y-92565295D02*
X135407142Y-92708152D01*
X135407142Y-92708152D02*
X135359523Y-92803390D01*
X135359523Y-92803390D02*
X135311904Y-92851009D01*
X135311904Y-92851009D02*
X135216666Y-92898628D01*
X135216666Y-92898628D02*
X134835714Y-92898628D01*
X136359523Y-93374819D02*
X135788095Y-93374819D01*
X136073809Y-93374819D02*
X136073809Y-92374819D01*
X136073809Y-92374819D02*
X135978571Y-92517676D01*
X135978571Y-92517676D02*
X135883333Y-92612914D01*
X135883333Y-92612914D02*
X135788095Y-92660533D01*
X136930952Y-92803390D02*
X136835714Y-92755771D01*
X136835714Y-92755771D02*
X136788095Y-92708152D01*
X136788095Y-92708152D02*
X136740476Y-92612914D01*
X136740476Y-92612914D02*
X136740476Y-92565295D01*
X136740476Y-92565295D02*
X136788095Y-92470057D01*
X136788095Y-92470057D02*
X136835714Y-92422438D01*
X136835714Y-92422438D02*
X136930952Y-92374819D01*
X136930952Y-92374819D02*
X137121428Y-92374819D01*
X137121428Y-92374819D02*
X137216666Y-92422438D01*
X137216666Y-92422438D02*
X137264285Y-92470057D01*
X137264285Y-92470057D02*
X137311904Y-92565295D01*
X137311904Y-92565295D02*
X137311904Y-92612914D01*
X137311904Y-92612914D02*
X137264285Y-92708152D01*
X137264285Y-92708152D02*
X137216666Y-92755771D01*
X137216666Y-92755771D02*
X137121428Y-92803390D01*
X137121428Y-92803390D02*
X136930952Y-92803390D01*
X136930952Y-92803390D02*
X136835714Y-92851009D01*
X136835714Y-92851009D02*
X136788095Y-92898628D01*
X136788095Y-92898628D02*
X136740476Y-92993866D01*
X136740476Y-92993866D02*
X136740476Y-93184342D01*
X136740476Y-93184342D02*
X136788095Y-93279580D01*
X136788095Y-93279580D02*
X136835714Y-93327200D01*
X136835714Y-93327200D02*
X136930952Y-93374819D01*
X136930952Y-93374819D02*
X137121428Y-93374819D01*
X137121428Y-93374819D02*
X137216666Y-93327200D01*
X137216666Y-93327200D02*
X137264285Y-93279580D01*
X137264285Y-93279580D02*
X137311904Y-93184342D01*
X137311904Y-93184342D02*
X137311904Y-92993866D01*
X137311904Y-92993866D02*
X137264285Y-92898628D01*
X137264285Y-92898628D02*
X137216666Y-92851009D01*
X137216666Y-92851009D02*
X137121428Y-92803390D01*
X102547142Y-51874819D02*
X102213809Y-51398628D01*
X101975714Y-51874819D02*
X101975714Y-50874819D01*
X101975714Y-50874819D02*
X102356666Y-50874819D01*
X102356666Y-50874819D02*
X102451904Y-50922438D01*
X102451904Y-50922438D02*
X102499523Y-50970057D01*
X102499523Y-50970057D02*
X102547142Y-51065295D01*
X102547142Y-51065295D02*
X102547142Y-51208152D01*
X102547142Y-51208152D02*
X102499523Y-51303390D01*
X102499523Y-51303390D02*
X102451904Y-51351009D01*
X102451904Y-51351009D02*
X102356666Y-51398628D01*
X102356666Y-51398628D02*
X101975714Y-51398628D01*
X103499523Y-51874819D02*
X102928095Y-51874819D01*
X103213809Y-51874819D02*
X103213809Y-50874819D01*
X103213809Y-50874819D02*
X103118571Y-51017676D01*
X103118571Y-51017676D02*
X103023333Y-51112914D01*
X103023333Y-51112914D02*
X102928095Y-51160533D01*
X104118571Y-50874819D02*
X104213809Y-50874819D01*
X104213809Y-50874819D02*
X104309047Y-50922438D01*
X104309047Y-50922438D02*
X104356666Y-50970057D01*
X104356666Y-50970057D02*
X104404285Y-51065295D01*
X104404285Y-51065295D02*
X104451904Y-51255771D01*
X104451904Y-51255771D02*
X104451904Y-51493866D01*
X104451904Y-51493866D02*
X104404285Y-51684342D01*
X104404285Y-51684342D02*
X104356666Y-51779580D01*
X104356666Y-51779580D02*
X104309047Y-51827200D01*
X104309047Y-51827200D02*
X104213809Y-51874819D01*
X104213809Y-51874819D02*
X104118571Y-51874819D01*
X104118571Y-51874819D02*
X104023333Y-51827200D01*
X104023333Y-51827200D02*
X103975714Y-51779580D01*
X103975714Y-51779580D02*
X103928095Y-51684342D01*
X103928095Y-51684342D02*
X103880476Y-51493866D01*
X103880476Y-51493866D02*
X103880476Y-51255771D01*
X103880476Y-51255771D02*
X103928095Y-51065295D01*
X103928095Y-51065295D02*
X103975714Y-50970057D01*
X103975714Y-50970057D02*
X104023333Y-50922438D01*
X104023333Y-50922438D02*
X104118571Y-50874819D01*
X109751905Y-125334819D02*
X109751905Y-124334819D01*
X109751905Y-124334819D02*
X109990000Y-124334819D01*
X109990000Y-124334819D02*
X110132857Y-124382438D01*
X110132857Y-124382438D02*
X110228095Y-124477676D01*
X110228095Y-124477676D02*
X110275714Y-124572914D01*
X110275714Y-124572914D02*
X110323333Y-124763390D01*
X110323333Y-124763390D02*
X110323333Y-124906247D01*
X110323333Y-124906247D02*
X110275714Y-125096723D01*
X110275714Y-125096723D02*
X110228095Y-125191961D01*
X110228095Y-125191961D02*
X110132857Y-125287200D01*
X110132857Y-125287200D02*
X109990000Y-125334819D01*
X109990000Y-125334819D02*
X109751905Y-125334819D01*
X111275714Y-125334819D02*
X110704286Y-125334819D01*
X110990000Y-125334819D02*
X110990000Y-124334819D01*
X110990000Y-124334819D02*
X110894762Y-124477676D01*
X110894762Y-124477676D02*
X110799524Y-124572914D01*
X110799524Y-124572914D02*
X110704286Y-124620533D01*
X109751905Y-87234819D02*
X109751905Y-86234819D01*
X109751905Y-86234819D02*
X109990000Y-86234819D01*
X109990000Y-86234819D02*
X110132857Y-86282438D01*
X110132857Y-86282438D02*
X110228095Y-86377676D01*
X110228095Y-86377676D02*
X110275714Y-86472914D01*
X110275714Y-86472914D02*
X110323333Y-86663390D01*
X110323333Y-86663390D02*
X110323333Y-86806247D01*
X110323333Y-86806247D02*
X110275714Y-86996723D01*
X110275714Y-86996723D02*
X110228095Y-87091961D01*
X110228095Y-87091961D02*
X110132857Y-87187200D01*
X110132857Y-87187200D02*
X109990000Y-87234819D01*
X109990000Y-87234819D02*
X109751905Y-87234819D01*
X111180476Y-86234819D02*
X110990000Y-86234819D01*
X110990000Y-86234819D02*
X110894762Y-86282438D01*
X110894762Y-86282438D02*
X110847143Y-86330057D01*
X110847143Y-86330057D02*
X110751905Y-86472914D01*
X110751905Y-86472914D02*
X110704286Y-86663390D01*
X110704286Y-86663390D02*
X110704286Y-87044342D01*
X110704286Y-87044342D02*
X110751905Y-87139580D01*
X110751905Y-87139580D02*
X110799524Y-87187200D01*
X110799524Y-87187200D02*
X110894762Y-87234819D01*
X110894762Y-87234819D02*
X111085238Y-87234819D01*
X111085238Y-87234819D02*
X111180476Y-87187200D01*
X111180476Y-87187200D02*
X111228095Y-87139580D01*
X111228095Y-87139580D02*
X111275714Y-87044342D01*
X111275714Y-87044342D02*
X111275714Y-86806247D01*
X111275714Y-86806247D02*
X111228095Y-86711009D01*
X111228095Y-86711009D02*
X111180476Y-86663390D01*
X111180476Y-86663390D02*
X111085238Y-86615771D01*
X111085238Y-86615771D02*
X110894762Y-86615771D01*
X110894762Y-86615771D02*
X110799524Y-86663390D01*
X110799524Y-86663390D02*
X110751905Y-86711009D01*
X110751905Y-86711009D02*
X110704286Y-86806247D01*
X109751905Y-94854819D02*
X109751905Y-93854819D01*
X109751905Y-93854819D02*
X109990000Y-93854819D01*
X109990000Y-93854819D02*
X110132857Y-93902438D01*
X110132857Y-93902438D02*
X110228095Y-93997676D01*
X110228095Y-93997676D02*
X110275714Y-94092914D01*
X110275714Y-94092914D02*
X110323333Y-94283390D01*
X110323333Y-94283390D02*
X110323333Y-94426247D01*
X110323333Y-94426247D02*
X110275714Y-94616723D01*
X110275714Y-94616723D02*
X110228095Y-94711961D01*
X110228095Y-94711961D02*
X110132857Y-94807200D01*
X110132857Y-94807200D02*
X109990000Y-94854819D01*
X109990000Y-94854819D02*
X109751905Y-94854819D01*
X111228095Y-93854819D02*
X110751905Y-93854819D01*
X110751905Y-93854819D02*
X110704286Y-94331009D01*
X110704286Y-94331009D02*
X110751905Y-94283390D01*
X110751905Y-94283390D02*
X110847143Y-94235771D01*
X110847143Y-94235771D02*
X111085238Y-94235771D01*
X111085238Y-94235771D02*
X111180476Y-94283390D01*
X111180476Y-94283390D02*
X111228095Y-94331009D01*
X111228095Y-94331009D02*
X111275714Y-94426247D01*
X111275714Y-94426247D02*
X111275714Y-94664342D01*
X111275714Y-94664342D02*
X111228095Y-94759580D01*
X111228095Y-94759580D02*
X111180476Y-94807200D01*
X111180476Y-94807200D02*
X111085238Y-94854819D01*
X111085238Y-94854819D02*
X110847143Y-94854819D01*
X110847143Y-94854819D02*
X110751905Y-94807200D01*
X110751905Y-94807200D02*
X110704286Y-94759580D01*
X109275714Y-56754819D02*
X109275714Y-55754819D01*
X109275714Y-55754819D02*
X109513809Y-55754819D01*
X109513809Y-55754819D02*
X109656666Y-55802438D01*
X109656666Y-55802438D02*
X109751904Y-55897676D01*
X109751904Y-55897676D02*
X109799523Y-55992914D01*
X109799523Y-55992914D02*
X109847142Y-56183390D01*
X109847142Y-56183390D02*
X109847142Y-56326247D01*
X109847142Y-56326247D02*
X109799523Y-56516723D01*
X109799523Y-56516723D02*
X109751904Y-56611961D01*
X109751904Y-56611961D02*
X109656666Y-56707200D01*
X109656666Y-56707200D02*
X109513809Y-56754819D01*
X109513809Y-56754819D02*
X109275714Y-56754819D01*
X110799523Y-56754819D02*
X110228095Y-56754819D01*
X110513809Y-56754819D02*
X110513809Y-55754819D01*
X110513809Y-55754819D02*
X110418571Y-55897676D01*
X110418571Y-55897676D02*
X110323333Y-55992914D01*
X110323333Y-55992914D02*
X110228095Y-56040533D01*
X111418571Y-55754819D02*
X111513809Y-55754819D01*
X111513809Y-55754819D02*
X111609047Y-55802438D01*
X111609047Y-55802438D02*
X111656666Y-55850057D01*
X111656666Y-55850057D02*
X111704285Y-55945295D01*
X111704285Y-55945295D02*
X111751904Y-56135771D01*
X111751904Y-56135771D02*
X111751904Y-56373866D01*
X111751904Y-56373866D02*
X111704285Y-56564342D01*
X111704285Y-56564342D02*
X111656666Y-56659580D01*
X111656666Y-56659580D02*
X111609047Y-56707200D01*
X111609047Y-56707200D02*
X111513809Y-56754819D01*
X111513809Y-56754819D02*
X111418571Y-56754819D01*
X111418571Y-56754819D02*
X111323333Y-56707200D01*
X111323333Y-56707200D02*
X111275714Y-56659580D01*
X111275714Y-56659580D02*
X111228095Y-56564342D01*
X111228095Y-56564342D02*
X111180476Y-56373866D01*
X111180476Y-56373866D02*
X111180476Y-56135771D01*
X111180476Y-56135771D02*
X111228095Y-55945295D01*
X111228095Y-55945295D02*
X111275714Y-55850057D01*
X111275714Y-55850057D02*
X111323333Y-55802438D01*
X111323333Y-55802438D02*
X111418571Y-55754819D01*
X127055714Y-88494819D02*
X127055714Y-87494819D01*
X127055714Y-87494819D02*
X127293809Y-87494819D01*
X127293809Y-87494819D02*
X127436666Y-87542438D01*
X127436666Y-87542438D02*
X127531904Y-87637676D01*
X127531904Y-87637676D02*
X127579523Y-87732914D01*
X127579523Y-87732914D02*
X127627142Y-87923390D01*
X127627142Y-87923390D02*
X127627142Y-88066247D01*
X127627142Y-88066247D02*
X127579523Y-88256723D01*
X127579523Y-88256723D02*
X127531904Y-88351961D01*
X127531904Y-88351961D02*
X127436666Y-88447200D01*
X127436666Y-88447200D02*
X127293809Y-88494819D01*
X127293809Y-88494819D02*
X127055714Y-88494819D01*
X128579523Y-88494819D02*
X128008095Y-88494819D01*
X128293809Y-88494819D02*
X128293809Y-87494819D01*
X128293809Y-87494819D02*
X128198571Y-87637676D01*
X128198571Y-87637676D02*
X128103333Y-87732914D01*
X128103333Y-87732914D02*
X128008095Y-87780533D01*
X129150952Y-87923390D02*
X129055714Y-87875771D01*
X129055714Y-87875771D02*
X129008095Y-87828152D01*
X129008095Y-87828152D02*
X128960476Y-87732914D01*
X128960476Y-87732914D02*
X128960476Y-87685295D01*
X128960476Y-87685295D02*
X129008095Y-87590057D01*
X129008095Y-87590057D02*
X129055714Y-87542438D01*
X129055714Y-87542438D02*
X129150952Y-87494819D01*
X129150952Y-87494819D02*
X129341428Y-87494819D01*
X129341428Y-87494819D02*
X129436666Y-87542438D01*
X129436666Y-87542438D02*
X129484285Y-87590057D01*
X129484285Y-87590057D02*
X129531904Y-87685295D01*
X129531904Y-87685295D02*
X129531904Y-87732914D01*
X129531904Y-87732914D02*
X129484285Y-87828152D01*
X129484285Y-87828152D02*
X129436666Y-87875771D01*
X129436666Y-87875771D02*
X129341428Y-87923390D01*
X129341428Y-87923390D02*
X129150952Y-87923390D01*
X129150952Y-87923390D02*
X129055714Y-87971009D01*
X129055714Y-87971009D02*
X129008095Y-88018628D01*
X129008095Y-88018628D02*
X128960476Y-88113866D01*
X128960476Y-88113866D02*
X128960476Y-88304342D01*
X128960476Y-88304342D02*
X129008095Y-88399580D01*
X129008095Y-88399580D02*
X129055714Y-88447200D01*
X129055714Y-88447200D02*
X129150952Y-88494819D01*
X129150952Y-88494819D02*
X129341428Y-88494819D01*
X129341428Y-88494819D02*
X129436666Y-88447200D01*
X129436666Y-88447200D02*
X129484285Y-88399580D01*
X129484285Y-88399580D02*
X129531904Y-88304342D01*
X129531904Y-88304342D02*
X129531904Y-88113866D01*
X129531904Y-88113866D02*
X129484285Y-88018628D01*
X129484285Y-88018628D02*
X129436666Y-87971009D01*
X129436666Y-87971009D02*
X129341428Y-87923390D01*
X127055714Y-96494819D02*
X127055714Y-95494819D01*
X127055714Y-95494819D02*
X127293809Y-95494819D01*
X127293809Y-95494819D02*
X127436666Y-95542438D01*
X127436666Y-95542438D02*
X127531904Y-95637676D01*
X127531904Y-95637676D02*
X127579523Y-95732914D01*
X127579523Y-95732914D02*
X127627142Y-95923390D01*
X127627142Y-95923390D02*
X127627142Y-96066247D01*
X127627142Y-96066247D02*
X127579523Y-96256723D01*
X127579523Y-96256723D02*
X127531904Y-96351961D01*
X127531904Y-96351961D02*
X127436666Y-96447200D01*
X127436666Y-96447200D02*
X127293809Y-96494819D01*
X127293809Y-96494819D02*
X127055714Y-96494819D01*
X128579523Y-96494819D02*
X128008095Y-96494819D01*
X128293809Y-96494819D02*
X128293809Y-95494819D01*
X128293809Y-95494819D02*
X128198571Y-95637676D01*
X128198571Y-95637676D02*
X128103333Y-95732914D01*
X128103333Y-95732914D02*
X128008095Y-95780533D01*
X128912857Y-95494819D02*
X129579523Y-95494819D01*
X129579523Y-95494819D02*
X129150952Y-96494819D01*
X135407142Y-40374819D02*
X135073809Y-39898628D01*
X134835714Y-40374819D02*
X134835714Y-39374819D01*
X134835714Y-39374819D02*
X135216666Y-39374819D01*
X135216666Y-39374819D02*
X135311904Y-39422438D01*
X135311904Y-39422438D02*
X135359523Y-39470057D01*
X135359523Y-39470057D02*
X135407142Y-39565295D01*
X135407142Y-39565295D02*
X135407142Y-39708152D01*
X135407142Y-39708152D02*
X135359523Y-39803390D01*
X135359523Y-39803390D02*
X135311904Y-39851009D01*
X135311904Y-39851009D02*
X135216666Y-39898628D01*
X135216666Y-39898628D02*
X134835714Y-39898628D01*
X135788095Y-39470057D02*
X135835714Y-39422438D01*
X135835714Y-39422438D02*
X135930952Y-39374819D01*
X135930952Y-39374819D02*
X136169047Y-39374819D01*
X136169047Y-39374819D02*
X136264285Y-39422438D01*
X136264285Y-39422438D02*
X136311904Y-39470057D01*
X136311904Y-39470057D02*
X136359523Y-39565295D01*
X136359523Y-39565295D02*
X136359523Y-39660533D01*
X136359523Y-39660533D02*
X136311904Y-39803390D01*
X136311904Y-39803390D02*
X135740476Y-40374819D01*
X135740476Y-40374819D02*
X136359523Y-40374819D01*
X137264285Y-39374819D02*
X136788095Y-39374819D01*
X136788095Y-39374819D02*
X136740476Y-39851009D01*
X136740476Y-39851009D02*
X136788095Y-39803390D01*
X136788095Y-39803390D02*
X136883333Y-39755771D01*
X136883333Y-39755771D02*
X137121428Y-39755771D01*
X137121428Y-39755771D02*
X137216666Y-39803390D01*
X137216666Y-39803390D02*
X137264285Y-39851009D01*
X137264285Y-39851009D02*
X137311904Y-39946247D01*
X137311904Y-39946247D02*
X137311904Y-40184342D01*
X137311904Y-40184342D02*
X137264285Y-40279580D01*
X137264285Y-40279580D02*
X137216666Y-40327200D01*
X137216666Y-40327200D02*
X137121428Y-40374819D01*
X137121428Y-40374819D02*
X136883333Y-40374819D01*
X136883333Y-40374819D02*
X136788095Y-40327200D01*
X136788095Y-40327200D02*
X136740476Y-40279580D01*
X135407142Y-55374819D02*
X135073809Y-54898628D01*
X134835714Y-55374819D02*
X134835714Y-54374819D01*
X134835714Y-54374819D02*
X135216666Y-54374819D01*
X135216666Y-54374819D02*
X135311904Y-54422438D01*
X135311904Y-54422438D02*
X135359523Y-54470057D01*
X135359523Y-54470057D02*
X135407142Y-54565295D01*
X135407142Y-54565295D02*
X135407142Y-54708152D01*
X135407142Y-54708152D02*
X135359523Y-54803390D01*
X135359523Y-54803390D02*
X135311904Y-54851009D01*
X135311904Y-54851009D02*
X135216666Y-54898628D01*
X135216666Y-54898628D02*
X134835714Y-54898628D01*
X135788095Y-54470057D02*
X135835714Y-54422438D01*
X135835714Y-54422438D02*
X135930952Y-54374819D01*
X135930952Y-54374819D02*
X136169047Y-54374819D01*
X136169047Y-54374819D02*
X136264285Y-54422438D01*
X136264285Y-54422438D02*
X136311904Y-54470057D01*
X136311904Y-54470057D02*
X136359523Y-54565295D01*
X136359523Y-54565295D02*
X136359523Y-54660533D01*
X136359523Y-54660533D02*
X136311904Y-54803390D01*
X136311904Y-54803390D02*
X135740476Y-55374819D01*
X135740476Y-55374819D02*
X136359523Y-55374819D01*
X136692857Y-54374819D02*
X137311904Y-54374819D01*
X137311904Y-54374819D02*
X136978571Y-54755771D01*
X136978571Y-54755771D02*
X137121428Y-54755771D01*
X137121428Y-54755771D02*
X137216666Y-54803390D01*
X137216666Y-54803390D02*
X137264285Y-54851009D01*
X137264285Y-54851009D02*
X137311904Y-54946247D01*
X137311904Y-54946247D02*
X137311904Y-55184342D01*
X137311904Y-55184342D02*
X137264285Y-55279580D01*
X137264285Y-55279580D02*
X137216666Y-55327200D01*
X137216666Y-55327200D02*
X137121428Y-55374819D01*
X137121428Y-55374819D02*
X136835714Y-55374819D01*
X136835714Y-55374819D02*
X136740476Y-55327200D01*
X136740476Y-55327200D02*
X136692857Y-55279580D01*
X102383333Y-105214819D02*
X102050000Y-104738628D01*
X101811905Y-105214819D02*
X101811905Y-104214819D01*
X101811905Y-104214819D02*
X102192857Y-104214819D01*
X102192857Y-104214819D02*
X102288095Y-104262438D01*
X102288095Y-104262438D02*
X102335714Y-104310057D01*
X102335714Y-104310057D02*
X102383333Y-104405295D01*
X102383333Y-104405295D02*
X102383333Y-104548152D01*
X102383333Y-104548152D02*
X102335714Y-104643390D01*
X102335714Y-104643390D02*
X102288095Y-104691009D01*
X102288095Y-104691009D02*
X102192857Y-104738628D01*
X102192857Y-104738628D02*
X101811905Y-104738628D01*
X102716667Y-104214819D02*
X103335714Y-104214819D01*
X103335714Y-104214819D02*
X103002381Y-104595771D01*
X103002381Y-104595771D02*
X103145238Y-104595771D01*
X103145238Y-104595771D02*
X103240476Y-104643390D01*
X103240476Y-104643390D02*
X103288095Y-104691009D01*
X103288095Y-104691009D02*
X103335714Y-104786247D01*
X103335714Y-104786247D02*
X103335714Y-105024342D01*
X103335714Y-105024342D02*
X103288095Y-105119580D01*
X103288095Y-105119580D02*
X103240476Y-105167200D01*
X103240476Y-105167200D02*
X103145238Y-105214819D01*
X103145238Y-105214819D02*
X102859524Y-105214819D01*
X102859524Y-105214819D02*
X102764286Y-105167200D01*
X102764286Y-105167200D02*
X102716667Y-105119580D01*
X127055714Y-58454819D02*
X127055714Y-57454819D01*
X127055714Y-57454819D02*
X127293809Y-57454819D01*
X127293809Y-57454819D02*
X127436666Y-57502438D01*
X127436666Y-57502438D02*
X127531904Y-57597676D01*
X127531904Y-57597676D02*
X127579523Y-57692914D01*
X127579523Y-57692914D02*
X127627142Y-57883390D01*
X127627142Y-57883390D02*
X127627142Y-58026247D01*
X127627142Y-58026247D02*
X127579523Y-58216723D01*
X127579523Y-58216723D02*
X127531904Y-58311961D01*
X127531904Y-58311961D02*
X127436666Y-58407200D01*
X127436666Y-58407200D02*
X127293809Y-58454819D01*
X127293809Y-58454819D02*
X127055714Y-58454819D01*
X128008095Y-57550057D02*
X128055714Y-57502438D01*
X128055714Y-57502438D02*
X128150952Y-57454819D01*
X128150952Y-57454819D02*
X128389047Y-57454819D01*
X128389047Y-57454819D02*
X128484285Y-57502438D01*
X128484285Y-57502438D02*
X128531904Y-57550057D01*
X128531904Y-57550057D02*
X128579523Y-57645295D01*
X128579523Y-57645295D02*
X128579523Y-57740533D01*
X128579523Y-57740533D02*
X128531904Y-57883390D01*
X128531904Y-57883390D02*
X127960476Y-58454819D01*
X127960476Y-58454819D02*
X128579523Y-58454819D01*
X128960476Y-57550057D02*
X129008095Y-57502438D01*
X129008095Y-57502438D02*
X129103333Y-57454819D01*
X129103333Y-57454819D02*
X129341428Y-57454819D01*
X129341428Y-57454819D02*
X129436666Y-57502438D01*
X129436666Y-57502438D02*
X129484285Y-57550057D01*
X129484285Y-57550057D02*
X129531904Y-57645295D01*
X129531904Y-57645295D02*
X129531904Y-57740533D01*
X129531904Y-57740533D02*
X129484285Y-57883390D01*
X129484285Y-57883390D02*
X128912857Y-58454819D01*
X128912857Y-58454819D02*
X129531904Y-58454819D01*
X102547142Y-29014819D02*
X102213809Y-28538628D01*
X101975714Y-29014819D02*
X101975714Y-28014819D01*
X101975714Y-28014819D02*
X102356666Y-28014819D01*
X102356666Y-28014819D02*
X102451904Y-28062438D01*
X102451904Y-28062438D02*
X102499523Y-28110057D01*
X102499523Y-28110057D02*
X102547142Y-28205295D01*
X102547142Y-28205295D02*
X102547142Y-28348152D01*
X102547142Y-28348152D02*
X102499523Y-28443390D01*
X102499523Y-28443390D02*
X102451904Y-28491009D01*
X102451904Y-28491009D02*
X102356666Y-28538628D01*
X102356666Y-28538628D02*
X101975714Y-28538628D01*
X103499523Y-29014819D02*
X102928095Y-29014819D01*
X103213809Y-29014819D02*
X103213809Y-28014819D01*
X103213809Y-28014819D02*
X103118571Y-28157676D01*
X103118571Y-28157676D02*
X103023333Y-28252914D01*
X103023333Y-28252914D02*
X102928095Y-28300533D01*
X103832857Y-28014819D02*
X104451904Y-28014819D01*
X104451904Y-28014819D02*
X104118571Y-28395771D01*
X104118571Y-28395771D02*
X104261428Y-28395771D01*
X104261428Y-28395771D02*
X104356666Y-28443390D01*
X104356666Y-28443390D02*
X104404285Y-28491009D01*
X104404285Y-28491009D02*
X104451904Y-28586247D01*
X104451904Y-28586247D02*
X104451904Y-28824342D01*
X104451904Y-28824342D02*
X104404285Y-28919580D01*
X104404285Y-28919580D02*
X104356666Y-28967200D01*
X104356666Y-28967200D02*
X104261428Y-29014819D01*
X104261428Y-29014819D02*
X103975714Y-29014819D01*
X103975714Y-29014819D02*
X103880476Y-28967200D01*
X103880476Y-28967200D02*
X103832857Y-28919580D01*
X102383333Y-97594819D02*
X102050000Y-97118628D01*
X101811905Y-97594819D02*
X101811905Y-96594819D01*
X101811905Y-96594819D02*
X102192857Y-96594819D01*
X102192857Y-96594819D02*
X102288095Y-96642438D01*
X102288095Y-96642438D02*
X102335714Y-96690057D01*
X102335714Y-96690057D02*
X102383333Y-96785295D01*
X102383333Y-96785295D02*
X102383333Y-96928152D01*
X102383333Y-96928152D02*
X102335714Y-97023390D01*
X102335714Y-97023390D02*
X102288095Y-97071009D01*
X102288095Y-97071009D02*
X102192857Y-97118628D01*
X102192857Y-97118628D02*
X101811905Y-97118628D01*
X103240476Y-96928152D02*
X103240476Y-97594819D01*
X103002381Y-96547200D02*
X102764286Y-97261485D01*
X102764286Y-97261485D02*
X103383333Y-97261485D01*
X127055714Y-119414819D02*
X127055714Y-118414819D01*
X127055714Y-118414819D02*
X127293809Y-118414819D01*
X127293809Y-118414819D02*
X127436666Y-118462438D01*
X127436666Y-118462438D02*
X127531904Y-118557676D01*
X127531904Y-118557676D02*
X127579523Y-118652914D01*
X127579523Y-118652914D02*
X127627142Y-118843390D01*
X127627142Y-118843390D02*
X127627142Y-118986247D01*
X127627142Y-118986247D02*
X127579523Y-119176723D01*
X127579523Y-119176723D02*
X127531904Y-119271961D01*
X127531904Y-119271961D02*
X127436666Y-119367200D01*
X127436666Y-119367200D02*
X127293809Y-119414819D01*
X127293809Y-119414819D02*
X127055714Y-119414819D01*
X128579523Y-119414819D02*
X128008095Y-119414819D01*
X128293809Y-119414819D02*
X128293809Y-118414819D01*
X128293809Y-118414819D02*
X128198571Y-118557676D01*
X128198571Y-118557676D02*
X128103333Y-118652914D01*
X128103333Y-118652914D02*
X128008095Y-118700533D01*
X129436666Y-118748152D02*
X129436666Y-119414819D01*
X129198571Y-118367200D02*
X128960476Y-119081485D01*
X128960476Y-119081485D02*
X129579523Y-119081485D01*
X109751905Y-79614819D02*
X109751905Y-78614819D01*
X109751905Y-78614819D02*
X109990000Y-78614819D01*
X109990000Y-78614819D02*
X110132857Y-78662438D01*
X110132857Y-78662438D02*
X110228095Y-78757676D01*
X110228095Y-78757676D02*
X110275714Y-78852914D01*
X110275714Y-78852914D02*
X110323333Y-79043390D01*
X110323333Y-79043390D02*
X110323333Y-79186247D01*
X110323333Y-79186247D02*
X110275714Y-79376723D01*
X110275714Y-79376723D02*
X110228095Y-79471961D01*
X110228095Y-79471961D02*
X110132857Y-79567200D01*
X110132857Y-79567200D02*
X109990000Y-79614819D01*
X109990000Y-79614819D02*
X109751905Y-79614819D01*
X110656667Y-78614819D02*
X111323333Y-78614819D01*
X111323333Y-78614819D02*
X110894762Y-79614819D01*
X167452319Y-89868333D02*
X168166604Y-89868333D01*
X168166604Y-89868333D02*
X168309461Y-89915952D01*
X168309461Y-89915952D02*
X168404700Y-90011190D01*
X168404700Y-90011190D02*
X168452319Y-90154047D01*
X168452319Y-90154047D02*
X168452319Y-90249285D01*
X168452319Y-88868333D02*
X168452319Y-89439761D01*
X168452319Y-89154047D02*
X167452319Y-89154047D01*
X167452319Y-89154047D02*
X167595176Y-89249285D01*
X167595176Y-89249285D02*
X167690414Y-89344523D01*
X167690414Y-89344523D02*
X167738033Y-89439761D01*
X127055714Y-35494819D02*
X127055714Y-34494819D01*
X127055714Y-34494819D02*
X127293809Y-34494819D01*
X127293809Y-34494819D02*
X127436666Y-34542438D01*
X127436666Y-34542438D02*
X127531904Y-34637676D01*
X127531904Y-34637676D02*
X127579523Y-34732914D01*
X127579523Y-34732914D02*
X127627142Y-34923390D01*
X127627142Y-34923390D02*
X127627142Y-35066247D01*
X127627142Y-35066247D02*
X127579523Y-35256723D01*
X127579523Y-35256723D02*
X127531904Y-35351961D01*
X127531904Y-35351961D02*
X127436666Y-35447200D01*
X127436666Y-35447200D02*
X127293809Y-35494819D01*
X127293809Y-35494819D02*
X127055714Y-35494819D01*
X128008095Y-34590057D02*
X128055714Y-34542438D01*
X128055714Y-34542438D02*
X128150952Y-34494819D01*
X128150952Y-34494819D02*
X128389047Y-34494819D01*
X128389047Y-34494819D02*
X128484285Y-34542438D01*
X128484285Y-34542438D02*
X128531904Y-34590057D01*
X128531904Y-34590057D02*
X128579523Y-34685295D01*
X128579523Y-34685295D02*
X128579523Y-34780533D01*
X128579523Y-34780533D02*
X128531904Y-34923390D01*
X128531904Y-34923390D02*
X127960476Y-35494819D01*
X127960476Y-35494819D02*
X128579523Y-35494819D01*
X129484285Y-34494819D02*
X129008095Y-34494819D01*
X129008095Y-34494819D02*
X128960476Y-34971009D01*
X128960476Y-34971009D02*
X129008095Y-34923390D01*
X129008095Y-34923390D02*
X129103333Y-34875771D01*
X129103333Y-34875771D02*
X129341428Y-34875771D01*
X129341428Y-34875771D02*
X129436666Y-34923390D01*
X129436666Y-34923390D02*
X129484285Y-34971009D01*
X129484285Y-34971009D02*
X129531904Y-35066247D01*
X129531904Y-35066247D02*
X129531904Y-35304342D01*
X129531904Y-35304342D02*
X129484285Y-35399580D01*
X129484285Y-35399580D02*
X129436666Y-35447200D01*
X129436666Y-35447200D02*
X129341428Y-35494819D01*
X129341428Y-35494819D02*
X129103333Y-35494819D01*
X129103333Y-35494819D02*
X129008095Y-35447200D01*
X129008095Y-35447200D02*
X128960476Y-35399580D01*
X127055714Y-66494819D02*
X127055714Y-65494819D01*
X127055714Y-65494819D02*
X127293809Y-65494819D01*
X127293809Y-65494819D02*
X127436666Y-65542438D01*
X127436666Y-65542438D02*
X127531904Y-65637676D01*
X127531904Y-65637676D02*
X127579523Y-65732914D01*
X127579523Y-65732914D02*
X127627142Y-65923390D01*
X127627142Y-65923390D02*
X127627142Y-66066247D01*
X127627142Y-66066247D02*
X127579523Y-66256723D01*
X127579523Y-66256723D02*
X127531904Y-66351961D01*
X127531904Y-66351961D02*
X127436666Y-66447200D01*
X127436666Y-66447200D02*
X127293809Y-66494819D01*
X127293809Y-66494819D02*
X127055714Y-66494819D01*
X128008095Y-65590057D02*
X128055714Y-65542438D01*
X128055714Y-65542438D02*
X128150952Y-65494819D01*
X128150952Y-65494819D02*
X128389047Y-65494819D01*
X128389047Y-65494819D02*
X128484285Y-65542438D01*
X128484285Y-65542438D02*
X128531904Y-65590057D01*
X128531904Y-65590057D02*
X128579523Y-65685295D01*
X128579523Y-65685295D02*
X128579523Y-65780533D01*
X128579523Y-65780533D02*
X128531904Y-65923390D01*
X128531904Y-65923390D02*
X127960476Y-66494819D01*
X127960476Y-66494819D02*
X128579523Y-66494819D01*
X129531904Y-66494819D02*
X128960476Y-66494819D01*
X129246190Y-66494819D02*
X129246190Y-65494819D01*
X129246190Y-65494819D02*
X129150952Y-65637676D01*
X129150952Y-65637676D02*
X129055714Y-65732914D01*
X129055714Y-65732914D02*
X128960476Y-65780533D01*
X135407142Y-116374819D02*
X135073809Y-115898628D01*
X134835714Y-116374819D02*
X134835714Y-115374819D01*
X134835714Y-115374819D02*
X135216666Y-115374819D01*
X135216666Y-115374819D02*
X135311904Y-115422438D01*
X135311904Y-115422438D02*
X135359523Y-115470057D01*
X135359523Y-115470057D02*
X135407142Y-115565295D01*
X135407142Y-115565295D02*
X135407142Y-115708152D01*
X135407142Y-115708152D02*
X135359523Y-115803390D01*
X135359523Y-115803390D02*
X135311904Y-115851009D01*
X135311904Y-115851009D02*
X135216666Y-115898628D01*
X135216666Y-115898628D02*
X134835714Y-115898628D01*
X136359523Y-116374819D02*
X135788095Y-116374819D01*
X136073809Y-116374819D02*
X136073809Y-115374819D01*
X136073809Y-115374819D02*
X135978571Y-115517676D01*
X135978571Y-115517676D02*
X135883333Y-115612914D01*
X135883333Y-115612914D02*
X135788095Y-115660533D01*
X137264285Y-115374819D02*
X136788095Y-115374819D01*
X136788095Y-115374819D02*
X136740476Y-115851009D01*
X136740476Y-115851009D02*
X136788095Y-115803390D01*
X136788095Y-115803390D02*
X136883333Y-115755771D01*
X136883333Y-115755771D02*
X137121428Y-115755771D01*
X137121428Y-115755771D02*
X137216666Y-115803390D01*
X137216666Y-115803390D02*
X137264285Y-115851009D01*
X137264285Y-115851009D02*
X137311904Y-115946247D01*
X137311904Y-115946247D02*
X137311904Y-116184342D01*
X137311904Y-116184342D02*
X137264285Y-116279580D01*
X137264285Y-116279580D02*
X137216666Y-116327200D01*
X137216666Y-116327200D02*
X137121428Y-116374819D01*
X137121428Y-116374819D02*
X136883333Y-116374819D01*
X136883333Y-116374819D02*
X136788095Y-116327200D01*
X136788095Y-116327200D02*
X136740476Y-116279580D01*
X135407142Y-101374819D02*
X135073809Y-100898628D01*
X134835714Y-101374819D02*
X134835714Y-100374819D01*
X134835714Y-100374819D02*
X135216666Y-100374819D01*
X135216666Y-100374819D02*
X135311904Y-100422438D01*
X135311904Y-100422438D02*
X135359523Y-100470057D01*
X135359523Y-100470057D02*
X135407142Y-100565295D01*
X135407142Y-100565295D02*
X135407142Y-100708152D01*
X135407142Y-100708152D02*
X135359523Y-100803390D01*
X135359523Y-100803390D02*
X135311904Y-100851009D01*
X135311904Y-100851009D02*
X135216666Y-100898628D01*
X135216666Y-100898628D02*
X134835714Y-100898628D01*
X136359523Y-101374819D02*
X135788095Y-101374819D01*
X136073809Y-101374819D02*
X136073809Y-100374819D01*
X136073809Y-100374819D02*
X135978571Y-100517676D01*
X135978571Y-100517676D02*
X135883333Y-100612914D01*
X135883333Y-100612914D02*
X135788095Y-100660533D01*
X136692857Y-100374819D02*
X137359523Y-100374819D01*
X137359523Y-100374819D02*
X136930952Y-101374819D01*
X102547142Y-36634819D02*
X102213809Y-36158628D01*
X101975714Y-36634819D02*
X101975714Y-35634819D01*
X101975714Y-35634819D02*
X102356666Y-35634819D01*
X102356666Y-35634819D02*
X102451904Y-35682438D01*
X102451904Y-35682438D02*
X102499523Y-35730057D01*
X102499523Y-35730057D02*
X102547142Y-35825295D01*
X102547142Y-35825295D02*
X102547142Y-35968152D01*
X102547142Y-35968152D02*
X102499523Y-36063390D01*
X102499523Y-36063390D02*
X102451904Y-36111009D01*
X102451904Y-36111009D02*
X102356666Y-36158628D01*
X102356666Y-36158628D02*
X101975714Y-36158628D01*
X103499523Y-36634819D02*
X102928095Y-36634819D01*
X103213809Y-36634819D02*
X103213809Y-35634819D01*
X103213809Y-35634819D02*
X103118571Y-35777676D01*
X103118571Y-35777676D02*
X103023333Y-35872914D01*
X103023333Y-35872914D02*
X102928095Y-35920533D01*
X103880476Y-35730057D02*
X103928095Y-35682438D01*
X103928095Y-35682438D02*
X104023333Y-35634819D01*
X104023333Y-35634819D02*
X104261428Y-35634819D01*
X104261428Y-35634819D02*
X104356666Y-35682438D01*
X104356666Y-35682438D02*
X104404285Y-35730057D01*
X104404285Y-35730057D02*
X104451904Y-35825295D01*
X104451904Y-35825295D02*
X104451904Y-35920533D01*
X104451904Y-35920533D02*
X104404285Y-36063390D01*
X104404285Y-36063390D02*
X103832857Y-36634819D01*
X103832857Y-36634819D02*
X104451904Y-36634819D01*
X109751905Y-117714819D02*
X109751905Y-116714819D01*
X109751905Y-116714819D02*
X109990000Y-116714819D01*
X109990000Y-116714819D02*
X110132857Y-116762438D01*
X110132857Y-116762438D02*
X110228095Y-116857676D01*
X110228095Y-116857676D02*
X110275714Y-116952914D01*
X110275714Y-116952914D02*
X110323333Y-117143390D01*
X110323333Y-117143390D02*
X110323333Y-117286247D01*
X110323333Y-117286247D02*
X110275714Y-117476723D01*
X110275714Y-117476723D02*
X110228095Y-117571961D01*
X110228095Y-117571961D02*
X110132857Y-117667200D01*
X110132857Y-117667200D02*
X109990000Y-117714819D01*
X109990000Y-117714819D02*
X109751905Y-117714819D01*
X110704286Y-116810057D02*
X110751905Y-116762438D01*
X110751905Y-116762438D02*
X110847143Y-116714819D01*
X110847143Y-116714819D02*
X111085238Y-116714819D01*
X111085238Y-116714819D02*
X111180476Y-116762438D01*
X111180476Y-116762438D02*
X111228095Y-116810057D01*
X111228095Y-116810057D02*
X111275714Y-116905295D01*
X111275714Y-116905295D02*
X111275714Y-117000533D01*
X111275714Y-117000533D02*
X111228095Y-117143390D01*
X111228095Y-117143390D02*
X110656667Y-117714819D01*
X110656667Y-117714819D02*
X111275714Y-117714819D01*
X127055714Y-111494819D02*
X127055714Y-110494819D01*
X127055714Y-110494819D02*
X127293809Y-110494819D01*
X127293809Y-110494819D02*
X127436666Y-110542438D01*
X127436666Y-110542438D02*
X127531904Y-110637676D01*
X127531904Y-110637676D02*
X127579523Y-110732914D01*
X127579523Y-110732914D02*
X127627142Y-110923390D01*
X127627142Y-110923390D02*
X127627142Y-111066247D01*
X127627142Y-111066247D02*
X127579523Y-111256723D01*
X127579523Y-111256723D02*
X127531904Y-111351961D01*
X127531904Y-111351961D02*
X127436666Y-111447200D01*
X127436666Y-111447200D02*
X127293809Y-111494819D01*
X127293809Y-111494819D02*
X127055714Y-111494819D01*
X128579523Y-111494819D02*
X128008095Y-111494819D01*
X128293809Y-111494819D02*
X128293809Y-110494819D01*
X128293809Y-110494819D02*
X128198571Y-110637676D01*
X128198571Y-110637676D02*
X128103333Y-110732914D01*
X128103333Y-110732914D02*
X128008095Y-110780533D01*
X129484285Y-110494819D02*
X129008095Y-110494819D01*
X129008095Y-110494819D02*
X128960476Y-110971009D01*
X128960476Y-110971009D02*
X129008095Y-110923390D01*
X129008095Y-110923390D02*
X129103333Y-110875771D01*
X129103333Y-110875771D02*
X129341428Y-110875771D01*
X129341428Y-110875771D02*
X129436666Y-110923390D01*
X129436666Y-110923390D02*
X129484285Y-110971009D01*
X129484285Y-110971009D02*
X129531904Y-111066247D01*
X129531904Y-111066247D02*
X129531904Y-111304342D01*
X129531904Y-111304342D02*
X129484285Y-111399580D01*
X129484285Y-111399580D02*
X129436666Y-111447200D01*
X129436666Y-111447200D02*
X129341428Y-111494819D01*
X129341428Y-111494819D02*
X129103333Y-111494819D01*
X129103333Y-111494819D02*
X129008095Y-111447200D01*
X129008095Y-111447200D02*
X128960476Y-111399580D01*
X135407142Y-71374819D02*
X135073809Y-70898628D01*
X134835714Y-71374819D02*
X134835714Y-70374819D01*
X134835714Y-70374819D02*
X135216666Y-70374819D01*
X135216666Y-70374819D02*
X135311904Y-70422438D01*
X135311904Y-70422438D02*
X135359523Y-70470057D01*
X135359523Y-70470057D02*
X135407142Y-70565295D01*
X135407142Y-70565295D02*
X135407142Y-70708152D01*
X135407142Y-70708152D02*
X135359523Y-70803390D01*
X135359523Y-70803390D02*
X135311904Y-70851009D01*
X135311904Y-70851009D02*
X135216666Y-70898628D01*
X135216666Y-70898628D02*
X134835714Y-70898628D01*
X135788095Y-70470057D02*
X135835714Y-70422438D01*
X135835714Y-70422438D02*
X135930952Y-70374819D01*
X135930952Y-70374819D02*
X136169047Y-70374819D01*
X136169047Y-70374819D02*
X136264285Y-70422438D01*
X136264285Y-70422438D02*
X136311904Y-70470057D01*
X136311904Y-70470057D02*
X136359523Y-70565295D01*
X136359523Y-70565295D02*
X136359523Y-70660533D01*
X136359523Y-70660533D02*
X136311904Y-70803390D01*
X136311904Y-70803390D02*
X135740476Y-71374819D01*
X135740476Y-71374819D02*
X136359523Y-71374819D01*
X137311904Y-71374819D02*
X136740476Y-71374819D01*
X137026190Y-71374819D02*
X137026190Y-70374819D01*
X137026190Y-70374819D02*
X136930952Y-70517676D01*
X136930952Y-70517676D02*
X136835714Y-70612914D01*
X136835714Y-70612914D02*
X136740476Y-70660533D01*
X127055714Y-73694819D02*
X127055714Y-72694819D01*
X127055714Y-72694819D02*
X127293809Y-72694819D01*
X127293809Y-72694819D02*
X127436666Y-72742438D01*
X127436666Y-72742438D02*
X127531904Y-72837676D01*
X127531904Y-72837676D02*
X127579523Y-72932914D01*
X127579523Y-72932914D02*
X127627142Y-73123390D01*
X127627142Y-73123390D02*
X127627142Y-73266247D01*
X127627142Y-73266247D02*
X127579523Y-73456723D01*
X127579523Y-73456723D02*
X127531904Y-73551961D01*
X127531904Y-73551961D02*
X127436666Y-73647200D01*
X127436666Y-73647200D02*
X127293809Y-73694819D01*
X127293809Y-73694819D02*
X127055714Y-73694819D01*
X128008095Y-72790057D02*
X128055714Y-72742438D01*
X128055714Y-72742438D02*
X128150952Y-72694819D01*
X128150952Y-72694819D02*
X128389047Y-72694819D01*
X128389047Y-72694819D02*
X128484285Y-72742438D01*
X128484285Y-72742438D02*
X128531904Y-72790057D01*
X128531904Y-72790057D02*
X128579523Y-72885295D01*
X128579523Y-72885295D02*
X128579523Y-72980533D01*
X128579523Y-72980533D02*
X128531904Y-73123390D01*
X128531904Y-73123390D02*
X127960476Y-73694819D01*
X127960476Y-73694819D02*
X128579523Y-73694819D01*
X129198571Y-72694819D02*
X129293809Y-72694819D01*
X129293809Y-72694819D02*
X129389047Y-72742438D01*
X129389047Y-72742438D02*
X129436666Y-72790057D01*
X129436666Y-72790057D02*
X129484285Y-72885295D01*
X129484285Y-72885295D02*
X129531904Y-73075771D01*
X129531904Y-73075771D02*
X129531904Y-73313866D01*
X129531904Y-73313866D02*
X129484285Y-73504342D01*
X129484285Y-73504342D02*
X129436666Y-73599580D01*
X129436666Y-73599580D02*
X129389047Y-73647200D01*
X129389047Y-73647200D02*
X129293809Y-73694819D01*
X129293809Y-73694819D02*
X129198571Y-73694819D01*
X129198571Y-73694819D02*
X129103333Y-73647200D01*
X129103333Y-73647200D02*
X129055714Y-73599580D01*
X129055714Y-73599580D02*
X129008095Y-73504342D01*
X129008095Y-73504342D02*
X128960476Y-73313866D01*
X128960476Y-73313866D02*
X128960476Y-73075771D01*
X128960476Y-73075771D02*
X129008095Y-72885295D01*
X129008095Y-72885295D02*
X129055714Y-72790057D01*
X129055714Y-72790057D02*
X129103333Y-72742438D01*
X129103333Y-72742438D02*
X129198571Y-72694819D01*
X135407142Y-109374819D02*
X135073809Y-108898628D01*
X134835714Y-109374819D02*
X134835714Y-108374819D01*
X134835714Y-108374819D02*
X135216666Y-108374819D01*
X135216666Y-108374819D02*
X135311904Y-108422438D01*
X135311904Y-108422438D02*
X135359523Y-108470057D01*
X135359523Y-108470057D02*
X135407142Y-108565295D01*
X135407142Y-108565295D02*
X135407142Y-108708152D01*
X135407142Y-108708152D02*
X135359523Y-108803390D01*
X135359523Y-108803390D02*
X135311904Y-108851009D01*
X135311904Y-108851009D02*
X135216666Y-108898628D01*
X135216666Y-108898628D02*
X134835714Y-108898628D01*
X136359523Y-109374819D02*
X135788095Y-109374819D01*
X136073809Y-109374819D02*
X136073809Y-108374819D01*
X136073809Y-108374819D02*
X135978571Y-108517676D01*
X135978571Y-108517676D02*
X135883333Y-108612914D01*
X135883333Y-108612914D02*
X135788095Y-108660533D01*
X137216666Y-108374819D02*
X137026190Y-108374819D01*
X137026190Y-108374819D02*
X136930952Y-108422438D01*
X136930952Y-108422438D02*
X136883333Y-108470057D01*
X136883333Y-108470057D02*
X136788095Y-108612914D01*
X136788095Y-108612914D02*
X136740476Y-108803390D01*
X136740476Y-108803390D02*
X136740476Y-109184342D01*
X136740476Y-109184342D02*
X136788095Y-109279580D01*
X136788095Y-109279580D02*
X136835714Y-109327200D01*
X136835714Y-109327200D02*
X136930952Y-109374819D01*
X136930952Y-109374819D02*
X137121428Y-109374819D01*
X137121428Y-109374819D02*
X137216666Y-109327200D01*
X137216666Y-109327200D02*
X137264285Y-109279580D01*
X137264285Y-109279580D02*
X137311904Y-109184342D01*
X137311904Y-109184342D02*
X137311904Y-108946247D01*
X137311904Y-108946247D02*
X137264285Y-108851009D01*
X137264285Y-108851009D02*
X137216666Y-108803390D01*
X137216666Y-108803390D02*
X137121428Y-108755771D01*
X137121428Y-108755771D02*
X136930952Y-108755771D01*
X136930952Y-108755771D02*
X136835714Y-108803390D01*
X136835714Y-108803390D02*
X136788095Y-108851009D01*
X136788095Y-108851009D02*
X136740476Y-108946247D01*
X127055714Y-81494819D02*
X127055714Y-80494819D01*
X127055714Y-80494819D02*
X127293809Y-80494819D01*
X127293809Y-80494819D02*
X127436666Y-80542438D01*
X127436666Y-80542438D02*
X127531904Y-80637676D01*
X127531904Y-80637676D02*
X127579523Y-80732914D01*
X127579523Y-80732914D02*
X127627142Y-80923390D01*
X127627142Y-80923390D02*
X127627142Y-81066247D01*
X127627142Y-81066247D02*
X127579523Y-81256723D01*
X127579523Y-81256723D02*
X127531904Y-81351961D01*
X127531904Y-81351961D02*
X127436666Y-81447200D01*
X127436666Y-81447200D02*
X127293809Y-81494819D01*
X127293809Y-81494819D02*
X127055714Y-81494819D01*
X128579523Y-81494819D02*
X128008095Y-81494819D01*
X128293809Y-81494819D02*
X128293809Y-80494819D01*
X128293809Y-80494819D02*
X128198571Y-80637676D01*
X128198571Y-80637676D02*
X128103333Y-80732914D01*
X128103333Y-80732914D02*
X128008095Y-80780533D01*
X129055714Y-81494819D02*
X129246190Y-81494819D01*
X129246190Y-81494819D02*
X129341428Y-81447200D01*
X129341428Y-81447200D02*
X129389047Y-81399580D01*
X129389047Y-81399580D02*
X129484285Y-81256723D01*
X129484285Y-81256723D02*
X129531904Y-81066247D01*
X129531904Y-81066247D02*
X129531904Y-80685295D01*
X129531904Y-80685295D02*
X129484285Y-80590057D01*
X129484285Y-80590057D02*
X129436666Y-80542438D01*
X129436666Y-80542438D02*
X129341428Y-80494819D01*
X129341428Y-80494819D02*
X129150952Y-80494819D01*
X129150952Y-80494819D02*
X129055714Y-80542438D01*
X129055714Y-80542438D02*
X129008095Y-80590057D01*
X129008095Y-80590057D02*
X128960476Y-80685295D01*
X128960476Y-80685295D02*
X128960476Y-80923390D01*
X128960476Y-80923390D02*
X129008095Y-81018628D01*
X129008095Y-81018628D02*
X129055714Y-81066247D01*
X129055714Y-81066247D02*
X129150952Y-81113866D01*
X129150952Y-81113866D02*
X129341428Y-81113866D01*
X129341428Y-81113866D02*
X129436666Y-81066247D01*
X129436666Y-81066247D02*
X129484285Y-81018628D01*
X129484285Y-81018628D02*
X129531904Y-80923390D01*
X102383333Y-89974819D02*
X102050000Y-89498628D01*
X101811905Y-89974819D02*
X101811905Y-88974819D01*
X101811905Y-88974819D02*
X102192857Y-88974819D01*
X102192857Y-88974819D02*
X102288095Y-89022438D01*
X102288095Y-89022438D02*
X102335714Y-89070057D01*
X102335714Y-89070057D02*
X102383333Y-89165295D01*
X102383333Y-89165295D02*
X102383333Y-89308152D01*
X102383333Y-89308152D02*
X102335714Y-89403390D01*
X102335714Y-89403390D02*
X102288095Y-89451009D01*
X102288095Y-89451009D02*
X102192857Y-89498628D01*
X102192857Y-89498628D02*
X101811905Y-89498628D01*
X103288095Y-88974819D02*
X102811905Y-88974819D01*
X102811905Y-88974819D02*
X102764286Y-89451009D01*
X102764286Y-89451009D02*
X102811905Y-89403390D01*
X102811905Y-89403390D02*
X102907143Y-89355771D01*
X102907143Y-89355771D02*
X103145238Y-89355771D01*
X103145238Y-89355771D02*
X103240476Y-89403390D01*
X103240476Y-89403390D02*
X103288095Y-89451009D01*
X103288095Y-89451009D02*
X103335714Y-89546247D01*
X103335714Y-89546247D02*
X103335714Y-89784342D01*
X103335714Y-89784342D02*
X103288095Y-89879580D01*
X103288095Y-89879580D02*
X103240476Y-89927200D01*
X103240476Y-89927200D02*
X103145238Y-89974819D01*
X103145238Y-89974819D02*
X102907143Y-89974819D01*
X102907143Y-89974819D02*
X102811905Y-89927200D01*
X102811905Y-89927200D02*
X102764286Y-89879580D01*
X135407142Y-78374819D02*
X135073809Y-77898628D01*
X134835714Y-78374819D02*
X134835714Y-77374819D01*
X134835714Y-77374819D02*
X135216666Y-77374819D01*
X135216666Y-77374819D02*
X135311904Y-77422438D01*
X135311904Y-77422438D02*
X135359523Y-77470057D01*
X135359523Y-77470057D02*
X135407142Y-77565295D01*
X135407142Y-77565295D02*
X135407142Y-77708152D01*
X135407142Y-77708152D02*
X135359523Y-77803390D01*
X135359523Y-77803390D02*
X135311904Y-77851009D01*
X135311904Y-77851009D02*
X135216666Y-77898628D01*
X135216666Y-77898628D02*
X134835714Y-77898628D01*
X135788095Y-77470057D02*
X135835714Y-77422438D01*
X135835714Y-77422438D02*
X135930952Y-77374819D01*
X135930952Y-77374819D02*
X136169047Y-77374819D01*
X136169047Y-77374819D02*
X136264285Y-77422438D01*
X136264285Y-77422438D02*
X136311904Y-77470057D01*
X136311904Y-77470057D02*
X136359523Y-77565295D01*
X136359523Y-77565295D02*
X136359523Y-77660533D01*
X136359523Y-77660533D02*
X136311904Y-77803390D01*
X136311904Y-77803390D02*
X135740476Y-78374819D01*
X135740476Y-78374819D02*
X136359523Y-78374819D01*
X136978571Y-77374819D02*
X137073809Y-77374819D01*
X137073809Y-77374819D02*
X137169047Y-77422438D01*
X137169047Y-77422438D02*
X137216666Y-77470057D01*
X137216666Y-77470057D02*
X137264285Y-77565295D01*
X137264285Y-77565295D02*
X137311904Y-77755771D01*
X137311904Y-77755771D02*
X137311904Y-77993866D01*
X137311904Y-77993866D02*
X137264285Y-78184342D01*
X137264285Y-78184342D02*
X137216666Y-78279580D01*
X137216666Y-78279580D02*
X137169047Y-78327200D01*
X137169047Y-78327200D02*
X137073809Y-78374819D01*
X137073809Y-78374819D02*
X136978571Y-78374819D01*
X136978571Y-78374819D02*
X136883333Y-78327200D01*
X136883333Y-78327200D02*
X136835714Y-78279580D01*
X136835714Y-78279580D02*
X136788095Y-78184342D01*
X136788095Y-78184342D02*
X136740476Y-77993866D01*
X136740476Y-77993866D02*
X136740476Y-77755771D01*
X136740476Y-77755771D02*
X136788095Y-77565295D01*
X136788095Y-77565295D02*
X136835714Y-77470057D01*
X136835714Y-77470057D02*
X136883333Y-77422438D01*
X136883333Y-77422438D02*
X136978571Y-77374819D01*
X135407142Y-63334819D02*
X135073809Y-62858628D01*
X134835714Y-63334819D02*
X134835714Y-62334819D01*
X134835714Y-62334819D02*
X135216666Y-62334819D01*
X135216666Y-62334819D02*
X135311904Y-62382438D01*
X135311904Y-62382438D02*
X135359523Y-62430057D01*
X135359523Y-62430057D02*
X135407142Y-62525295D01*
X135407142Y-62525295D02*
X135407142Y-62668152D01*
X135407142Y-62668152D02*
X135359523Y-62763390D01*
X135359523Y-62763390D02*
X135311904Y-62811009D01*
X135311904Y-62811009D02*
X135216666Y-62858628D01*
X135216666Y-62858628D02*
X134835714Y-62858628D01*
X135788095Y-62430057D02*
X135835714Y-62382438D01*
X135835714Y-62382438D02*
X135930952Y-62334819D01*
X135930952Y-62334819D02*
X136169047Y-62334819D01*
X136169047Y-62334819D02*
X136264285Y-62382438D01*
X136264285Y-62382438D02*
X136311904Y-62430057D01*
X136311904Y-62430057D02*
X136359523Y-62525295D01*
X136359523Y-62525295D02*
X136359523Y-62620533D01*
X136359523Y-62620533D02*
X136311904Y-62763390D01*
X136311904Y-62763390D02*
X135740476Y-63334819D01*
X135740476Y-63334819D02*
X136359523Y-63334819D01*
X136740476Y-62430057D02*
X136788095Y-62382438D01*
X136788095Y-62382438D02*
X136883333Y-62334819D01*
X136883333Y-62334819D02*
X137121428Y-62334819D01*
X137121428Y-62334819D02*
X137216666Y-62382438D01*
X137216666Y-62382438D02*
X137264285Y-62430057D01*
X137264285Y-62430057D02*
X137311904Y-62525295D01*
X137311904Y-62525295D02*
X137311904Y-62620533D01*
X137311904Y-62620533D02*
X137264285Y-62763390D01*
X137264285Y-62763390D02*
X136692857Y-63334819D01*
X136692857Y-63334819D02*
X137311904Y-63334819D01*
X135407142Y-32374819D02*
X135073809Y-31898628D01*
X134835714Y-32374819D02*
X134835714Y-31374819D01*
X134835714Y-31374819D02*
X135216666Y-31374819D01*
X135216666Y-31374819D02*
X135311904Y-31422438D01*
X135311904Y-31422438D02*
X135359523Y-31470057D01*
X135359523Y-31470057D02*
X135407142Y-31565295D01*
X135407142Y-31565295D02*
X135407142Y-31708152D01*
X135407142Y-31708152D02*
X135359523Y-31803390D01*
X135359523Y-31803390D02*
X135311904Y-31851009D01*
X135311904Y-31851009D02*
X135216666Y-31898628D01*
X135216666Y-31898628D02*
X134835714Y-31898628D01*
X135788095Y-31470057D02*
X135835714Y-31422438D01*
X135835714Y-31422438D02*
X135930952Y-31374819D01*
X135930952Y-31374819D02*
X136169047Y-31374819D01*
X136169047Y-31374819D02*
X136264285Y-31422438D01*
X136264285Y-31422438D02*
X136311904Y-31470057D01*
X136311904Y-31470057D02*
X136359523Y-31565295D01*
X136359523Y-31565295D02*
X136359523Y-31660533D01*
X136359523Y-31660533D02*
X136311904Y-31803390D01*
X136311904Y-31803390D02*
X135740476Y-32374819D01*
X135740476Y-32374819D02*
X136359523Y-32374819D01*
X137216666Y-31374819D02*
X137026190Y-31374819D01*
X137026190Y-31374819D02*
X136930952Y-31422438D01*
X136930952Y-31422438D02*
X136883333Y-31470057D01*
X136883333Y-31470057D02*
X136788095Y-31612914D01*
X136788095Y-31612914D02*
X136740476Y-31803390D01*
X136740476Y-31803390D02*
X136740476Y-32184342D01*
X136740476Y-32184342D02*
X136788095Y-32279580D01*
X136788095Y-32279580D02*
X136835714Y-32327200D01*
X136835714Y-32327200D02*
X136930952Y-32374819D01*
X136930952Y-32374819D02*
X137121428Y-32374819D01*
X137121428Y-32374819D02*
X137216666Y-32327200D01*
X137216666Y-32327200D02*
X137264285Y-32279580D01*
X137264285Y-32279580D02*
X137311904Y-32184342D01*
X137311904Y-32184342D02*
X137311904Y-31946247D01*
X137311904Y-31946247D02*
X137264285Y-31851009D01*
X137264285Y-31851009D02*
X137216666Y-31803390D01*
X137216666Y-31803390D02*
X137121428Y-31755771D01*
X137121428Y-31755771D02*
X136930952Y-31755771D01*
X136930952Y-31755771D02*
X136835714Y-31803390D01*
X136835714Y-31803390D02*
X136788095Y-31851009D01*
X136788095Y-31851009D02*
X136740476Y-31946247D01*
X102383333Y-74734819D02*
X102050000Y-74258628D01*
X101811905Y-74734819D02*
X101811905Y-73734819D01*
X101811905Y-73734819D02*
X102192857Y-73734819D01*
X102192857Y-73734819D02*
X102288095Y-73782438D01*
X102288095Y-73782438D02*
X102335714Y-73830057D01*
X102335714Y-73830057D02*
X102383333Y-73925295D01*
X102383333Y-73925295D02*
X102383333Y-74068152D01*
X102383333Y-74068152D02*
X102335714Y-74163390D01*
X102335714Y-74163390D02*
X102288095Y-74211009D01*
X102288095Y-74211009D02*
X102192857Y-74258628D01*
X102192857Y-74258628D02*
X101811905Y-74258628D01*
X102716667Y-73734819D02*
X103383333Y-73734819D01*
X103383333Y-73734819D02*
X102954762Y-74734819D01*
X127055714Y-50494819D02*
X127055714Y-49494819D01*
X127055714Y-49494819D02*
X127293809Y-49494819D01*
X127293809Y-49494819D02*
X127436666Y-49542438D01*
X127436666Y-49542438D02*
X127531904Y-49637676D01*
X127531904Y-49637676D02*
X127579523Y-49732914D01*
X127579523Y-49732914D02*
X127627142Y-49923390D01*
X127627142Y-49923390D02*
X127627142Y-50066247D01*
X127627142Y-50066247D02*
X127579523Y-50256723D01*
X127579523Y-50256723D02*
X127531904Y-50351961D01*
X127531904Y-50351961D02*
X127436666Y-50447200D01*
X127436666Y-50447200D02*
X127293809Y-50494819D01*
X127293809Y-50494819D02*
X127055714Y-50494819D01*
X128008095Y-49590057D02*
X128055714Y-49542438D01*
X128055714Y-49542438D02*
X128150952Y-49494819D01*
X128150952Y-49494819D02*
X128389047Y-49494819D01*
X128389047Y-49494819D02*
X128484285Y-49542438D01*
X128484285Y-49542438D02*
X128531904Y-49590057D01*
X128531904Y-49590057D02*
X128579523Y-49685295D01*
X128579523Y-49685295D02*
X128579523Y-49780533D01*
X128579523Y-49780533D02*
X128531904Y-49923390D01*
X128531904Y-49923390D02*
X127960476Y-50494819D01*
X127960476Y-50494819D02*
X128579523Y-50494819D01*
X128912857Y-49494819D02*
X129531904Y-49494819D01*
X129531904Y-49494819D02*
X129198571Y-49875771D01*
X129198571Y-49875771D02*
X129341428Y-49875771D01*
X129341428Y-49875771D02*
X129436666Y-49923390D01*
X129436666Y-49923390D02*
X129484285Y-49971009D01*
X129484285Y-49971009D02*
X129531904Y-50066247D01*
X129531904Y-50066247D02*
X129531904Y-50304342D01*
X129531904Y-50304342D02*
X129484285Y-50399580D01*
X129484285Y-50399580D02*
X129436666Y-50447200D01*
X129436666Y-50447200D02*
X129341428Y-50494819D01*
X129341428Y-50494819D02*
X129055714Y-50494819D01*
X129055714Y-50494819D02*
X128960476Y-50447200D01*
X128960476Y-50447200D02*
X128912857Y-50399580D01*
X102547142Y-44254819D02*
X102213809Y-43778628D01*
X101975714Y-44254819D02*
X101975714Y-43254819D01*
X101975714Y-43254819D02*
X102356666Y-43254819D01*
X102356666Y-43254819D02*
X102451904Y-43302438D01*
X102451904Y-43302438D02*
X102499523Y-43350057D01*
X102499523Y-43350057D02*
X102547142Y-43445295D01*
X102547142Y-43445295D02*
X102547142Y-43588152D01*
X102547142Y-43588152D02*
X102499523Y-43683390D01*
X102499523Y-43683390D02*
X102451904Y-43731009D01*
X102451904Y-43731009D02*
X102356666Y-43778628D01*
X102356666Y-43778628D02*
X101975714Y-43778628D01*
X103499523Y-44254819D02*
X102928095Y-44254819D01*
X103213809Y-44254819D02*
X103213809Y-43254819D01*
X103213809Y-43254819D02*
X103118571Y-43397676D01*
X103118571Y-43397676D02*
X103023333Y-43492914D01*
X103023333Y-43492914D02*
X102928095Y-43540533D01*
X104451904Y-44254819D02*
X103880476Y-44254819D01*
X104166190Y-44254819D02*
X104166190Y-43254819D01*
X104166190Y-43254819D02*
X104070952Y-43397676D01*
X104070952Y-43397676D02*
X103975714Y-43492914D01*
X103975714Y-43492914D02*
X103880476Y-43540533D01*
X102383333Y-112834819D02*
X102050000Y-112358628D01*
X101811905Y-112834819D02*
X101811905Y-111834819D01*
X101811905Y-111834819D02*
X102192857Y-111834819D01*
X102192857Y-111834819D02*
X102288095Y-111882438D01*
X102288095Y-111882438D02*
X102335714Y-111930057D01*
X102335714Y-111930057D02*
X102383333Y-112025295D01*
X102383333Y-112025295D02*
X102383333Y-112168152D01*
X102383333Y-112168152D02*
X102335714Y-112263390D01*
X102335714Y-112263390D02*
X102288095Y-112311009D01*
X102288095Y-112311009D02*
X102192857Y-112358628D01*
X102192857Y-112358628D02*
X101811905Y-112358628D01*
X102764286Y-111930057D02*
X102811905Y-111882438D01*
X102811905Y-111882438D02*
X102907143Y-111834819D01*
X102907143Y-111834819D02*
X103145238Y-111834819D01*
X103145238Y-111834819D02*
X103240476Y-111882438D01*
X103240476Y-111882438D02*
X103288095Y-111930057D01*
X103288095Y-111930057D02*
X103335714Y-112025295D01*
X103335714Y-112025295D02*
X103335714Y-112120533D01*
X103335714Y-112120533D02*
X103288095Y-112263390D01*
X103288095Y-112263390D02*
X102716667Y-112834819D01*
X102716667Y-112834819D02*
X103335714Y-112834819D01*
X103023333Y-59494819D02*
X102690000Y-59018628D01*
X102451905Y-59494819D02*
X102451905Y-58494819D01*
X102451905Y-58494819D02*
X102832857Y-58494819D01*
X102832857Y-58494819D02*
X102928095Y-58542438D01*
X102928095Y-58542438D02*
X102975714Y-58590057D01*
X102975714Y-58590057D02*
X103023333Y-58685295D01*
X103023333Y-58685295D02*
X103023333Y-58828152D01*
X103023333Y-58828152D02*
X102975714Y-58923390D01*
X102975714Y-58923390D02*
X102928095Y-58971009D01*
X102928095Y-58971009D02*
X102832857Y-59018628D01*
X102832857Y-59018628D02*
X102451905Y-59018628D01*
X103499524Y-59494819D02*
X103690000Y-59494819D01*
X103690000Y-59494819D02*
X103785238Y-59447200D01*
X103785238Y-59447200D02*
X103832857Y-59399580D01*
X103832857Y-59399580D02*
X103928095Y-59256723D01*
X103928095Y-59256723D02*
X103975714Y-59066247D01*
X103975714Y-59066247D02*
X103975714Y-58685295D01*
X103975714Y-58685295D02*
X103928095Y-58590057D01*
X103928095Y-58590057D02*
X103880476Y-58542438D01*
X103880476Y-58542438D02*
X103785238Y-58494819D01*
X103785238Y-58494819D02*
X103594762Y-58494819D01*
X103594762Y-58494819D02*
X103499524Y-58542438D01*
X103499524Y-58542438D02*
X103451905Y-58590057D01*
X103451905Y-58590057D02*
X103404286Y-58685295D01*
X103404286Y-58685295D02*
X103404286Y-58923390D01*
X103404286Y-58923390D02*
X103451905Y-59018628D01*
X103451905Y-59018628D02*
X103499524Y-59066247D01*
X103499524Y-59066247D02*
X103594762Y-59113866D01*
X103594762Y-59113866D02*
X103785238Y-59113866D01*
X103785238Y-59113866D02*
X103880476Y-59066247D01*
X103880476Y-59066247D02*
X103928095Y-59018628D01*
X103928095Y-59018628D02*
X103975714Y-58923390D01*
X135407142Y-48374819D02*
X135073809Y-47898628D01*
X134835714Y-48374819D02*
X134835714Y-47374819D01*
X134835714Y-47374819D02*
X135216666Y-47374819D01*
X135216666Y-47374819D02*
X135311904Y-47422438D01*
X135311904Y-47422438D02*
X135359523Y-47470057D01*
X135359523Y-47470057D02*
X135407142Y-47565295D01*
X135407142Y-47565295D02*
X135407142Y-47708152D01*
X135407142Y-47708152D02*
X135359523Y-47803390D01*
X135359523Y-47803390D02*
X135311904Y-47851009D01*
X135311904Y-47851009D02*
X135216666Y-47898628D01*
X135216666Y-47898628D02*
X134835714Y-47898628D01*
X135788095Y-47470057D02*
X135835714Y-47422438D01*
X135835714Y-47422438D02*
X135930952Y-47374819D01*
X135930952Y-47374819D02*
X136169047Y-47374819D01*
X136169047Y-47374819D02*
X136264285Y-47422438D01*
X136264285Y-47422438D02*
X136311904Y-47470057D01*
X136311904Y-47470057D02*
X136359523Y-47565295D01*
X136359523Y-47565295D02*
X136359523Y-47660533D01*
X136359523Y-47660533D02*
X136311904Y-47803390D01*
X136311904Y-47803390D02*
X135740476Y-48374819D01*
X135740476Y-48374819D02*
X136359523Y-48374819D01*
X137216666Y-47708152D02*
X137216666Y-48374819D01*
X136978571Y-47327200D02*
X136740476Y-48041485D01*
X136740476Y-48041485D02*
X137359523Y-48041485D01*
X109751905Y-64374819D02*
X109751905Y-63374819D01*
X109751905Y-63374819D02*
X109990000Y-63374819D01*
X109990000Y-63374819D02*
X110132857Y-63422438D01*
X110132857Y-63422438D02*
X110228095Y-63517676D01*
X110228095Y-63517676D02*
X110275714Y-63612914D01*
X110275714Y-63612914D02*
X110323333Y-63803390D01*
X110323333Y-63803390D02*
X110323333Y-63946247D01*
X110323333Y-63946247D02*
X110275714Y-64136723D01*
X110275714Y-64136723D02*
X110228095Y-64231961D01*
X110228095Y-64231961D02*
X110132857Y-64327200D01*
X110132857Y-64327200D02*
X109990000Y-64374819D01*
X109990000Y-64374819D02*
X109751905Y-64374819D01*
X110799524Y-64374819D02*
X110990000Y-64374819D01*
X110990000Y-64374819D02*
X111085238Y-64327200D01*
X111085238Y-64327200D02*
X111132857Y-64279580D01*
X111132857Y-64279580D02*
X111228095Y-64136723D01*
X111228095Y-64136723D02*
X111275714Y-63946247D01*
X111275714Y-63946247D02*
X111275714Y-63565295D01*
X111275714Y-63565295D02*
X111228095Y-63470057D01*
X111228095Y-63470057D02*
X111180476Y-63422438D01*
X111180476Y-63422438D02*
X111085238Y-63374819D01*
X111085238Y-63374819D02*
X110894762Y-63374819D01*
X110894762Y-63374819D02*
X110799524Y-63422438D01*
X110799524Y-63422438D02*
X110751905Y-63470057D01*
X110751905Y-63470057D02*
X110704286Y-63565295D01*
X110704286Y-63565295D02*
X110704286Y-63803390D01*
X110704286Y-63803390D02*
X110751905Y-63898628D01*
X110751905Y-63898628D02*
X110799524Y-63946247D01*
X110799524Y-63946247D02*
X110894762Y-63993866D01*
X110894762Y-63993866D02*
X111085238Y-63993866D01*
X111085238Y-63993866D02*
X111180476Y-63946247D01*
X111180476Y-63946247D02*
X111228095Y-63898628D01*
X111228095Y-63898628D02*
X111275714Y-63803390D01*
X109275714Y-33894819D02*
X109275714Y-32894819D01*
X109275714Y-32894819D02*
X109513809Y-32894819D01*
X109513809Y-32894819D02*
X109656666Y-32942438D01*
X109656666Y-32942438D02*
X109751904Y-33037676D01*
X109751904Y-33037676D02*
X109799523Y-33132914D01*
X109799523Y-33132914D02*
X109847142Y-33323390D01*
X109847142Y-33323390D02*
X109847142Y-33466247D01*
X109847142Y-33466247D02*
X109799523Y-33656723D01*
X109799523Y-33656723D02*
X109751904Y-33751961D01*
X109751904Y-33751961D02*
X109656666Y-33847200D01*
X109656666Y-33847200D02*
X109513809Y-33894819D01*
X109513809Y-33894819D02*
X109275714Y-33894819D01*
X110799523Y-33894819D02*
X110228095Y-33894819D01*
X110513809Y-33894819D02*
X110513809Y-32894819D01*
X110513809Y-32894819D02*
X110418571Y-33037676D01*
X110418571Y-33037676D02*
X110323333Y-33132914D01*
X110323333Y-33132914D02*
X110228095Y-33180533D01*
X111132857Y-32894819D02*
X111751904Y-32894819D01*
X111751904Y-32894819D02*
X111418571Y-33275771D01*
X111418571Y-33275771D02*
X111561428Y-33275771D01*
X111561428Y-33275771D02*
X111656666Y-33323390D01*
X111656666Y-33323390D02*
X111704285Y-33371009D01*
X111704285Y-33371009D02*
X111751904Y-33466247D01*
X111751904Y-33466247D02*
X111751904Y-33704342D01*
X111751904Y-33704342D02*
X111704285Y-33799580D01*
X111704285Y-33799580D02*
X111656666Y-33847200D01*
X111656666Y-33847200D02*
X111561428Y-33894819D01*
X111561428Y-33894819D02*
X111275714Y-33894819D01*
X111275714Y-33894819D02*
X111180476Y-33847200D01*
X111180476Y-33847200D02*
X111132857Y-33799580D01*
X127055714Y-104494819D02*
X127055714Y-103494819D01*
X127055714Y-103494819D02*
X127293809Y-103494819D01*
X127293809Y-103494819D02*
X127436666Y-103542438D01*
X127436666Y-103542438D02*
X127531904Y-103637676D01*
X127531904Y-103637676D02*
X127579523Y-103732914D01*
X127579523Y-103732914D02*
X127627142Y-103923390D01*
X127627142Y-103923390D02*
X127627142Y-104066247D01*
X127627142Y-104066247D02*
X127579523Y-104256723D01*
X127579523Y-104256723D02*
X127531904Y-104351961D01*
X127531904Y-104351961D02*
X127436666Y-104447200D01*
X127436666Y-104447200D02*
X127293809Y-104494819D01*
X127293809Y-104494819D02*
X127055714Y-104494819D01*
X128579523Y-104494819D02*
X128008095Y-104494819D01*
X128293809Y-104494819D02*
X128293809Y-103494819D01*
X128293809Y-103494819D02*
X128198571Y-103637676D01*
X128198571Y-103637676D02*
X128103333Y-103732914D01*
X128103333Y-103732914D02*
X128008095Y-103780533D01*
X129436666Y-103494819D02*
X129246190Y-103494819D01*
X129246190Y-103494819D02*
X129150952Y-103542438D01*
X129150952Y-103542438D02*
X129103333Y-103590057D01*
X129103333Y-103590057D02*
X129008095Y-103732914D01*
X129008095Y-103732914D02*
X128960476Y-103923390D01*
X128960476Y-103923390D02*
X128960476Y-104304342D01*
X128960476Y-104304342D02*
X129008095Y-104399580D01*
X129008095Y-104399580D02*
X129055714Y-104447200D01*
X129055714Y-104447200D02*
X129150952Y-104494819D01*
X129150952Y-104494819D02*
X129341428Y-104494819D01*
X129341428Y-104494819D02*
X129436666Y-104447200D01*
X129436666Y-104447200D02*
X129484285Y-104399580D01*
X129484285Y-104399580D02*
X129531904Y-104304342D01*
X129531904Y-104304342D02*
X129531904Y-104066247D01*
X129531904Y-104066247D02*
X129484285Y-103971009D01*
X129484285Y-103971009D02*
X129436666Y-103923390D01*
X129436666Y-103923390D02*
X129341428Y-103875771D01*
X129341428Y-103875771D02*
X129150952Y-103875771D01*
X129150952Y-103875771D02*
X129055714Y-103923390D01*
X129055714Y-103923390D02*
X129008095Y-103971009D01*
X129008095Y-103971009D02*
X128960476Y-104066247D01*
X103023333Y-66854819D02*
X102690000Y-66378628D01*
X102451905Y-66854819D02*
X102451905Y-65854819D01*
X102451905Y-65854819D02*
X102832857Y-65854819D01*
X102832857Y-65854819D02*
X102928095Y-65902438D01*
X102928095Y-65902438D02*
X102975714Y-65950057D01*
X102975714Y-65950057D02*
X103023333Y-66045295D01*
X103023333Y-66045295D02*
X103023333Y-66188152D01*
X103023333Y-66188152D02*
X102975714Y-66283390D01*
X102975714Y-66283390D02*
X102928095Y-66331009D01*
X102928095Y-66331009D02*
X102832857Y-66378628D01*
X102832857Y-66378628D02*
X102451905Y-66378628D01*
X103594762Y-66283390D02*
X103499524Y-66235771D01*
X103499524Y-66235771D02*
X103451905Y-66188152D01*
X103451905Y-66188152D02*
X103404286Y-66092914D01*
X103404286Y-66092914D02*
X103404286Y-66045295D01*
X103404286Y-66045295D02*
X103451905Y-65950057D01*
X103451905Y-65950057D02*
X103499524Y-65902438D01*
X103499524Y-65902438D02*
X103594762Y-65854819D01*
X103594762Y-65854819D02*
X103785238Y-65854819D01*
X103785238Y-65854819D02*
X103880476Y-65902438D01*
X103880476Y-65902438D02*
X103928095Y-65950057D01*
X103928095Y-65950057D02*
X103975714Y-66045295D01*
X103975714Y-66045295D02*
X103975714Y-66092914D01*
X103975714Y-66092914D02*
X103928095Y-66188152D01*
X103928095Y-66188152D02*
X103880476Y-66235771D01*
X103880476Y-66235771D02*
X103785238Y-66283390D01*
X103785238Y-66283390D02*
X103594762Y-66283390D01*
X103594762Y-66283390D02*
X103499524Y-66331009D01*
X103499524Y-66331009D02*
X103451905Y-66378628D01*
X103451905Y-66378628D02*
X103404286Y-66473866D01*
X103404286Y-66473866D02*
X103404286Y-66664342D01*
X103404286Y-66664342D02*
X103451905Y-66759580D01*
X103451905Y-66759580D02*
X103499524Y-66807200D01*
X103499524Y-66807200D02*
X103594762Y-66854819D01*
X103594762Y-66854819D02*
X103785238Y-66854819D01*
X103785238Y-66854819D02*
X103880476Y-66807200D01*
X103880476Y-66807200D02*
X103928095Y-66759580D01*
X103928095Y-66759580D02*
X103975714Y-66664342D01*
X103975714Y-66664342D02*
X103975714Y-66473866D01*
X103975714Y-66473866D02*
X103928095Y-66378628D01*
X103928095Y-66378628D02*
X103880476Y-66331009D01*
X103880476Y-66331009D02*
X103785238Y-66283390D01*
X135407142Y-124294819D02*
X135073809Y-123818628D01*
X134835714Y-124294819D02*
X134835714Y-123294819D01*
X134835714Y-123294819D02*
X135216666Y-123294819D01*
X135216666Y-123294819D02*
X135311904Y-123342438D01*
X135311904Y-123342438D02*
X135359523Y-123390057D01*
X135359523Y-123390057D02*
X135407142Y-123485295D01*
X135407142Y-123485295D02*
X135407142Y-123628152D01*
X135407142Y-123628152D02*
X135359523Y-123723390D01*
X135359523Y-123723390D02*
X135311904Y-123771009D01*
X135311904Y-123771009D02*
X135216666Y-123818628D01*
X135216666Y-123818628D02*
X134835714Y-123818628D01*
X136359523Y-124294819D02*
X135788095Y-124294819D01*
X136073809Y-124294819D02*
X136073809Y-123294819D01*
X136073809Y-123294819D02*
X135978571Y-123437676D01*
X135978571Y-123437676D02*
X135883333Y-123532914D01*
X135883333Y-123532914D02*
X135788095Y-123580533D01*
X137216666Y-123628152D02*
X137216666Y-124294819D01*
X136978571Y-123247200D02*
X136740476Y-123961485D01*
X136740476Y-123961485D02*
X137359523Y-123961485D01*
D11*
%TO.C,J3*%
X114450000Y-133650000D02*
X114450000Y-134950000D01*
X114750000Y-133950000D02*
X116750000Y-133950000D01*
X114750000Y-148450000D02*
X114750000Y-133950000D01*
X116150000Y-133650000D02*
X114450000Y-133650000D01*
X121950000Y-133950000D02*
X123950000Y-133950000D01*
X123950000Y-133950000D02*
X123950000Y-135250000D01*
X123950000Y-139850000D02*
X123950000Y-148450000D01*
X123950000Y-148450000D02*
X114750000Y-148450000D01*
%TO.C,D26*%
X126710000Y-28764000D02*
X126710000Y-28920000D01*
X126710000Y-31080000D02*
X126710000Y-31236000D01*
X129942334Y-28921392D02*
G75*
G03*
X126710001Y-28764485I-1672334J-1078608D01*
G01*
X129311129Y-28920164D02*
G75*
G03*
X127229040Y-28920001I-1041129J-1079836D01*
G01*
X127229040Y-31079999D02*
G75*
G03*
X129311129Y-31079836I1040960J1079999D01*
G01*
X126710001Y-31235515D02*
G75*
G03*
X129942334Y-31078608I1559999J1235515D01*
G01*
%TO.C,R6*%
X102017133Y-83370001D02*
G75*
G03*
X101920095Y-84819358I-417133J-699999D01*
G01*
%TO.C,R19*%
X136582867Y-84699999D02*
G75*
G03*
X136679905Y-83250642I417133J699999D01*
G01*
%TO.C,D24*%
X126710000Y-44764000D02*
X126710000Y-44920000D01*
X126710000Y-47080000D02*
X126710000Y-47236000D01*
X129942334Y-44921392D02*
G75*
G03*
X126710001Y-44764485I-1672334J-1078608D01*
G01*
X129311129Y-44920164D02*
G75*
G03*
X127229040Y-44920001I-1041129J-1079836D01*
G01*
X127229040Y-47079999D02*
G75*
G03*
X129311129Y-47079836I1040960J1079999D01*
G01*
X126710001Y-47235515D02*
G75*
G03*
X129942334Y-47078608I1559999J1235515D01*
G01*
%TO.C,D11*%
X112050000Y-46956000D02*
X112050000Y-46800000D01*
X112050000Y-44640000D02*
X112050000Y-44484000D01*
X108817666Y-46798608D02*
G75*
G03*
X112049999Y-46955515I1672334J1078608D01*
G01*
X109448871Y-46799836D02*
G75*
G03*
X111530960Y-46799999I1041129J1079836D01*
G01*
X111530960Y-44640001D02*
G75*
G03*
X109448871Y-44640164I-1040960J-1079999D01*
G01*
X112049999Y-44484485D02*
G75*
G03*
X108817666Y-44641392I-1559999J-1235515D01*
G01*
%TO.C,D3*%
X112050000Y-107916000D02*
X112050000Y-107760000D01*
X112050000Y-105600000D02*
X112050000Y-105444000D01*
X108817666Y-107758608D02*
G75*
G03*
X112049999Y-107915515I1672334J1078608D01*
G01*
X109448871Y-107759836D02*
G75*
G03*
X111530960Y-107759999I1041129J1079836D01*
G01*
X111530960Y-105600001D02*
G75*
G03*
X109448871Y-105600164I-1040960J-1079999D01*
G01*
X112049999Y-105444485D02*
G75*
G03*
X108817666Y-105601392I-1559999J-1235515D01*
G01*
D12*
%TO.C,J2*%
X57000000Y-55310000D02*
X43300000Y-55310000D01*
X57000000Y-55310000D02*
X57000000Y-92010000D01*
X57000000Y-92010000D02*
X43300000Y-92010000D01*
D13*
X65200000Y-87360000D02*
G75*
G03*
X65200000Y-87360000I-100000J0D01*
G01*
D11*
%TO.C,D12*%
X112050000Y-39336000D02*
X112050000Y-39180000D01*
X112050000Y-37020000D02*
X112050000Y-36864000D01*
X108817666Y-39178608D02*
G75*
G03*
X112049999Y-39335515I1672334J1078608D01*
G01*
X109448871Y-39179836D02*
G75*
G03*
X111530960Y-39179999I1041129J1079836D01*
G01*
X111530960Y-37020001D02*
G75*
G03*
X109448871Y-37020164I-1040960J-1079999D01*
G01*
X112049999Y-36864485D02*
G75*
G03*
X108817666Y-37021392I-1559999J-1235515D01*
G01*
%TO.C,R1*%
X102017133Y-121220001D02*
G75*
G03*
X101920095Y-122669358I-417133J-699999D01*
G01*
%TO.C,D8*%
X112050000Y-69816000D02*
X112050000Y-69660000D01*
X112050000Y-67500000D02*
X112050000Y-67344000D01*
X108817666Y-69658608D02*
G75*
G03*
X112049999Y-69815515I1672334J1078608D01*
G01*
X109448871Y-69659836D02*
G75*
G03*
X111530960Y-69659999I1041129J1079836D01*
G01*
X111530960Y-67500001D02*
G75*
G03*
X109448871Y-67500164I-1040960J-1079999D01*
G01*
X112049999Y-67344485D02*
G75*
G03*
X108817666Y-67501392I-1559999J-1235515D01*
G01*
%TO.C,D4*%
X112050000Y-100296000D02*
X112050000Y-100140000D01*
X112050000Y-97980000D02*
X112050000Y-97824000D01*
X108817666Y-100138608D02*
G75*
G03*
X112049999Y-100295515I1672334J1078608D01*
G01*
X109448871Y-100139836D02*
G75*
G03*
X111530960Y-100139999I1041129J1079836D01*
G01*
X111530960Y-97980001D02*
G75*
G03*
X109448871Y-97980164I-1040960J-1079999D01*
G01*
X112049999Y-97824485D02*
G75*
G03*
X108817666Y-97981392I-1559999J-1235515D01*
G01*
%TO.C,R18*%
X136582867Y-91699999D02*
G75*
G03*
X136679905Y-90250642I417133J699999D01*
G01*
%TO.C,R10*%
X102657133Y-52640001D02*
G75*
G03*
X102560095Y-54089358I-417133J-699999D01*
G01*
%TO.C,D1*%
X112050000Y-123156000D02*
X112050000Y-123000000D01*
X112050000Y-120840000D02*
X112050000Y-120684000D01*
X108817666Y-122998608D02*
G75*
G03*
X112049999Y-123155515I1672334J1078608D01*
G01*
X109448871Y-122999836D02*
G75*
G03*
X111530960Y-122999999I1041129J1079836D01*
G01*
X111530960Y-120840001D02*
G75*
G03*
X109448871Y-120840164I-1040960J-1079999D01*
G01*
X112049999Y-120684485D02*
G75*
G03*
X108817666Y-120841392I-1559999J-1235515D01*
G01*
%TO.C,D6*%
X112050000Y-85056000D02*
X112050000Y-84900000D01*
X112050000Y-82740000D02*
X112050000Y-82584000D01*
X108817666Y-84898608D02*
G75*
G03*
X112049999Y-85055515I1672334J1078608D01*
G01*
X109448871Y-84899836D02*
G75*
G03*
X111530960Y-84899999I1041129J1079836D01*
G01*
X111530960Y-82740001D02*
G75*
G03*
X109448871Y-82740164I-1040960J-1079999D01*
G01*
X112049999Y-82584485D02*
G75*
G03*
X108817666Y-82741392I-1559999J-1235515D01*
G01*
%TO.C,D5*%
X112050000Y-92676000D02*
X112050000Y-92520000D01*
X112050000Y-90360000D02*
X112050000Y-90204000D01*
X108817666Y-92518608D02*
G75*
G03*
X112049999Y-92675515I1672334J1078608D01*
G01*
X109448871Y-92519836D02*
G75*
G03*
X111530960Y-92519999I1041129J1079836D01*
G01*
X111530960Y-90360001D02*
G75*
G03*
X109448871Y-90360164I-1040960J-1079999D01*
G01*
X112049999Y-90204485D02*
G75*
G03*
X108817666Y-90361392I-1559999J-1235515D01*
G01*
%TO.C,D10*%
X112050000Y-54576000D02*
X112050000Y-54420000D01*
X112050000Y-52260000D02*
X112050000Y-52104000D01*
X108817666Y-54418608D02*
G75*
G03*
X112049999Y-54575515I1672334J1078608D01*
G01*
X109448871Y-54419836D02*
G75*
G03*
X111530960Y-54419999I1041129J1079836D01*
G01*
X111530960Y-52260001D02*
G75*
G03*
X109448871Y-52260164I-1040960J-1079999D01*
G01*
X112049999Y-52104485D02*
G75*
G03*
X108817666Y-52261392I-1559999J-1235515D01*
G01*
%TO.C,D18*%
X126710000Y-89764000D02*
X126710000Y-89920000D01*
X126710000Y-92080000D02*
X126710000Y-92236000D01*
X129942334Y-89921392D02*
G75*
G03*
X126710001Y-89764485I-1672334J-1078608D01*
G01*
X129311129Y-89920164D02*
G75*
G03*
X127229040Y-89920001I-1041129J-1079836D01*
G01*
X127229040Y-92079999D02*
G75*
G03*
X129311129Y-92079836I1040960J1079999D01*
G01*
X126710001Y-92235515D02*
G75*
G03*
X129942334Y-92078608I1559999J1235515D01*
G01*
%TO.C,D17*%
X126710000Y-97764000D02*
X126710000Y-97920000D01*
X126710000Y-100080000D02*
X126710000Y-100236000D01*
X129942334Y-97921392D02*
G75*
G03*
X126710001Y-97764485I-1672334J-1078608D01*
G01*
X129311129Y-97920164D02*
G75*
G03*
X127229040Y-97920001I-1041129J-1079836D01*
G01*
X127229040Y-100079999D02*
G75*
G03*
X129311129Y-100079836I1040960J1079999D01*
G01*
X126710001Y-100235515D02*
G75*
G03*
X129942334Y-100078608I1559999J1235515D01*
G01*
%TO.C,R25*%
X136582867Y-38699999D02*
G75*
G03*
X136679905Y-37250642I417133J699999D01*
G01*
%TO.C,R23*%
X136582867Y-53699999D02*
G75*
G03*
X136679905Y-52250642I417133J699999D01*
G01*
%TO.C,R3*%
X102017133Y-105980001D02*
G75*
G03*
X101920095Y-107429358I-417133J-699999D01*
G01*
%TO.C,D22*%
X126710000Y-59724000D02*
X126710000Y-59880000D01*
X126710000Y-62040000D02*
X126710000Y-62196000D01*
X129942334Y-59881392D02*
G75*
G03*
X126710001Y-59724485I-1672334J-1078608D01*
G01*
X129311129Y-59880164D02*
G75*
G03*
X127229040Y-59880001I-1041129J-1079836D01*
G01*
X127229040Y-62039999D02*
G75*
G03*
X129311129Y-62039836I1040960J1079999D01*
G01*
X126710001Y-62195515D02*
G75*
G03*
X129942334Y-62038608I1559999J1235515D01*
G01*
%TO.C,R13*%
X102657133Y-29780001D02*
G75*
G03*
X102560095Y-31229358I-417133J-699999D01*
G01*
%TO.C,R4*%
X102017133Y-98360001D02*
G75*
G03*
X101920095Y-99809358I-417133J-699999D01*
G01*
%TO.C,D14*%
X126710000Y-120684000D02*
X126710000Y-120840000D01*
X126710000Y-123000000D02*
X126710000Y-123156000D01*
X129942334Y-120841392D02*
G75*
G03*
X126710001Y-120684485I-1672334J-1078608D01*
G01*
X129311129Y-120840164D02*
G75*
G03*
X127229040Y-120840001I-1041129J-1079836D01*
G01*
X127229040Y-122999999D02*
G75*
G03*
X129311129Y-122999836I1040960J1079999D01*
G01*
X126710001Y-123155515D02*
G75*
G03*
X129942334Y-122998608I1559999J1235515D01*
G01*
%TO.C,D7*%
X112050000Y-77436000D02*
X112050000Y-77280000D01*
X112050000Y-75120000D02*
X112050000Y-74964000D01*
X108817666Y-77278608D02*
G75*
G03*
X112049999Y-77435515I1672334J1078608D01*
G01*
X109448871Y-77279836D02*
G75*
G03*
X111530960Y-77279999I1041129J1079836D01*
G01*
X111530960Y-75120001D02*
G75*
G03*
X109448871Y-75120164I-1040960J-1079999D01*
G01*
X112049999Y-74964485D02*
G75*
G03*
X108817666Y-75121392I-1559999J-1235515D01*
G01*
D12*
%TO.C,J1*%
X177062500Y-92010000D02*
X190762500Y-92010000D01*
X177062500Y-92010000D02*
X177062500Y-55310000D01*
X177062500Y-55310000D02*
X190762500Y-55310000D01*
D13*
X169062500Y-59960000D02*
G75*
G03*
X169062500Y-59960000I-100000J0D01*
G01*
D11*
%TO.C,D25*%
X126710000Y-36764000D02*
X126710000Y-36920000D01*
X126710000Y-39080000D02*
X126710000Y-39236000D01*
X129942334Y-36921392D02*
G75*
G03*
X126710001Y-36764485I-1672334J-1078608D01*
G01*
X129311129Y-36920164D02*
G75*
G03*
X127229040Y-36920001I-1041129J-1079836D01*
G01*
X127229040Y-39079999D02*
G75*
G03*
X129311129Y-39079836I1040960J1079999D01*
G01*
X126710001Y-39235515D02*
G75*
G03*
X129942334Y-39078608I1559999J1235515D01*
G01*
%TO.C,D21*%
X126710000Y-67764000D02*
X126710000Y-67920000D01*
X126710000Y-70080000D02*
X126710000Y-70236000D01*
X129942334Y-67921392D02*
G75*
G03*
X126710001Y-67764485I-1672334J-1078608D01*
G01*
X129311129Y-67920164D02*
G75*
G03*
X127229040Y-67920001I-1041129J-1079836D01*
G01*
X127229040Y-70079999D02*
G75*
G03*
X129311129Y-70079836I1040960J1079999D01*
G01*
X126710001Y-70235515D02*
G75*
G03*
X129942334Y-70078608I1559999J1235515D01*
G01*
%TO.C,R15*%
X136582867Y-114699999D02*
G75*
G03*
X136679905Y-113250642I417133J699999D01*
G01*
%TO.C,R17*%
X136582867Y-99699999D02*
G75*
G03*
X136679905Y-98250642I417133J699999D01*
G01*
%TO.C,R12*%
X102657133Y-37400001D02*
G75*
G03*
X102560095Y-38849358I-417133J-699999D01*
G01*
%TO.C,D2*%
X112050000Y-115536000D02*
X112050000Y-115380000D01*
X112050000Y-113220000D02*
X112050000Y-113064000D01*
X108817666Y-115378608D02*
G75*
G03*
X112049999Y-115535515I1672334J1078608D01*
G01*
X109448871Y-115379836D02*
G75*
G03*
X111530960Y-115379999I1041129J1079836D01*
G01*
X111530960Y-113220001D02*
G75*
G03*
X109448871Y-113220164I-1040960J-1079999D01*
G01*
X112049999Y-113064485D02*
G75*
G03*
X108817666Y-113221392I-1559999J-1235515D01*
G01*
%TO.C,D15*%
X126710000Y-112764000D02*
X126710000Y-112920000D01*
X126710000Y-115080000D02*
X126710000Y-115236000D01*
X129942334Y-112921392D02*
G75*
G03*
X126710001Y-112764485I-1672334J-1078608D01*
G01*
X129311129Y-112920164D02*
G75*
G03*
X127229040Y-112920001I-1041129J-1079836D01*
G01*
X127229040Y-115079999D02*
G75*
G03*
X129311129Y-115079836I1040960J1079999D01*
G01*
X126710001Y-115235515D02*
G75*
G03*
X129942334Y-115078608I1559999J1235515D01*
G01*
%TO.C,R21*%
X136582867Y-69699999D02*
G75*
G03*
X136679905Y-68250642I417133J699999D01*
G01*
%TO.C,D20*%
X126710000Y-74964000D02*
X126710000Y-75120000D01*
X126710000Y-77280000D02*
X126710000Y-77436000D01*
X129942334Y-75121392D02*
G75*
G03*
X126710001Y-74964485I-1672334J-1078608D01*
G01*
X129311129Y-75120164D02*
G75*
G03*
X127229040Y-75120001I-1041129J-1079836D01*
G01*
X127229040Y-77279999D02*
G75*
G03*
X129311129Y-77279836I1040960J1079999D01*
G01*
X126710001Y-77435515D02*
G75*
G03*
X129942334Y-77278608I1559999J1235515D01*
G01*
%TO.C,R16*%
X136582867Y-107699999D02*
G75*
G03*
X136679905Y-106250642I417133J699999D01*
G01*
%TO.C,D19*%
X126710000Y-82764000D02*
X126710000Y-82920000D01*
X126710000Y-85080000D02*
X126710000Y-85236000D01*
X129942334Y-82921392D02*
G75*
G03*
X126710001Y-82764485I-1672334J-1078608D01*
G01*
X129311129Y-82920164D02*
G75*
G03*
X127229040Y-82920001I-1041129J-1079836D01*
G01*
X127229040Y-85079999D02*
G75*
G03*
X129311129Y-85079836I1040960J1079999D01*
G01*
X126710001Y-85235515D02*
G75*
G03*
X129942334Y-85078608I1559999J1235515D01*
G01*
%TO.C,R5*%
X102017133Y-90740001D02*
G75*
G03*
X101920095Y-92189358I-417133J-699999D01*
G01*
%TO.C,R20*%
X136582867Y-76699999D02*
G75*
G03*
X136679905Y-75250642I417133J699999D01*
G01*
%TO.C,R22*%
X136582867Y-61659999D02*
G75*
G03*
X136679905Y-60210642I417133J699999D01*
G01*
%TO.C,R26*%
X136582867Y-30699999D02*
G75*
G03*
X136679905Y-29250642I417133J699999D01*
G01*
%TO.C,R7*%
X102017133Y-75500001D02*
G75*
G03*
X101920095Y-76949358I-417133J-699999D01*
G01*
%TO.C,D23*%
X126710000Y-51764000D02*
X126710000Y-51920000D01*
X126710000Y-54080000D02*
X126710000Y-54236000D01*
X129942334Y-51921392D02*
G75*
G03*
X126710001Y-51764485I-1672334J-1078608D01*
G01*
X129311129Y-51920164D02*
G75*
G03*
X127229040Y-51920001I-1041129J-1079836D01*
G01*
X127229040Y-54079999D02*
G75*
G03*
X129311129Y-54079836I1040960J1079999D01*
G01*
X126710001Y-54235515D02*
G75*
G03*
X129942334Y-54078608I1559999J1235515D01*
G01*
%TO.C,R11*%
X102657133Y-45020001D02*
G75*
G03*
X102560095Y-46469358I-417133J-699999D01*
G01*
%TO.C,R2*%
X102017133Y-113600001D02*
G75*
G03*
X101920095Y-115049358I-417133J-699999D01*
G01*
%TO.C,R9*%
X102657133Y-60260001D02*
G75*
G03*
X102560095Y-61709358I-417133J-699999D01*
G01*
%TO.C,R24*%
X136582867Y-46699999D02*
G75*
G03*
X136679905Y-45250642I417133J699999D01*
G01*
%TO.C,D9*%
X112050000Y-62196000D02*
X112050000Y-62040000D01*
X112050000Y-59880000D02*
X112050000Y-59724000D01*
X108817666Y-62038608D02*
G75*
G03*
X112049999Y-62195515I1672334J1078608D01*
G01*
X109448871Y-62039836D02*
G75*
G03*
X111530960Y-62039999I1041129J1079836D01*
G01*
X111530960Y-59880001D02*
G75*
G03*
X109448871Y-59880164I-1040960J-1079999D01*
G01*
X112049999Y-59724485D02*
G75*
G03*
X108817666Y-59881392I-1559999J-1235515D01*
G01*
%TO.C,D13*%
X112050000Y-31716000D02*
X112050000Y-31560000D01*
X112050000Y-29400000D02*
X112050000Y-29244000D01*
X108817666Y-31558608D02*
G75*
G03*
X112049999Y-31715515I1672334J1078608D01*
G01*
X109448871Y-31559836D02*
G75*
G03*
X111530960Y-31559999I1041129J1079836D01*
G01*
X111530960Y-29400001D02*
G75*
G03*
X109448871Y-29400164I-1040960J-1079999D01*
G01*
X112049999Y-29244485D02*
G75*
G03*
X108817666Y-29401392I-1559999J-1235515D01*
G01*
%TO.C,D16*%
X126710000Y-105764000D02*
X126710000Y-105920000D01*
X126710000Y-108080000D02*
X126710000Y-108236000D01*
X129942334Y-105921392D02*
G75*
G03*
X126710001Y-105764485I-1672334J-1078608D01*
G01*
X129311129Y-105920164D02*
G75*
G03*
X127229040Y-105920001I-1041129J-1079836D01*
G01*
X127229040Y-108079999D02*
G75*
G03*
X129311129Y-108079836I1040960J1079999D01*
G01*
X126710001Y-108235515D02*
G75*
G03*
X129942334Y-108078608I1559999J1235515D01*
G01*
%TO.C,R8*%
X102657133Y-67620001D02*
G75*
G03*
X102560095Y-69069358I-417133J-699999D01*
G01*
%TO.C,R14*%
X136582867Y-122619999D02*
G75*
G03*
X136679905Y-121170642I417133J699999D01*
G01*
%TD*%
M02*
