%TF.GenerationSoftware,KiCad,Pcbnew,7.0.7*%
%TF.CreationDate,2023-08-22T14:12:51-05:00*%
%TF.ProjectId,O2 thermistor cable,4f322074-6865-4726-9d69-73746f722063,0*%
%TF.SameCoordinates,Original*%
%TF.FileFunction,Copper,L2,Bot*%
%TF.FilePolarity,Positive*%
%FSLAX46Y46*%
G04 Gerber Fmt 4.6, Leading zero omitted, Abs format (unit mm)*
G04 Created by KiCad (PCBNEW 7.0.7) date 2023-08-22 14:12:51*
%MOMM*%
%LPD*%
G01*
G04 APERTURE LIST*
%TA.AperFunction,ComponentPad*%
%ADD10R,4.600000X2.000000*%
%TD*%
%TA.AperFunction,ComponentPad*%
%ADD11O,4.200000X2.000000*%
%TD*%
%TA.AperFunction,ComponentPad*%
%ADD12O,2.000000X4.200000*%
%TD*%
%TA.AperFunction,ComponentPad*%
%ADD13R,1.800000X1.800000*%
%TD*%
%TA.AperFunction,ComponentPad*%
%ADD14C,1.800000*%
%TD*%
%TA.AperFunction,ComponentPad*%
%ADD15C,1.400000*%
%TD*%
%TA.AperFunction,ComponentPad*%
%ADD16O,1.400000X1.400000*%
%TD*%
%TA.AperFunction,ComponentPad*%
%ADD17R,1.650000X1.650000*%
%TD*%
%TA.AperFunction,ComponentPad*%
%ADD18C,1.650000*%
%TD*%
%TA.AperFunction,ViaPad*%
%ADD19C,0.600000*%
%TD*%
%TA.AperFunction,Conductor*%
%ADD20C,0.200000*%
%TD*%
G04 APERTURE END LIST*
D10*
%TO.P,J3,1*%
%TO.N,+5V*%
X119350000Y-134650000D03*
D11*
%TO.P,J3,2*%
%TO.N,GND*%
X119350000Y-140950000D03*
D12*
%TO.P,J3,3*%
%TO.N,N/C*%
X124150000Y-137550000D03*
%TD*%
D13*
%TO.P,D26,1,K*%
%TO.N,GND*%
X127000000Y-30000000D03*
D14*
%TO.P,D26,2,A*%
%TO.N,Net-(D26-A)*%
X129540000Y-30000000D03*
%TD*%
D15*
%TO.P,R6,1*%
%TO.N,Thermistor 7*%
X101600000Y-84070000D03*
D16*
%TO.P,R6,2*%
%TO.N,Net-(D6-A)*%
X103500000Y-84070000D03*
%TD*%
D15*
%TO.P,R19,1*%
%TO.N,Thermistor Ground 3*%
X137000000Y-84000000D03*
D16*
%TO.P,R19,2*%
%TO.N,Net-(D19-A)*%
X135100000Y-84000000D03*
%TD*%
D13*
%TO.P,D24,1,K*%
%TO.N,GND*%
X127000000Y-46000000D03*
D14*
%TO.P,D24,2,A*%
%TO.N,Net-(D24-A)*%
X129540000Y-46000000D03*
%TD*%
D13*
%TO.P,D11,1,K*%
%TO.N,GND*%
X111760000Y-45720000D03*
D14*
%TO.P,D11,2,A*%
%TO.N,Net-(D11-A)*%
X109220000Y-45720000D03*
%TD*%
D13*
%TO.P,D3,1,K*%
%TO.N,GND*%
X111760000Y-106680000D03*
D14*
%TO.P,D3,2,A*%
%TO.N,Net-(D3-A)*%
X109220000Y-106680000D03*
%TD*%
D17*
%TO.P,J2,1,1*%
%TO.N,Remote 1+*%
X63300000Y-87410000D03*
D18*
%TO.P,J2,2,2*%
%TO.N,Remote 1-*%
X63300000Y-85210000D03*
%TO.P,J2,3,3*%
%TO.N,Remote 2+*%
X63300000Y-83010000D03*
%TO.P,J2,4,4*%
%TO.N,Remote 2-*%
X63300000Y-80810000D03*
%TO.P,J2,5,5*%
%TO.N,Thermistor 8*%
X63300000Y-78610000D03*
%TO.P,J2,6,6*%
%TO.N,Thermistor 7*%
X63300000Y-76410000D03*
%TO.P,J2,7,7*%
%TO.N,Thermistor 6*%
X63300000Y-74210000D03*
%TO.P,J2,8,8*%
%TO.N,Thermistor 5*%
X63300000Y-72010000D03*
%TO.P,J2,9,9*%
%TO.N,Thermistor 4*%
X63300000Y-69810000D03*
%TO.P,J2,10,10*%
%TO.N,Thermistor 3*%
X63300000Y-67610000D03*
%TO.P,J2,11,11*%
%TO.N,Thermistor 2*%
X63300000Y-65410000D03*
%TO.P,J2,12,12*%
%TO.N,Thermistor 1*%
X63300000Y-63210000D03*
%TO.P,J2,13,13*%
%TO.N,Current High Channel*%
X63300000Y-61010000D03*
%TO.P,J2,14,14*%
%TO.N,Current Low Channel*%
X63300000Y-58810000D03*
%TO.P,J2,15,15*%
%TO.N,unconnected-(J2-Pad15)*%
X59800000Y-88510000D03*
%TO.P,J2,16,16*%
%TO.N,unconnected-(J2-Pad16)*%
X59800000Y-86310000D03*
%TO.P,J2,17,17*%
%TO.N,Remote 1 Shield*%
X59800000Y-84110000D03*
%TO.P,J2,18,18*%
%TO.N,Remote 2 Shield*%
X59800000Y-81910000D03*
%TO.P,J2,19,19*%
%TO.N,Thermistor Ground 1*%
X59800000Y-79710000D03*
%TO.P,J2,20,20*%
%TO.N,Thermistor Ground 2*%
X59800000Y-77510000D03*
%TO.P,J2,21,21*%
%TO.N,Thermistor Ground 3*%
X59800000Y-75310000D03*
%TO.P,J2,22,22*%
%TO.N,Thermistor Ground 4*%
X59800000Y-73110000D03*
%TO.P,J2,23,23*%
%TO.N,Thermistor Ground 5*%
X59800000Y-70910000D03*
%TO.P,J2,24,24*%
%TO.N,Thermistor Ground 6*%
X59800000Y-68710000D03*
%TO.P,J2,25,25*%
%TO.N,Thermistor Ground 7*%
X59800000Y-66510000D03*
%TO.P,J2,26,26*%
%TO.N,Thermistor Ground 8*%
X59800000Y-64310000D03*
%TO.P,J2,27,27*%
%TO.N,Current Ground*%
X59800000Y-62110000D03*
%TO.P,J2,28,28*%
%TO.N,Current Sensor PWR (+5V)*%
X59800000Y-59910000D03*
%TD*%
D13*
%TO.P,D12,1,K*%
%TO.N,GND*%
X111760000Y-38100000D03*
D14*
%TO.P,D12,2,A*%
%TO.N,Net-(D12-A)*%
X109220000Y-38100000D03*
%TD*%
D15*
%TO.P,R1,1*%
%TO.N,Remote 1+*%
X101600000Y-121920000D03*
D16*
%TO.P,R1,2*%
%TO.N,Net-(D1-A)*%
X103500000Y-121920000D03*
%TD*%
D13*
%TO.P,D8,1,K*%
%TO.N,GND*%
X111760000Y-68580000D03*
D14*
%TO.P,D8,2,A*%
%TO.N,Net-(D8-A)*%
X109220000Y-68580000D03*
%TD*%
D13*
%TO.P,D4,1,K*%
%TO.N,GND*%
X111760000Y-99060000D03*
D14*
%TO.P,D4,2,A*%
%TO.N,Net-(D4-A)*%
X109220000Y-99060000D03*
%TD*%
D15*
%TO.P,R18,1*%
%TO.N,Thermistor Ground 2*%
X137000000Y-91000000D03*
D16*
%TO.P,R18,2*%
%TO.N,Net-(D18-A)*%
X135100000Y-91000000D03*
%TD*%
D15*
%TO.P,R10,1*%
%TO.N,Thermistor 3*%
X102240000Y-53340000D03*
D16*
%TO.P,R10,2*%
%TO.N,Net-(D10-A)*%
X104140000Y-53340000D03*
%TD*%
D13*
%TO.P,D1,1,K*%
%TO.N,GND*%
X111760000Y-121920000D03*
D14*
%TO.P,D1,2,A*%
%TO.N,Net-(D1-A)*%
X109220000Y-121920000D03*
%TD*%
D13*
%TO.P,D6,1,K*%
%TO.N,GND*%
X111760000Y-83820000D03*
D14*
%TO.P,D6,2,A*%
%TO.N,Net-(D6-A)*%
X109220000Y-83820000D03*
%TD*%
D13*
%TO.P,D5,1,K*%
%TO.N,GND*%
X111760000Y-91440000D03*
D14*
%TO.P,D5,2,A*%
%TO.N,Net-(D5-A)*%
X109220000Y-91440000D03*
%TD*%
D13*
%TO.P,D10,1,K*%
%TO.N,GND*%
X111760000Y-53340000D03*
D14*
%TO.P,D10,2,A*%
%TO.N,Net-(D10-A)*%
X109220000Y-53340000D03*
%TD*%
D13*
%TO.P,D18,1,K*%
%TO.N,GND*%
X127000000Y-91000000D03*
D14*
%TO.P,D18,2,A*%
%TO.N,Net-(D18-A)*%
X129540000Y-91000000D03*
%TD*%
D13*
%TO.P,D17,1,K*%
%TO.N,GND*%
X127000000Y-99000000D03*
D14*
%TO.P,D17,2,A*%
%TO.N,Net-(D17-A)*%
X129540000Y-99000000D03*
%TD*%
D15*
%TO.P,R25,1*%
%TO.N,Current Ground*%
X137000000Y-38000000D03*
D16*
%TO.P,R25,2*%
%TO.N,Net-(D25-A)*%
X135100000Y-38000000D03*
%TD*%
D15*
%TO.P,R23,1*%
%TO.N,Thermistor Ground 7*%
X137000000Y-53000000D03*
D16*
%TO.P,R23,2*%
%TO.N,Net-(D23-A)*%
X135100000Y-53000000D03*
%TD*%
D15*
%TO.P,R3,1*%
%TO.N,Remote 2+*%
X101600000Y-106680000D03*
D16*
%TO.P,R3,2*%
%TO.N,Net-(D3-A)*%
X103500000Y-106680000D03*
%TD*%
D13*
%TO.P,D22,1,K*%
%TO.N,GND*%
X127000000Y-60960000D03*
D14*
%TO.P,D22,2,A*%
%TO.N,Net-(D22-A)*%
X129540000Y-60960000D03*
%TD*%
D15*
%TO.P,R13,1*%
%TO.N,Current High Channel*%
X102240000Y-30480000D03*
D16*
%TO.P,R13,2*%
%TO.N,Net-(D13-A)*%
X104140000Y-30480000D03*
%TD*%
D15*
%TO.P,R4,1*%
%TO.N,Remote 2-*%
X101600000Y-99060000D03*
D16*
%TO.P,R4,2*%
%TO.N,Net-(D4-A)*%
X103500000Y-99060000D03*
%TD*%
D13*
%TO.P,D14,1,K*%
%TO.N,GND*%
X127000000Y-121920000D03*
D14*
%TO.P,D14,2,A*%
%TO.N,Net-(D14-A)*%
X129540000Y-121920000D03*
%TD*%
D13*
%TO.P,D7,1,K*%
%TO.N,GND*%
X111760000Y-76200000D03*
D14*
%TO.P,D7,2,A*%
%TO.N,Net-(D7-A)*%
X109220000Y-76200000D03*
%TD*%
D17*
%TO.P,J1,1,1*%
%TO.N,+5V*%
X170762500Y-59910000D03*
D18*
%TO.P,J1,2,2*%
X170762500Y-62110000D03*
%TO.P,J1,3,3*%
X170762500Y-64310000D03*
%TO.P,J1,4,4*%
X170762500Y-66510000D03*
%TO.P,J1,5,5*%
X170762500Y-68710000D03*
%TO.P,J1,6,6*%
X170762500Y-70910000D03*
%TO.P,J1,7,7*%
X170762500Y-73110000D03*
%TO.P,J1,8,8*%
X170762500Y-75310000D03*
%TO.P,J1,9,9*%
X170762500Y-77510000D03*
%TO.P,J1,10,10*%
X170762500Y-79710000D03*
%TO.P,J1,11,11*%
X170762500Y-81910000D03*
%TO.P,J1,12,12*%
X170762500Y-84110000D03*
%TO.P,J1,13,13*%
X170762500Y-86310000D03*
%TO.P,J1,14,14*%
X170762500Y-88510000D03*
%TO.P,J1,15,15*%
%TO.N,unconnected-(J1-Pad15)*%
X174262500Y-58810000D03*
%TO.P,J1,16,16*%
%TO.N,unconnected-(J1-Pad16)*%
X174262500Y-61010000D03*
%TO.P,J1,17,17*%
%TO.N,+5V*%
X174262500Y-63210000D03*
%TO.P,J1,18,18*%
X174262500Y-65410000D03*
%TO.P,J1,19,19*%
X174262500Y-67610000D03*
%TO.P,J1,20,20*%
X174262500Y-69810000D03*
%TO.P,J1,21,21*%
X174262500Y-72010000D03*
%TO.P,J1,22,22*%
X174262500Y-74210000D03*
%TO.P,J1,23,23*%
X174262500Y-76410000D03*
%TO.P,J1,24,24*%
X174262500Y-78610000D03*
%TO.P,J1,25,25*%
X174262500Y-80810000D03*
%TO.P,J1,26,26*%
X174262500Y-83010000D03*
%TO.P,J1,27,27*%
X174262500Y-85210000D03*
%TO.P,J1,28,28*%
X174262500Y-87410000D03*
%TD*%
D13*
%TO.P,D25,1,K*%
%TO.N,GND*%
X127000000Y-38000000D03*
D14*
%TO.P,D25,2,A*%
%TO.N,Net-(D25-A)*%
X129540000Y-38000000D03*
%TD*%
D13*
%TO.P,D21,1,K*%
%TO.N,GND*%
X127000000Y-69000000D03*
D14*
%TO.P,D21,2,A*%
%TO.N,Net-(D21-A)*%
X129540000Y-69000000D03*
%TD*%
D15*
%TO.P,R15,1*%
%TO.N,Remote 1 Shield*%
X137000000Y-114000000D03*
D16*
%TO.P,R15,2*%
%TO.N,Net-(D15-A)*%
X135100000Y-114000000D03*
%TD*%
D15*
%TO.P,R17,1*%
%TO.N,Thermistor Ground 1*%
X137000000Y-99000000D03*
D16*
%TO.P,R17,2*%
%TO.N,Net-(D17-A)*%
X135100000Y-99000000D03*
%TD*%
D15*
%TO.P,R12,1*%
%TO.N,Thermistor 1*%
X102240000Y-38100000D03*
D16*
%TO.P,R12,2*%
%TO.N,Net-(D12-A)*%
X104140000Y-38100000D03*
%TD*%
D13*
%TO.P,D2,1,K*%
%TO.N,GND*%
X111760000Y-114300000D03*
D14*
%TO.P,D2,2,A*%
%TO.N,Net-(D2-A)*%
X109220000Y-114300000D03*
%TD*%
D13*
%TO.P,D15,1,K*%
%TO.N,GND*%
X127000000Y-114000000D03*
D14*
%TO.P,D15,2,A*%
%TO.N,Net-(D15-A)*%
X129540000Y-114000000D03*
%TD*%
D15*
%TO.P,R21,1*%
%TO.N,Thermistor Ground 5*%
X137000000Y-69000000D03*
D16*
%TO.P,R21,2*%
%TO.N,Net-(D21-A)*%
X135100000Y-69000000D03*
%TD*%
D13*
%TO.P,D20,1,K*%
%TO.N,GND*%
X127000000Y-76200000D03*
D14*
%TO.P,D20,2,A*%
%TO.N,Net-(D20-A)*%
X129540000Y-76200000D03*
%TD*%
D15*
%TO.P,R16,1*%
%TO.N,Remote 2 Shield*%
X137000000Y-107000000D03*
D16*
%TO.P,R16,2*%
%TO.N,Net-(D16-A)*%
X135100000Y-107000000D03*
%TD*%
D13*
%TO.P,D19,1,K*%
%TO.N,GND*%
X127000000Y-84000000D03*
D14*
%TO.P,D19,2,A*%
%TO.N,Net-(D19-A)*%
X129540000Y-84000000D03*
%TD*%
D15*
%TO.P,R5,1*%
%TO.N,Thermistor 8*%
X101600000Y-91440000D03*
D16*
%TO.P,R5,2*%
%TO.N,Net-(D5-A)*%
X103500000Y-91440000D03*
%TD*%
D15*
%TO.P,R20,1*%
%TO.N,Thermistor Ground 4*%
X137000000Y-76000000D03*
D16*
%TO.P,R20,2*%
%TO.N,Net-(D20-A)*%
X135100000Y-76000000D03*
%TD*%
D15*
%TO.P,R22,1*%
%TO.N,Thermistor Ground 6*%
X137000000Y-60960000D03*
D16*
%TO.P,R22,2*%
%TO.N,Net-(D22-A)*%
X135100000Y-60960000D03*
%TD*%
D15*
%TO.P,R26,1*%
%TO.N,Current Sensor PWR (+5V)*%
X137000000Y-30000000D03*
D16*
%TO.P,R26,2*%
%TO.N,Net-(D26-A)*%
X135100000Y-30000000D03*
%TD*%
D15*
%TO.P,R7,1*%
%TO.N,Thermistor 6*%
X101600000Y-76200000D03*
D16*
%TO.P,R7,2*%
%TO.N,Net-(D7-A)*%
X103500000Y-76200000D03*
%TD*%
D13*
%TO.P,D23,1,K*%
%TO.N,GND*%
X127000000Y-53000000D03*
D14*
%TO.P,D23,2,A*%
%TO.N,Net-(D23-A)*%
X129540000Y-53000000D03*
%TD*%
D15*
%TO.P,R11,1*%
%TO.N,Thermistor 2*%
X102240000Y-45720000D03*
D16*
%TO.P,R11,2*%
%TO.N,Net-(D11-A)*%
X104140000Y-45720000D03*
%TD*%
D15*
%TO.P,R2,1*%
%TO.N,Remote 1-*%
X101600000Y-114300000D03*
D16*
%TO.P,R2,2*%
%TO.N,Net-(D2-A)*%
X103500000Y-114300000D03*
%TD*%
D15*
%TO.P,R9,1*%
%TO.N,Thermistor 4*%
X102240000Y-60960000D03*
D16*
%TO.P,R9,2*%
%TO.N,Net-(D9-A)*%
X104140000Y-60960000D03*
%TD*%
D15*
%TO.P,R24,1*%
%TO.N,Thermistor Ground 8*%
X137000000Y-46000000D03*
D16*
%TO.P,R24,2*%
%TO.N,Net-(D24-A)*%
X135100000Y-46000000D03*
%TD*%
D13*
%TO.P,D9,1,K*%
%TO.N,GND*%
X111760000Y-60960000D03*
D14*
%TO.P,D9,2,A*%
%TO.N,Net-(D9-A)*%
X109220000Y-60960000D03*
%TD*%
D13*
%TO.P,D13,1,K*%
%TO.N,GND*%
X111760000Y-30480000D03*
D14*
%TO.P,D13,2,A*%
%TO.N,Net-(D13-A)*%
X109220000Y-30480000D03*
%TD*%
D13*
%TO.P,D16,1,K*%
%TO.N,GND*%
X127000000Y-107000000D03*
D14*
%TO.P,D16,2,A*%
%TO.N,Net-(D16-A)*%
X129540000Y-107000000D03*
%TD*%
D15*
%TO.P,R8,1*%
%TO.N,Thermistor 5*%
X102240000Y-68320000D03*
D16*
%TO.P,R8,2*%
%TO.N,Net-(D8-A)*%
X104140000Y-68320000D03*
%TD*%
D15*
%TO.P,R14,1*%
%TO.N,Current Low Channel*%
X137000000Y-121920000D03*
D16*
%TO.P,R14,2*%
%TO.N,Net-(D14-A)*%
X135100000Y-121920000D03*
%TD*%
D19*
%TO.N,Current Low Channel*%
X117000000Y-113000000D03*
X117000000Y-57000000D03*
X70000000Y-57000000D03*
X117000000Y-115000000D03*
%TO.N,Current Ground*%
X139000000Y-38000000D03*
X80000000Y-46000000D03*
%TO.N,Thermistor Ground 8*%
X139000000Y-46000000D03*
X80000000Y-48000000D03*
%TO.N,Thermistor Ground 7*%
X80000000Y-50000000D03*
X139000000Y-53000000D03*
%TO.N,Thermistor Ground 6*%
X139000000Y-61000000D03*
X64000000Y-94000000D03*
%TO.N,Thermistor Ground 5*%
X63000000Y-94000000D03*
%TO.N,Thermistor Ground 4*%
X62000000Y-94000000D03*
%TO.N,Thermistor Ground 3*%
X139000000Y-84000000D03*
X61000000Y-94000000D03*
%TO.N,Thermistor Ground 2*%
X139000000Y-91000000D03*
X77000000Y-106000000D03*
%TO.N,Thermistor Ground 1*%
X132000000Y-102000000D03*
X75000000Y-105000000D03*
%TO.N,Remote 2 Shield*%
X139000000Y-107000000D03*
X90000000Y-116000000D03*
%TO.N,Remote 1 Shield*%
X90000000Y-114000000D03*
X138000000Y-110000000D03*
%TO.N,Current Sensor PWR (+5V)*%
X80000000Y-44000000D03*
X139000000Y-30000000D03*
%TD*%
D20*
%TO.N,GND*%
X111760000Y-133360000D02*
X119350000Y-140950000D01*
X111760000Y-121920000D02*
X111760000Y-133360000D01*
%TO.N,Current Low Channel*%
X117000000Y-113000000D02*
X117000000Y-115000000D01*
X70000000Y-57000000D02*
X117000000Y-57000000D01*
%TO.N,Current Ground*%
X59140000Y-62110000D02*
X59140000Y-61895000D01*
X86700000Y-39300000D02*
X137700000Y-39300000D01*
X80000000Y-46000000D02*
X86700000Y-39300000D01*
X137700000Y-39300000D02*
X139000000Y-38000000D01*
%TO.N,Thermistor Ground 8*%
X137000000Y-48000000D02*
X139000000Y-46000000D01*
X80000000Y-48000000D02*
X137000000Y-48000000D01*
%TO.N,Thermistor Ground 7*%
X136000000Y-50000000D02*
X139000000Y-53000000D01*
X80000000Y-50000000D02*
X136000000Y-50000000D01*
%TO.N,Thermistor Ground 6*%
X137840000Y-62160000D02*
X139000000Y-61000000D01*
X64000000Y-94000000D02*
X95840000Y-62160000D01*
X95840000Y-62160000D02*
X137840000Y-62160000D01*
%TO.N,Thermistor Ground 5*%
X113400000Y-94600000D02*
X63600000Y-94600000D01*
X137000000Y-71000000D02*
X113400000Y-94600000D01*
X137000000Y-69000000D02*
X137000000Y-71000000D01*
X63600000Y-94600000D02*
X63000000Y-94000000D01*
%TO.N,Thermistor Ground 4*%
X62000000Y-94000000D02*
X63000000Y-95000000D01*
X139000000Y-78000000D02*
X137000000Y-76000000D01*
X133000000Y-91000000D02*
X133000000Y-80000000D01*
X139000000Y-80000000D02*
X139000000Y-78000000D01*
X133000000Y-80000000D02*
X139000000Y-80000000D01*
X63000000Y-95000000D02*
X129000000Y-95000000D01*
X129000000Y-95000000D02*
X133000000Y-91000000D01*
%TO.N,Thermistor Ground 3*%
X139000000Y-85565686D02*
X139000000Y-84000000D01*
X129165686Y-95400000D02*
X139000000Y-85565686D01*
X61000000Y-94000000D02*
X62400000Y-95400000D01*
X62400000Y-95400000D02*
X129165686Y-95400000D01*
%TO.N,Thermistor Ground 2*%
X118000000Y-104000000D02*
X126200000Y-95800000D01*
X134200000Y-95800000D02*
X139000000Y-91000000D01*
X79000000Y-104000000D02*
X118000000Y-104000000D01*
X77000000Y-106000000D02*
X79000000Y-104000000D01*
X126200000Y-95800000D02*
X134200000Y-95800000D01*
%TO.N,Thermistor Ground 1*%
X75000000Y-105000000D02*
X76248529Y-106248529D01*
X123000000Y-102000000D02*
X132000000Y-102000000D01*
X76751471Y-106600000D02*
X77248529Y-106600000D01*
X77248529Y-106600000D02*
X79448529Y-104400000D01*
X76400000Y-106248529D02*
X76751471Y-106600000D01*
X79448529Y-104400000D02*
X120600000Y-104400000D01*
X120600000Y-104400000D02*
X123000000Y-102000000D01*
X76248529Y-106248529D02*
X76400000Y-106248529D01*
%TO.N,Remote 2 Shield*%
X122600000Y-116000000D02*
X127600000Y-111000000D01*
X139000000Y-111000000D02*
X139000000Y-107000000D01*
X59140000Y-81910000D02*
X59090000Y-81910000D01*
X127600000Y-111000000D02*
X139000000Y-111000000D01*
X90000000Y-116000000D02*
X122600000Y-116000000D01*
%TO.N,Remote 1 Shield*%
X94000000Y-110000000D02*
X90000000Y-114000000D01*
X138000000Y-110000000D02*
X94000000Y-110000000D01*
%TO.N,Current Sensor PWR (+5V)*%
X80000000Y-44000000D02*
X95200000Y-28800000D01*
X95200000Y-28800000D02*
X137800000Y-28800000D01*
X137800000Y-28800000D02*
X139000000Y-30000000D01*
%TD*%
M02*
