%TF.GenerationSoftware,KiCad,Pcbnew,7.0.7*%
%TF.CreationDate,2023-08-22T14:13:43-05:00*%
%TF.ProjectId,O2 thermistor cable,4f322074-6865-4726-9d69-73746f722063,0*%
%TF.SameCoordinates,Original*%
%TF.FileFunction,Drillmap*%
%TF.FilePolarity,Positive*%
%FSLAX45Y45*%
G04 Gerber Fmt 4.5, Leading zero omitted, Abs format (unit mm)*
G04 Created by KiCad (PCBNEW 7.0.7) date 2023-08-22 14:13:43*
%MOMM*%
%LPD*%
G01*
G04 APERTURE LIST*
%ADD10C,0.050000*%
%ADD11C,0.200000*%
%ADD12C,0.030000*%
%ADD13C,0.070000*%
%ADD14C,0.090000*%
%ADD15C,0.100000*%
%ADD16C,0.110000*%
G04 APERTURE END LIST*
D10*
X4300000Y-2400000D02*
X19100000Y-2400000D01*
X19100000Y-14900000D01*
X4300000Y-14900000D01*
X4300000Y-2400000D01*
D11*
D12*
X6085000Y-9385000D02*
X6115000Y-9415000D01*
X6115000Y-9385000D02*
X6085000Y-9415000D01*
X6185000Y-9385000D02*
X6215000Y-9415000D01*
X6215000Y-9385000D02*
X6185000Y-9415000D01*
X6285000Y-9385000D02*
X6315000Y-9415000D01*
X6315000Y-9385000D02*
X6285000Y-9415000D01*
X6385000Y-9385000D02*
X6415000Y-9415000D01*
X6415000Y-9385000D02*
X6385000Y-9415000D01*
X6985000Y-5685000D02*
X7015000Y-5715000D01*
X7015000Y-5685000D02*
X6985000Y-5715000D01*
X7485000Y-10485000D02*
X7515000Y-10515000D01*
X7515000Y-10485000D02*
X7485000Y-10515000D01*
X7685000Y-10585000D02*
X7715000Y-10615000D01*
X7715000Y-10585000D02*
X7685000Y-10615000D01*
X7985000Y-4385000D02*
X8015000Y-4415000D01*
X8015000Y-4385000D02*
X7985000Y-4415000D01*
X7985000Y-4585000D02*
X8015000Y-4615000D01*
X8015000Y-4585000D02*
X7985000Y-4615000D01*
X7985000Y-4785000D02*
X8015000Y-4815000D01*
X8015000Y-4785000D02*
X7985000Y-4815000D01*
X7985000Y-4985000D02*
X8015000Y-5015000D01*
X8015000Y-4985000D02*
X7985000Y-5015000D01*
X8985000Y-11385000D02*
X9015000Y-11415000D01*
X9015000Y-11385000D02*
X8985000Y-11415000D01*
X8985000Y-11585000D02*
X9015000Y-11615000D01*
X9015000Y-11585000D02*
X8985000Y-11615000D01*
X11685000Y-5685000D02*
X11715000Y-5715000D01*
X11715000Y-5685000D02*
X11685000Y-5715000D01*
X11685000Y-11285000D02*
X11715000Y-11315000D01*
X11715000Y-11285000D02*
X11685000Y-11315000D01*
X11685000Y-11485000D02*
X11715000Y-11515000D01*
X11715000Y-11485000D02*
X11685000Y-11515000D01*
X13185000Y-10185000D02*
X13215000Y-10215000D01*
X13215000Y-10185000D02*
X13185000Y-10215000D01*
X13785000Y-10985000D02*
X13815000Y-11015000D01*
X13815000Y-10985000D02*
X13785000Y-11015000D01*
X13885000Y-2985000D02*
X13915000Y-3015000D01*
X13915000Y-2985000D02*
X13885000Y-3015000D01*
X13885000Y-3785000D02*
X13915000Y-3815000D01*
X13915000Y-3785000D02*
X13885000Y-3815000D01*
X13885000Y-4585000D02*
X13915000Y-4615000D01*
X13915000Y-4585000D02*
X13885000Y-4615000D01*
X13885000Y-5285000D02*
X13915000Y-5315000D01*
X13915000Y-5285000D02*
X13885000Y-5315000D01*
X13885000Y-6085000D02*
X13915000Y-6115000D01*
X13915000Y-6085000D02*
X13885000Y-6115000D01*
X13885000Y-8385000D02*
X13915000Y-8415000D01*
X13915000Y-8385000D02*
X13885000Y-8415000D01*
X13885000Y-9085000D02*
X13915000Y-9115000D01*
X13915000Y-9085000D02*
X13885000Y-9115000D01*
X13885000Y-10685000D02*
X13915000Y-10715000D01*
X13915000Y-10685000D02*
X13885000Y-10715000D01*
D13*
X10195000Y-7620000D02*
G75*
G03*
X10195000Y-7620000I-35000J0D01*
G01*
X10195000Y-8407000D02*
G75*
G03*
X10195000Y-8407000I-35000J0D01*
G01*
X10195000Y-9144000D02*
G75*
G03*
X10195000Y-9144000I-35000J0D01*
G01*
X10195000Y-9906000D02*
G75*
G03*
X10195000Y-9906000I-35000J0D01*
G01*
X10195000Y-10668000D02*
G75*
G03*
X10195000Y-10668000I-35000J0D01*
G01*
X10195000Y-11430000D02*
G75*
G03*
X10195000Y-11430000I-35000J0D01*
G01*
X10195000Y-12192000D02*
G75*
G03*
X10195000Y-12192000I-35000J0D01*
G01*
X10259000Y-3048000D02*
G75*
G03*
X10259000Y-3048000I-35000J0D01*
G01*
X10259000Y-3810000D02*
G75*
G03*
X10259000Y-3810000I-35000J0D01*
G01*
X10259000Y-4572000D02*
G75*
G03*
X10259000Y-4572000I-35000J0D01*
G01*
X10259000Y-5334000D02*
G75*
G03*
X10259000Y-5334000I-35000J0D01*
G01*
X10259000Y-6096000D02*
G75*
G03*
X10259000Y-6096000I-35000J0D01*
G01*
X10259000Y-6832000D02*
G75*
G03*
X10259000Y-6832000I-35000J0D01*
G01*
X10385000Y-7620000D02*
G75*
G03*
X10385000Y-7620000I-35000J0D01*
G01*
X10385000Y-8407000D02*
G75*
G03*
X10385000Y-8407000I-35000J0D01*
G01*
X10385000Y-9144000D02*
G75*
G03*
X10385000Y-9144000I-35000J0D01*
G01*
X10385000Y-9906000D02*
G75*
G03*
X10385000Y-9906000I-35000J0D01*
G01*
X10385000Y-10668000D02*
G75*
G03*
X10385000Y-10668000I-35000J0D01*
G01*
X10385000Y-11430000D02*
G75*
G03*
X10385000Y-11430000I-35000J0D01*
G01*
X10385000Y-12192000D02*
G75*
G03*
X10385000Y-12192000I-35000J0D01*
G01*
X10449000Y-3048000D02*
G75*
G03*
X10449000Y-3048000I-35000J0D01*
G01*
X10449000Y-3810000D02*
G75*
G03*
X10449000Y-3810000I-35000J0D01*
G01*
X10449000Y-4572000D02*
G75*
G03*
X10449000Y-4572000I-35000J0D01*
G01*
X10449000Y-5334000D02*
G75*
G03*
X10449000Y-5334000I-35000J0D01*
G01*
X10449000Y-6096000D02*
G75*
G03*
X10449000Y-6096000I-35000J0D01*
G01*
X10449000Y-6832000D02*
G75*
G03*
X10449000Y-6832000I-35000J0D01*
G01*
X13545000Y-3000000D02*
G75*
G03*
X13545000Y-3000000I-35000J0D01*
G01*
X13545000Y-3800000D02*
G75*
G03*
X13545000Y-3800000I-35000J0D01*
G01*
X13545000Y-4600000D02*
G75*
G03*
X13545000Y-4600000I-35000J0D01*
G01*
X13545000Y-5300000D02*
G75*
G03*
X13545000Y-5300000I-35000J0D01*
G01*
X13545000Y-6096000D02*
G75*
G03*
X13545000Y-6096000I-35000J0D01*
G01*
X13545000Y-6900000D02*
G75*
G03*
X13545000Y-6900000I-35000J0D01*
G01*
X13545000Y-7600000D02*
G75*
G03*
X13545000Y-7600000I-35000J0D01*
G01*
X13545000Y-8400000D02*
G75*
G03*
X13545000Y-8400000I-35000J0D01*
G01*
X13545000Y-9100000D02*
G75*
G03*
X13545000Y-9100000I-35000J0D01*
G01*
X13545000Y-9900000D02*
G75*
G03*
X13545000Y-9900000I-35000J0D01*
G01*
X13545000Y-10700000D02*
G75*
G03*
X13545000Y-10700000I-35000J0D01*
G01*
X13545000Y-11400000D02*
G75*
G03*
X13545000Y-11400000I-35000J0D01*
G01*
X13545000Y-12192000D02*
G75*
G03*
X13545000Y-12192000I-35000J0D01*
G01*
X13735000Y-3000000D02*
G75*
G03*
X13735000Y-3000000I-35000J0D01*
G01*
X13735000Y-3800000D02*
G75*
G03*
X13735000Y-3800000I-35000J0D01*
G01*
X13735000Y-4600000D02*
G75*
G03*
X13735000Y-4600000I-35000J0D01*
G01*
X13735000Y-5300000D02*
G75*
G03*
X13735000Y-5300000I-35000J0D01*
G01*
X13735000Y-6096000D02*
G75*
G03*
X13735000Y-6096000I-35000J0D01*
G01*
X13735000Y-6900000D02*
G75*
G03*
X13735000Y-6900000I-35000J0D01*
G01*
X13735000Y-7600000D02*
G75*
G03*
X13735000Y-7600000I-35000J0D01*
G01*
X13735000Y-8400000D02*
G75*
G03*
X13735000Y-8400000I-35000J0D01*
G01*
X13735000Y-9100000D02*
G75*
G03*
X13735000Y-9100000I-35000J0D01*
G01*
X13735000Y-9900000D02*
G75*
G03*
X13735000Y-9900000I-35000J0D01*
G01*
X13735000Y-10700000D02*
G75*
G03*
X13735000Y-10700000I-35000J0D01*
G01*
X13735000Y-11400000D02*
G75*
G03*
X13735000Y-11400000I-35000J0D01*
G01*
X13735000Y-12192000D02*
G75*
G03*
X13735000Y-12192000I-35000J0D01*
G01*
D14*
X10922000Y-3003000D02*
X10922000Y-3093000D01*
X10877000Y-3048000D02*
X10967000Y-3048000D01*
X10922000Y-3765000D02*
X10922000Y-3855000D01*
X10877000Y-3810000D02*
X10967000Y-3810000D01*
X10922000Y-4527000D02*
X10922000Y-4617000D01*
X10877000Y-4572000D02*
X10967000Y-4572000D01*
X10922000Y-5289000D02*
X10922000Y-5379000D01*
X10877000Y-5334000D02*
X10967000Y-5334000D01*
X10922000Y-6051000D02*
X10922000Y-6141000D01*
X10877000Y-6096000D02*
X10967000Y-6096000D01*
X10922000Y-6813000D02*
X10922000Y-6903000D01*
X10877000Y-6858000D02*
X10967000Y-6858000D01*
X10922000Y-7575000D02*
X10922000Y-7665000D01*
X10877000Y-7620000D02*
X10967000Y-7620000D01*
X10922000Y-8337000D02*
X10922000Y-8427000D01*
X10877000Y-8382000D02*
X10967000Y-8382000D01*
X10922000Y-9099000D02*
X10922000Y-9189000D01*
X10877000Y-9144000D02*
X10967000Y-9144000D01*
X10922000Y-9861000D02*
X10922000Y-9951000D01*
X10877000Y-9906000D02*
X10967000Y-9906000D01*
X10922000Y-10623000D02*
X10922000Y-10713000D01*
X10877000Y-10668000D02*
X10967000Y-10668000D01*
X10922000Y-11385000D02*
X10922000Y-11475000D01*
X10877000Y-11430000D02*
X10967000Y-11430000D01*
X10922000Y-12147000D02*
X10922000Y-12237000D01*
X10877000Y-12192000D02*
X10967000Y-12192000D01*
X11176000Y-3003000D02*
X11176000Y-3093000D01*
X11131000Y-3048000D02*
X11221000Y-3048000D01*
X11176000Y-3765000D02*
X11176000Y-3855000D01*
X11131000Y-3810000D02*
X11221000Y-3810000D01*
X11176000Y-4527000D02*
X11176000Y-4617000D01*
X11131000Y-4572000D02*
X11221000Y-4572000D01*
X11176000Y-5289000D02*
X11176000Y-5379000D01*
X11131000Y-5334000D02*
X11221000Y-5334000D01*
X11176000Y-6051000D02*
X11176000Y-6141000D01*
X11131000Y-6096000D02*
X11221000Y-6096000D01*
X11176000Y-6813000D02*
X11176000Y-6903000D01*
X11131000Y-6858000D02*
X11221000Y-6858000D01*
X11176000Y-7575000D02*
X11176000Y-7665000D01*
X11131000Y-7620000D02*
X11221000Y-7620000D01*
X11176000Y-8337000D02*
X11176000Y-8427000D01*
X11131000Y-8382000D02*
X11221000Y-8382000D01*
X11176000Y-9099000D02*
X11176000Y-9189000D01*
X11131000Y-9144000D02*
X11221000Y-9144000D01*
X11176000Y-9861000D02*
X11176000Y-9951000D01*
X11131000Y-9906000D02*
X11221000Y-9906000D01*
X11176000Y-10623000D02*
X11176000Y-10713000D01*
X11131000Y-10668000D02*
X11221000Y-10668000D01*
X11176000Y-11385000D02*
X11176000Y-11475000D01*
X11131000Y-11430000D02*
X11221000Y-11430000D01*
X11176000Y-12147000D02*
X11176000Y-12237000D01*
X11131000Y-12192000D02*
X11221000Y-12192000D01*
X12700000Y-2955000D02*
X12700000Y-3045000D01*
X12655000Y-3000000D02*
X12745000Y-3000000D01*
X12700000Y-3755000D02*
X12700000Y-3845000D01*
X12655000Y-3800000D02*
X12745000Y-3800000D01*
X12700000Y-4555000D02*
X12700000Y-4645000D01*
X12655000Y-4600000D02*
X12745000Y-4600000D01*
X12700000Y-5255000D02*
X12700000Y-5345000D01*
X12655000Y-5300000D02*
X12745000Y-5300000D01*
X12700000Y-6051000D02*
X12700000Y-6141000D01*
X12655000Y-6096000D02*
X12745000Y-6096000D01*
X12700000Y-6855000D02*
X12700000Y-6945000D01*
X12655000Y-6900000D02*
X12745000Y-6900000D01*
X12700000Y-7575000D02*
X12700000Y-7665000D01*
X12655000Y-7620000D02*
X12745000Y-7620000D01*
X12700000Y-8355000D02*
X12700000Y-8445000D01*
X12655000Y-8400000D02*
X12745000Y-8400000D01*
X12700000Y-9055000D02*
X12700000Y-9145000D01*
X12655000Y-9100000D02*
X12745000Y-9100000D01*
X12700000Y-9855000D02*
X12700000Y-9945000D01*
X12655000Y-9900000D02*
X12745000Y-9900000D01*
X12700000Y-10655000D02*
X12700000Y-10745000D01*
X12655000Y-10700000D02*
X12745000Y-10700000D01*
X12700000Y-11355000D02*
X12700000Y-11445000D01*
X12655000Y-11400000D02*
X12745000Y-11400000D01*
X12700000Y-12147000D02*
X12700000Y-12237000D01*
X12655000Y-12192000D02*
X12745000Y-12192000D01*
X12954000Y-2955000D02*
X12954000Y-3045000D01*
X12909000Y-3000000D02*
X12999000Y-3000000D01*
X12954000Y-3755000D02*
X12954000Y-3845000D01*
X12909000Y-3800000D02*
X12999000Y-3800000D01*
X12954000Y-4555000D02*
X12954000Y-4645000D01*
X12909000Y-4600000D02*
X12999000Y-4600000D01*
X12954000Y-5255000D02*
X12954000Y-5345000D01*
X12909000Y-5300000D02*
X12999000Y-5300000D01*
X12954000Y-6051000D02*
X12954000Y-6141000D01*
X12909000Y-6096000D02*
X12999000Y-6096000D01*
X12954000Y-6855000D02*
X12954000Y-6945000D01*
X12909000Y-6900000D02*
X12999000Y-6900000D01*
X12954000Y-7575000D02*
X12954000Y-7665000D01*
X12909000Y-7620000D02*
X12999000Y-7620000D01*
X12954000Y-8355000D02*
X12954000Y-8445000D01*
X12909000Y-8400000D02*
X12999000Y-8400000D01*
X12954000Y-9055000D02*
X12954000Y-9145000D01*
X12909000Y-9100000D02*
X12999000Y-9100000D01*
X12954000Y-9855000D02*
X12954000Y-9945000D01*
X12909000Y-9900000D02*
X12999000Y-9900000D01*
X12954000Y-10655000D02*
X12954000Y-10745000D01*
X12909000Y-10700000D02*
X12999000Y-10700000D01*
X12954000Y-11355000D02*
X12954000Y-11445000D01*
X12909000Y-11400000D02*
X12999000Y-11400000D01*
X12954000Y-12147000D02*
X12954000Y-12237000D01*
X12909000Y-12192000D02*
X12999000Y-12192000D01*
D15*
X11970356Y-13500356D02*
X11970356Y-13429644D01*
X11899644Y-13429644D01*
X11899644Y-13500356D01*
X11970356Y-13500356D01*
D11*
X11805000Y-13515000D02*
X12065000Y-13515000D01*
X12065000Y-13515000D02*
G75*
G03*
X12065000Y-13415000I0J50000D01*
G01*
X12065000Y-13415000D02*
X11805000Y-13415000D01*
X11805000Y-13415000D02*
G75*
G03*
X11805000Y-13515000I0J-50000D01*
G01*
D15*
X11970356Y-14130356D02*
X11970356Y-14059644D01*
X11899644Y-14059644D01*
X11899644Y-14130356D01*
X11970356Y-14130356D01*
D11*
X11825000Y-14145000D02*
X12045000Y-14145000D01*
X12045000Y-14145000D02*
G75*
G03*
X12045000Y-14045000I0J50000D01*
G01*
X12045000Y-14045000D02*
X11825000Y-14045000D01*
X11825000Y-14045000D02*
G75*
G03*
X11825000Y-14145000I0J-50000D01*
G01*
D15*
X12450356Y-13790356D02*
X12450356Y-13719644D01*
X12379644Y-13719644D01*
X12379644Y-13790356D01*
X12450356Y-13790356D01*
D11*
X12365000Y-13645000D02*
X12365000Y-13865000D01*
X12365000Y-13865000D02*
G75*
G03*
X12465000Y-13865000I50000J0D01*
G01*
X12465000Y-13865000D02*
X12465000Y-13645000D01*
X12465000Y-13645000D02*
G75*
G03*
X12365000Y-13645000I-50000J0D01*
G01*
D16*
X5980000Y-6046000D02*
X6035000Y-5991000D01*
X5980000Y-5936000D01*
X5925000Y-5991000D01*
X5980000Y-6046000D01*
X5980000Y-6266000D02*
X6035000Y-6211000D01*
X5980000Y-6156000D01*
X5925000Y-6211000D01*
X5980000Y-6266000D01*
X5980000Y-6486000D02*
X6035000Y-6431000D01*
X5980000Y-6376000D01*
X5925000Y-6431000D01*
X5980000Y-6486000D01*
X5980000Y-6706000D02*
X6035000Y-6651000D01*
X5980000Y-6596000D01*
X5925000Y-6651000D01*
X5980000Y-6706000D01*
X5980000Y-6926000D02*
X6035000Y-6871000D01*
X5980000Y-6816000D01*
X5925000Y-6871000D01*
X5980000Y-6926000D01*
X5980000Y-7146000D02*
X6035000Y-7091000D01*
X5980000Y-7036000D01*
X5925000Y-7091000D01*
X5980000Y-7146000D01*
X5980000Y-7366000D02*
X6035000Y-7311000D01*
X5980000Y-7256000D01*
X5925000Y-7311000D01*
X5980000Y-7366000D01*
X5980000Y-7586000D02*
X6035000Y-7531000D01*
X5980000Y-7476000D01*
X5925000Y-7531000D01*
X5980000Y-7586000D01*
X5980000Y-7806000D02*
X6035000Y-7751000D01*
X5980000Y-7696000D01*
X5925000Y-7751000D01*
X5980000Y-7806000D01*
X5980000Y-8026000D02*
X6035000Y-7971000D01*
X5980000Y-7916000D01*
X5925000Y-7971000D01*
X5980000Y-8026000D01*
X5980000Y-8246000D02*
X6035000Y-8191000D01*
X5980000Y-8136000D01*
X5925000Y-8191000D01*
X5980000Y-8246000D01*
X5980000Y-8466000D02*
X6035000Y-8411000D01*
X5980000Y-8356000D01*
X5925000Y-8411000D01*
X5980000Y-8466000D01*
X5980000Y-8686000D02*
X6035000Y-8631000D01*
X5980000Y-8576000D01*
X5925000Y-8631000D01*
X5980000Y-8686000D01*
X5980000Y-8906000D02*
X6035000Y-8851000D01*
X5980000Y-8796000D01*
X5925000Y-8851000D01*
X5980000Y-8906000D01*
X6330000Y-5936000D02*
X6385000Y-5881000D01*
X6330000Y-5826000D01*
X6275000Y-5881000D01*
X6330000Y-5936000D01*
X6330000Y-6156000D02*
X6385000Y-6101000D01*
X6330000Y-6046000D01*
X6275000Y-6101000D01*
X6330000Y-6156000D01*
X6330000Y-6376000D02*
X6385000Y-6321000D01*
X6330000Y-6266000D01*
X6275000Y-6321000D01*
X6330000Y-6376000D01*
X6330000Y-6596000D02*
X6385000Y-6541000D01*
X6330000Y-6486000D01*
X6275000Y-6541000D01*
X6330000Y-6596000D01*
X6330000Y-6816000D02*
X6385000Y-6761000D01*
X6330000Y-6706000D01*
X6275000Y-6761000D01*
X6330000Y-6816000D01*
X6330000Y-7036000D02*
X6385000Y-6981000D01*
X6330000Y-6926000D01*
X6275000Y-6981000D01*
X6330000Y-7036000D01*
X6330000Y-7256000D02*
X6385000Y-7201000D01*
X6330000Y-7146000D01*
X6275000Y-7201000D01*
X6330000Y-7256000D01*
X6330000Y-7476000D02*
X6385000Y-7421000D01*
X6330000Y-7366000D01*
X6275000Y-7421000D01*
X6330000Y-7476000D01*
X6330000Y-7696000D02*
X6385000Y-7641000D01*
X6330000Y-7586000D01*
X6275000Y-7641000D01*
X6330000Y-7696000D01*
X6330000Y-7916000D02*
X6385000Y-7861000D01*
X6330000Y-7806000D01*
X6275000Y-7861000D01*
X6330000Y-7916000D01*
X6330000Y-8136000D02*
X6385000Y-8081000D01*
X6330000Y-8026000D01*
X6275000Y-8081000D01*
X6330000Y-8136000D01*
X6330000Y-8356000D02*
X6385000Y-8301000D01*
X6330000Y-8246000D01*
X6275000Y-8301000D01*
X6330000Y-8356000D01*
X6330000Y-8576000D02*
X6385000Y-8521000D01*
X6330000Y-8466000D01*
X6275000Y-8521000D01*
X6330000Y-8576000D01*
X6330000Y-8796000D02*
X6385000Y-8741000D01*
X6330000Y-8686000D01*
X6275000Y-8741000D01*
X6330000Y-8796000D01*
X17076250Y-6046000D02*
X17131250Y-5991000D01*
X17076250Y-5936000D01*
X17021250Y-5991000D01*
X17076250Y-6046000D01*
X17076250Y-6266000D02*
X17131250Y-6211000D01*
X17076250Y-6156000D01*
X17021250Y-6211000D01*
X17076250Y-6266000D01*
X17076250Y-6486000D02*
X17131250Y-6431000D01*
X17076250Y-6376000D01*
X17021250Y-6431000D01*
X17076250Y-6486000D01*
X17076250Y-6706000D02*
X17131250Y-6651000D01*
X17076250Y-6596000D01*
X17021250Y-6651000D01*
X17076250Y-6706000D01*
X17076250Y-6926000D02*
X17131250Y-6871000D01*
X17076250Y-6816000D01*
X17021250Y-6871000D01*
X17076250Y-6926000D01*
X17076250Y-7146000D02*
X17131250Y-7091000D01*
X17076250Y-7036000D01*
X17021250Y-7091000D01*
X17076250Y-7146000D01*
X17076250Y-7366000D02*
X17131250Y-7311000D01*
X17076250Y-7256000D01*
X17021250Y-7311000D01*
X17076250Y-7366000D01*
X17076250Y-7586000D02*
X17131250Y-7531000D01*
X17076250Y-7476000D01*
X17021250Y-7531000D01*
X17076250Y-7586000D01*
X17076250Y-7806000D02*
X17131250Y-7751000D01*
X17076250Y-7696000D01*
X17021250Y-7751000D01*
X17076250Y-7806000D01*
X17076250Y-8026000D02*
X17131250Y-7971000D01*
X17076250Y-7916000D01*
X17021250Y-7971000D01*
X17076250Y-8026000D01*
X17076250Y-8246000D02*
X17131250Y-8191000D01*
X17076250Y-8136000D01*
X17021250Y-8191000D01*
X17076250Y-8246000D01*
X17076250Y-8466000D02*
X17131250Y-8411000D01*
X17076250Y-8356000D01*
X17021250Y-8411000D01*
X17076250Y-8466000D01*
X17076250Y-8686000D02*
X17131250Y-8631000D01*
X17076250Y-8576000D01*
X17021250Y-8631000D01*
X17076250Y-8686000D01*
X17076250Y-8906000D02*
X17131250Y-8851000D01*
X17076250Y-8796000D01*
X17021250Y-8851000D01*
X17076250Y-8906000D01*
X17426250Y-5936000D02*
X17481250Y-5881000D01*
X17426250Y-5826000D01*
X17371250Y-5881000D01*
X17426250Y-5936000D01*
X17426250Y-6156000D02*
X17481250Y-6101000D01*
X17426250Y-6046000D01*
X17371250Y-6101000D01*
X17426250Y-6156000D01*
X17426250Y-6376000D02*
X17481250Y-6321000D01*
X17426250Y-6266000D01*
X17371250Y-6321000D01*
X17426250Y-6376000D01*
X17426250Y-6596000D02*
X17481250Y-6541000D01*
X17426250Y-6486000D01*
X17371250Y-6541000D01*
X17426250Y-6596000D01*
X17426250Y-6816000D02*
X17481250Y-6761000D01*
X17426250Y-6706000D01*
X17371250Y-6761000D01*
X17426250Y-6816000D01*
X17426250Y-7036000D02*
X17481250Y-6981000D01*
X17426250Y-6926000D01*
X17371250Y-6981000D01*
X17426250Y-7036000D01*
X17426250Y-7256000D02*
X17481250Y-7201000D01*
X17426250Y-7146000D01*
X17371250Y-7201000D01*
X17426250Y-7256000D01*
X17426250Y-7476000D02*
X17481250Y-7421000D01*
X17426250Y-7366000D01*
X17371250Y-7421000D01*
X17426250Y-7476000D01*
X17426250Y-7696000D02*
X17481250Y-7641000D01*
X17426250Y-7586000D01*
X17371250Y-7641000D01*
X17426250Y-7696000D01*
X17426250Y-7916000D02*
X17481250Y-7861000D01*
X17426250Y-7806000D01*
X17371250Y-7861000D01*
X17426250Y-7916000D01*
X17426250Y-8136000D02*
X17481250Y-8081000D01*
X17426250Y-8026000D01*
X17371250Y-8081000D01*
X17426250Y-8136000D01*
X17426250Y-8356000D02*
X17481250Y-8301000D01*
X17426250Y-8246000D01*
X17371250Y-8301000D01*
X17426250Y-8356000D01*
X17426250Y-8576000D02*
X17481250Y-8521000D01*
X17426250Y-8466000D01*
X17371250Y-8521000D01*
X17426250Y-8576000D01*
X17426250Y-8796000D02*
X17481250Y-8741000D01*
X17426250Y-8686000D01*
X17371250Y-8741000D01*
X17426250Y-8796000D01*
D11*
X4558277Y-15213984D02*
X4558277Y-15013984D01*
X4558277Y-15013984D02*
X4605896Y-15013984D01*
X4605896Y-15013984D02*
X4634467Y-15023508D01*
X4634467Y-15023508D02*
X4653515Y-15042555D01*
X4653515Y-15042555D02*
X4663039Y-15061603D01*
X4663039Y-15061603D02*
X4672563Y-15099698D01*
X4672563Y-15099698D02*
X4672563Y-15128269D01*
X4672563Y-15128269D02*
X4663039Y-15166365D01*
X4663039Y-15166365D02*
X4653515Y-15185412D01*
X4653515Y-15185412D02*
X4634467Y-15204460D01*
X4634467Y-15204460D02*
X4605896Y-15213984D01*
X4605896Y-15213984D02*
X4558277Y-15213984D01*
X4758277Y-15213984D02*
X4758277Y-15080650D01*
X4758277Y-15118746D02*
X4767801Y-15099698D01*
X4767801Y-15099698D02*
X4777324Y-15090174D01*
X4777324Y-15090174D02*
X4796372Y-15080650D01*
X4796372Y-15080650D02*
X4815420Y-15080650D01*
X4882086Y-15213984D02*
X4882086Y-15080650D01*
X4882086Y-15013984D02*
X4872563Y-15023508D01*
X4872563Y-15023508D02*
X4882086Y-15033031D01*
X4882086Y-15033031D02*
X4891610Y-15023508D01*
X4891610Y-15023508D02*
X4882086Y-15013984D01*
X4882086Y-15013984D02*
X4882086Y-15033031D01*
X5005896Y-15213984D02*
X4986848Y-15204460D01*
X4986848Y-15204460D02*
X4977324Y-15185412D01*
X4977324Y-15185412D02*
X4977324Y-15013984D01*
X5110658Y-15213984D02*
X5091610Y-15204460D01*
X5091610Y-15204460D02*
X5082086Y-15185412D01*
X5082086Y-15185412D02*
X5082086Y-15013984D01*
X5339229Y-15213984D02*
X5339229Y-15013984D01*
X5339229Y-15013984D02*
X5405896Y-15156841D01*
X5405896Y-15156841D02*
X5472563Y-15013984D01*
X5472563Y-15013984D02*
X5472563Y-15213984D01*
X5653515Y-15213984D02*
X5653515Y-15109222D01*
X5653515Y-15109222D02*
X5643991Y-15090174D01*
X5643991Y-15090174D02*
X5624943Y-15080650D01*
X5624943Y-15080650D02*
X5586848Y-15080650D01*
X5586848Y-15080650D02*
X5567801Y-15090174D01*
X5653515Y-15204460D02*
X5634467Y-15213984D01*
X5634467Y-15213984D02*
X5586848Y-15213984D01*
X5586848Y-15213984D02*
X5567801Y-15204460D01*
X5567801Y-15204460D02*
X5558277Y-15185412D01*
X5558277Y-15185412D02*
X5558277Y-15166365D01*
X5558277Y-15166365D02*
X5567801Y-15147317D01*
X5567801Y-15147317D02*
X5586848Y-15137793D01*
X5586848Y-15137793D02*
X5634467Y-15137793D01*
X5634467Y-15137793D02*
X5653515Y-15128269D01*
X5748753Y-15080650D02*
X5748753Y-15280650D01*
X5748753Y-15090174D02*
X5767801Y-15080650D01*
X5767801Y-15080650D02*
X5805896Y-15080650D01*
X5805896Y-15080650D02*
X5824943Y-15090174D01*
X5824943Y-15090174D02*
X5834467Y-15099698D01*
X5834467Y-15099698D02*
X5843991Y-15118746D01*
X5843991Y-15118746D02*
X5843991Y-15175888D01*
X5843991Y-15175888D02*
X5834467Y-15194936D01*
X5834467Y-15194936D02*
X5824943Y-15204460D01*
X5824943Y-15204460D02*
X5805896Y-15213984D01*
X5805896Y-15213984D02*
X5767801Y-15213984D01*
X5767801Y-15213984D02*
X5748753Y-15204460D01*
X5929705Y-15194936D02*
X5939229Y-15204460D01*
X5939229Y-15204460D02*
X5929705Y-15213984D01*
X5929705Y-15213984D02*
X5920182Y-15204460D01*
X5920182Y-15204460D02*
X5929705Y-15194936D01*
X5929705Y-15194936D02*
X5929705Y-15213984D01*
X5929705Y-15090174D02*
X5939229Y-15099698D01*
X5939229Y-15099698D02*
X5929705Y-15109222D01*
X5929705Y-15109222D02*
X5920182Y-15099698D01*
X5920182Y-15099698D02*
X5929705Y-15090174D01*
X5929705Y-15090174D02*
X5929705Y-15109222D01*
D12*
X4267500Y-15527500D02*
X4297500Y-15557500D01*
X4297500Y-15527500D02*
X4267500Y-15557500D01*
D11*
X4596372Y-15433984D02*
X4615420Y-15433984D01*
X4615420Y-15433984D02*
X4634467Y-15443508D01*
X4634467Y-15443508D02*
X4643991Y-15453031D01*
X4643991Y-15453031D02*
X4653515Y-15472079D01*
X4653515Y-15472079D02*
X4663039Y-15510174D01*
X4663039Y-15510174D02*
X4663039Y-15557793D01*
X4663039Y-15557793D02*
X4653515Y-15595888D01*
X4653515Y-15595888D02*
X4643991Y-15614936D01*
X4643991Y-15614936D02*
X4634467Y-15624460D01*
X4634467Y-15624460D02*
X4615420Y-15633984D01*
X4615420Y-15633984D02*
X4596372Y-15633984D01*
X4596372Y-15633984D02*
X4577324Y-15624460D01*
X4577324Y-15624460D02*
X4567801Y-15614936D01*
X4567801Y-15614936D02*
X4558277Y-15595888D01*
X4558277Y-15595888D02*
X4548753Y-15557793D01*
X4548753Y-15557793D02*
X4548753Y-15510174D01*
X4548753Y-15510174D02*
X4558277Y-15472079D01*
X4558277Y-15472079D02*
X4567801Y-15453031D01*
X4567801Y-15453031D02*
X4577324Y-15443508D01*
X4577324Y-15443508D02*
X4596372Y-15433984D01*
X4748753Y-15614936D02*
X4758277Y-15624460D01*
X4758277Y-15624460D02*
X4748753Y-15633984D01*
X4748753Y-15633984D02*
X4739229Y-15624460D01*
X4739229Y-15624460D02*
X4748753Y-15614936D01*
X4748753Y-15614936D02*
X4748753Y-15633984D01*
X4824944Y-15433984D02*
X4948753Y-15433984D01*
X4948753Y-15433984D02*
X4882086Y-15510174D01*
X4882086Y-15510174D02*
X4910658Y-15510174D01*
X4910658Y-15510174D02*
X4929705Y-15519698D01*
X4929705Y-15519698D02*
X4939229Y-15529222D01*
X4939229Y-15529222D02*
X4948753Y-15548269D01*
X4948753Y-15548269D02*
X4948753Y-15595888D01*
X4948753Y-15595888D02*
X4939229Y-15614936D01*
X4939229Y-15614936D02*
X4929705Y-15624460D01*
X4929705Y-15624460D02*
X4910658Y-15633984D01*
X4910658Y-15633984D02*
X4853515Y-15633984D01*
X4853515Y-15633984D02*
X4834467Y-15624460D01*
X4834467Y-15624460D02*
X4824944Y-15614936D01*
X5072563Y-15433984D02*
X5091610Y-15433984D01*
X5091610Y-15433984D02*
X5110658Y-15443508D01*
X5110658Y-15443508D02*
X5120182Y-15453031D01*
X5120182Y-15453031D02*
X5129705Y-15472079D01*
X5129705Y-15472079D02*
X5139229Y-15510174D01*
X5139229Y-15510174D02*
X5139229Y-15557793D01*
X5139229Y-15557793D02*
X5129705Y-15595888D01*
X5129705Y-15595888D02*
X5120182Y-15614936D01*
X5120182Y-15614936D02*
X5110658Y-15624460D01*
X5110658Y-15624460D02*
X5091610Y-15633984D01*
X5091610Y-15633984D02*
X5072563Y-15633984D01*
X5072563Y-15633984D02*
X5053515Y-15624460D01*
X5053515Y-15624460D02*
X5043991Y-15614936D01*
X5043991Y-15614936D02*
X5034467Y-15595888D01*
X5034467Y-15595888D02*
X5024944Y-15557793D01*
X5024944Y-15557793D02*
X5024944Y-15510174D01*
X5024944Y-15510174D02*
X5034467Y-15472079D01*
X5034467Y-15472079D02*
X5043991Y-15453031D01*
X5043991Y-15453031D02*
X5053515Y-15443508D01*
X5053515Y-15443508D02*
X5072563Y-15433984D01*
X5263039Y-15433984D02*
X5282086Y-15433984D01*
X5282086Y-15433984D02*
X5301134Y-15443508D01*
X5301134Y-15443508D02*
X5310658Y-15453031D01*
X5310658Y-15453031D02*
X5320182Y-15472079D01*
X5320182Y-15472079D02*
X5329705Y-15510174D01*
X5329705Y-15510174D02*
X5329705Y-15557793D01*
X5329705Y-15557793D02*
X5320182Y-15595888D01*
X5320182Y-15595888D02*
X5310658Y-15614936D01*
X5310658Y-15614936D02*
X5301134Y-15624460D01*
X5301134Y-15624460D02*
X5282086Y-15633984D01*
X5282086Y-15633984D02*
X5263039Y-15633984D01*
X5263039Y-15633984D02*
X5243991Y-15624460D01*
X5243991Y-15624460D02*
X5234467Y-15614936D01*
X5234467Y-15614936D02*
X5224944Y-15595888D01*
X5224944Y-15595888D02*
X5215420Y-15557793D01*
X5215420Y-15557793D02*
X5215420Y-15510174D01*
X5215420Y-15510174D02*
X5224944Y-15472079D01*
X5224944Y-15472079D02*
X5234467Y-15453031D01*
X5234467Y-15453031D02*
X5243991Y-15443508D01*
X5243991Y-15443508D02*
X5263039Y-15433984D01*
X5415420Y-15633984D02*
X5415420Y-15500650D01*
X5415420Y-15519698D02*
X5424944Y-15510174D01*
X5424944Y-15510174D02*
X5443991Y-15500650D01*
X5443991Y-15500650D02*
X5472563Y-15500650D01*
X5472563Y-15500650D02*
X5491610Y-15510174D01*
X5491610Y-15510174D02*
X5501134Y-15529222D01*
X5501134Y-15529222D02*
X5501134Y-15633984D01*
X5501134Y-15529222D02*
X5510658Y-15510174D01*
X5510658Y-15510174D02*
X5529705Y-15500650D01*
X5529705Y-15500650D02*
X5558277Y-15500650D01*
X5558277Y-15500650D02*
X5577325Y-15510174D01*
X5577325Y-15510174D02*
X5586848Y-15529222D01*
X5586848Y-15529222D02*
X5586848Y-15633984D01*
X5682086Y-15633984D02*
X5682086Y-15500650D01*
X5682086Y-15519698D02*
X5691610Y-15510174D01*
X5691610Y-15510174D02*
X5710658Y-15500650D01*
X5710658Y-15500650D02*
X5739229Y-15500650D01*
X5739229Y-15500650D02*
X5758277Y-15510174D01*
X5758277Y-15510174D02*
X5767801Y-15529222D01*
X5767801Y-15529222D02*
X5767801Y-15633984D01*
X5767801Y-15529222D02*
X5777324Y-15510174D01*
X5777324Y-15510174D02*
X5796372Y-15500650D01*
X5796372Y-15500650D02*
X5824943Y-15500650D01*
X5824943Y-15500650D02*
X5843991Y-15510174D01*
X5843991Y-15510174D02*
X5853515Y-15529222D01*
X5853515Y-15529222D02*
X5853515Y-15633984D01*
X6243991Y-15424460D02*
X6072563Y-15681603D01*
X6501134Y-15433984D02*
X6520182Y-15433984D01*
X6520182Y-15433984D02*
X6539229Y-15443508D01*
X6539229Y-15443508D02*
X6548753Y-15453031D01*
X6548753Y-15453031D02*
X6558277Y-15472079D01*
X6558277Y-15472079D02*
X6567801Y-15510174D01*
X6567801Y-15510174D02*
X6567801Y-15557793D01*
X6567801Y-15557793D02*
X6558277Y-15595888D01*
X6558277Y-15595888D02*
X6548753Y-15614936D01*
X6548753Y-15614936D02*
X6539229Y-15624460D01*
X6539229Y-15624460D02*
X6520182Y-15633984D01*
X6520182Y-15633984D02*
X6501134Y-15633984D01*
X6501134Y-15633984D02*
X6482086Y-15624460D01*
X6482086Y-15624460D02*
X6472563Y-15614936D01*
X6472563Y-15614936D02*
X6463039Y-15595888D01*
X6463039Y-15595888D02*
X6453515Y-15557793D01*
X6453515Y-15557793D02*
X6453515Y-15510174D01*
X6453515Y-15510174D02*
X6463039Y-15472079D01*
X6463039Y-15472079D02*
X6472563Y-15453031D01*
X6472563Y-15453031D02*
X6482086Y-15443508D01*
X6482086Y-15443508D02*
X6501134Y-15433984D01*
X6653515Y-15614936D02*
X6663039Y-15624460D01*
X6663039Y-15624460D02*
X6653515Y-15633984D01*
X6653515Y-15633984D02*
X6643991Y-15624460D01*
X6643991Y-15624460D02*
X6653515Y-15614936D01*
X6653515Y-15614936D02*
X6653515Y-15633984D01*
X6786848Y-15433984D02*
X6805896Y-15433984D01*
X6805896Y-15433984D02*
X6824944Y-15443508D01*
X6824944Y-15443508D02*
X6834467Y-15453031D01*
X6834467Y-15453031D02*
X6843991Y-15472079D01*
X6843991Y-15472079D02*
X6853515Y-15510174D01*
X6853515Y-15510174D02*
X6853515Y-15557793D01*
X6853515Y-15557793D02*
X6843991Y-15595888D01*
X6843991Y-15595888D02*
X6834467Y-15614936D01*
X6834467Y-15614936D02*
X6824944Y-15624460D01*
X6824944Y-15624460D02*
X6805896Y-15633984D01*
X6805896Y-15633984D02*
X6786848Y-15633984D01*
X6786848Y-15633984D02*
X6767801Y-15624460D01*
X6767801Y-15624460D02*
X6758277Y-15614936D01*
X6758277Y-15614936D02*
X6748753Y-15595888D01*
X6748753Y-15595888D02*
X6739229Y-15557793D01*
X6739229Y-15557793D02*
X6739229Y-15510174D01*
X6739229Y-15510174D02*
X6748753Y-15472079D01*
X6748753Y-15472079D02*
X6758277Y-15453031D01*
X6758277Y-15453031D02*
X6767801Y-15443508D01*
X6767801Y-15443508D02*
X6786848Y-15433984D01*
X7043991Y-15633984D02*
X6929706Y-15633984D01*
X6986848Y-15633984D02*
X6986848Y-15433984D01*
X6986848Y-15433984D02*
X6967801Y-15462555D01*
X6967801Y-15462555D02*
X6948753Y-15481603D01*
X6948753Y-15481603D02*
X6929706Y-15491127D01*
X7234467Y-15633984D02*
X7120182Y-15633984D01*
X7177325Y-15633984D02*
X7177325Y-15433984D01*
X7177325Y-15433984D02*
X7158277Y-15462555D01*
X7158277Y-15462555D02*
X7139229Y-15481603D01*
X7139229Y-15481603D02*
X7120182Y-15491127D01*
X7348753Y-15519698D02*
X7329706Y-15510174D01*
X7329706Y-15510174D02*
X7320182Y-15500650D01*
X7320182Y-15500650D02*
X7310658Y-15481603D01*
X7310658Y-15481603D02*
X7310658Y-15472079D01*
X7310658Y-15472079D02*
X7320182Y-15453031D01*
X7320182Y-15453031D02*
X7329706Y-15443508D01*
X7329706Y-15443508D02*
X7348753Y-15433984D01*
X7348753Y-15433984D02*
X7386848Y-15433984D01*
X7386848Y-15433984D02*
X7405896Y-15443508D01*
X7405896Y-15443508D02*
X7415420Y-15453031D01*
X7415420Y-15453031D02*
X7424944Y-15472079D01*
X7424944Y-15472079D02*
X7424944Y-15481603D01*
X7424944Y-15481603D02*
X7415420Y-15500650D01*
X7415420Y-15500650D02*
X7405896Y-15510174D01*
X7405896Y-15510174D02*
X7386848Y-15519698D01*
X7386848Y-15519698D02*
X7348753Y-15519698D01*
X7348753Y-15519698D02*
X7329706Y-15529222D01*
X7329706Y-15529222D02*
X7320182Y-15538746D01*
X7320182Y-15538746D02*
X7310658Y-15557793D01*
X7310658Y-15557793D02*
X7310658Y-15595888D01*
X7310658Y-15595888D02*
X7320182Y-15614936D01*
X7320182Y-15614936D02*
X7329706Y-15624460D01*
X7329706Y-15624460D02*
X7348753Y-15633984D01*
X7348753Y-15633984D02*
X7386848Y-15633984D01*
X7386848Y-15633984D02*
X7405896Y-15624460D01*
X7405896Y-15624460D02*
X7415420Y-15614936D01*
X7415420Y-15614936D02*
X7424944Y-15595888D01*
X7424944Y-15595888D02*
X7424944Y-15557793D01*
X7424944Y-15557793D02*
X7415420Y-15538746D01*
X7415420Y-15538746D02*
X7405896Y-15529222D01*
X7405896Y-15529222D02*
X7386848Y-15519698D01*
X7501134Y-15433984D02*
X7501134Y-15472079D01*
X7577325Y-15433984D02*
X7577325Y-15472079D01*
X7872563Y-15710174D02*
X7863039Y-15700650D01*
X7863039Y-15700650D02*
X7843991Y-15672079D01*
X7843991Y-15672079D02*
X7834468Y-15653031D01*
X7834468Y-15653031D02*
X7824944Y-15624460D01*
X7824944Y-15624460D02*
X7815420Y-15576841D01*
X7815420Y-15576841D02*
X7815420Y-15538746D01*
X7815420Y-15538746D02*
X7824944Y-15491127D01*
X7824944Y-15491127D02*
X7834468Y-15462555D01*
X7834468Y-15462555D02*
X7843991Y-15443508D01*
X7843991Y-15443508D02*
X7863039Y-15414936D01*
X7863039Y-15414936D02*
X7872563Y-15405412D01*
X7939229Y-15453031D02*
X7948753Y-15443508D01*
X7948753Y-15443508D02*
X7967801Y-15433984D01*
X7967801Y-15433984D02*
X8015420Y-15433984D01*
X8015420Y-15433984D02*
X8034468Y-15443508D01*
X8034468Y-15443508D02*
X8043991Y-15453031D01*
X8043991Y-15453031D02*
X8053515Y-15472079D01*
X8053515Y-15472079D02*
X8053515Y-15491127D01*
X8053515Y-15491127D02*
X8043991Y-15519698D01*
X8043991Y-15519698D02*
X7929706Y-15633984D01*
X7929706Y-15633984D02*
X8053515Y-15633984D01*
X8224944Y-15433984D02*
X8186848Y-15433984D01*
X8186848Y-15433984D02*
X8167801Y-15443508D01*
X8167801Y-15443508D02*
X8158277Y-15453031D01*
X8158277Y-15453031D02*
X8139229Y-15481603D01*
X8139229Y-15481603D02*
X8129706Y-15519698D01*
X8129706Y-15519698D02*
X8129706Y-15595888D01*
X8129706Y-15595888D02*
X8139229Y-15614936D01*
X8139229Y-15614936D02*
X8148753Y-15624460D01*
X8148753Y-15624460D02*
X8167801Y-15633984D01*
X8167801Y-15633984D02*
X8205896Y-15633984D01*
X8205896Y-15633984D02*
X8224944Y-15624460D01*
X8224944Y-15624460D02*
X8234468Y-15614936D01*
X8234468Y-15614936D02*
X8243991Y-15595888D01*
X8243991Y-15595888D02*
X8243991Y-15548269D01*
X8243991Y-15548269D02*
X8234468Y-15529222D01*
X8234468Y-15529222D02*
X8224944Y-15519698D01*
X8224944Y-15519698D02*
X8205896Y-15510174D01*
X8205896Y-15510174D02*
X8167801Y-15510174D01*
X8167801Y-15510174D02*
X8148753Y-15519698D01*
X8148753Y-15519698D02*
X8139229Y-15529222D01*
X8139229Y-15529222D02*
X8129706Y-15548269D01*
X8482087Y-15633984D02*
X8482087Y-15433984D01*
X8567801Y-15633984D02*
X8567801Y-15529222D01*
X8567801Y-15529222D02*
X8558277Y-15510174D01*
X8558277Y-15510174D02*
X8539230Y-15500650D01*
X8539230Y-15500650D02*
X8510658Y-15500650D01*
X8510658Y-15500650D02*
X8491611Y-15510174D01*
X8491611Y-15510174D02*
X8482087Y-15519698D01*
X8691611Y-15633984D02*
X8672563Y-15624460D01*
X8672563Y-15624460D02*
X8663039Y-15614936D01*
X8663039Y-15614936D02*
X8653515Y-15595888D01*
X8653515Y-15595888D02*
X8653515Y-15538746D01*
X8653515Y-15538746D02*
X8663039Y-15519698D01*
X8663039Y-15519698D02*
X8672563Y-15510174D01*
X8672563Y-15510174D02*
X8691611Y-15500650D01*
X8691611Y-15500650D02*
X8720182Y-15500650D01*
X8720182Y-15500650D02*
X8739230Y-15510174D01*
X8739230Y-15510174D02*
X8748753Y-15519698D01*
X8748753Y-15519698D02*
X8758277Y-15538746D01*
X8758277Y-15538746D02*
X8758277Y-15595888D01*
X8758277Y-15595888D02*
X8748753Y-15614936D01*
X8748753Y-15614936D02*
X8739230Y-15624460D01*
X8739230Y-15624460D02*
X8720182Y-15633984D01*
X8720182Y-15633984D02*
X8691611Y-15633984D01*
X8872563Y-15633984D02*
X8853515Y-15624460D01*
X8853515Y-15624460D02*
X8843992Y-15605412D01*
X8843992Y-15605412D02*
X8843992Y-15433984D01*
X9024944Y-15624460D02*
X9005896Y-15633984D01*
X9005896Y-15633984D02*
X8967801Y-15633984D01*
X8967801Y-15633984D02*
X8948753Y-15624460D01*
X8948753Y-15624460D02*
X8939230Y-15605412D01*
X8939230Y-15605412D02*
X8939230Y-15529222D01*
X8939230Y-15529222D02*
X8948753Y-15510174D01*
X8948753Y-15510174D02*
X8967801Y-15500650D01*
X8967801Y-15500650D02*
X9005896Y-15500650D01*
X9005896Y-15500650D02*
X9024944Y-15510174D01*
X9024944Y-15510174D02*
X9034468Y-15529222D01*
X9034468Y-15529222D02*
X9034468Y-15548269D01*
X9034468Y-15548269D02*
X8939230Y-15567317D01*
X9110658Y-15624460D02*
X9129706Y-15633984D01*
X9129706Y-15633984D02*
X9167801Y-15633984D01*
X9167801Y-15633984D02*
X9186849Y-15624460D01*
X9186849Y-15624460D02*
X9196373Y-15605412D01*
X9196373Y-15605412D02*
X9196373Y-15595888D01*
X9196373Y-15595888D02*
X9186849Y-15576841D01*
X9186849Y-15576841D02*
X9167801Y-15567317D01*
X9167801Y-15567317D02*
X9139230Y-15567317D01*
X9139230Y-15567317D02*
X9120182Y-15557793D01*
X9120182Y-15557793D02*
X9110658Y-15538746D01*
X9110658Y-15538746D02*
X9110658Y-15529222D01*
X9110658Y-15529222D02*
X9120182Y-15510174D01*
X9120182Y-15510174D02*
X9139230Y-15500650D01*
X9139230Y-15500650D02*
X9167801Y-15500650D01*
X9167801Y-15500650D02*
X9186849Y-15510174D01*
X9263039Y-15710174D02*
X9272563Y-15700650D01*
X9272563Y-15700650D02*
X9291611Y-15672079D01*
X9291611Y-15672079D02*
X9301134Y-15653031D01*
X9301134Y-15653031D02*
X9310658Y-15624460D01*
X9310658Y-15624460D02*
X9320182Y-15576841D01*
X9320182Y-15576841D02*
X9320182Y-15538746D01*
X9320182Y-15538746D02*
X9310658Y-15491127D01*
X9310658Y-15491127D02*
X9301134Y-15462555D01*
X9301134Y-15462555D02*
X9291611Y-15443508D01*
X9291611Y-15443508D02*
X9272563Y-15414936D01*
X9272563Y-15414936D02*
X9263039Y-15405412D01*
D13*
X4297500Y-15806500D02*
G75*
G03*
X4297500Y-15806500I-35000J0D01*
G01*
D11*
X4596372Y-15697984D02*
X4615420Y-15697984D01*
X4615420Y-15697984D02*
X4634467Y-15707508D01*
X4634467Y-15707508D02*
X4643991Y-15717031D01*
X4643991Y-15717031D02*
X4653515Y-15736079D01*
X4653515Y-15736079D02*
X4663039Y-15774174D01*
X4663039Y-15774174D02*
X4663039Y-15821793D01*
X4663039Y-15821793D02*
X4653515Y-15859888D01*
X4653515Y-15859888D02*
X4643991Y-15878936D01*
X4643991Y-15878936D02*
X4634467Y-15888460D01*
X4634467Y-15888460D02*
X4615420Y-15897984D01*
X4615420Y-15897984D02*
X4596372Y-15897984D01*
X4596372Y-15897984D02*
X4577324Y-15888460D01*
X4577324Y-15888460D02*
X4567801Y-15878936D01*
X4567801Y-15878936D02*
X4558277Y-15859888D01*
X4558277Y-15859888D02*
X4548753Y-15821793D01*
X4548753Y-15821793D02*
X4548753Y-15774174D01*
X4548753Y-15774174D02*
X4558277Y-15736079D01*
X4558277Y-15736079D02*
X4567801Y-15717031D01*
X4567801Y-15717031D02*
X4577324Y-15707508D01*
X4577324Y-15707508D02*
X4596372Y-15697984D01*
X4748753Y-15878936D02*
X4758277Y-15888460D01*
X4758277Y-15888460D02*
X4748753Y-15897984D01*
X4748753Y-15897984D02*
X4739229Y-15888460D01*
X4739229Y-15888460D02*
X4748753Y-15878936D01*
X4748753Y-15878936D02*
X4748753Y-15897984D01*
X4824944Y-15697984D02*
X4958277Y-15697984D01*
X4958277Y-15697984D02*
X4872563Y-15897984D01*
X5072563Y-15697984D02*
X5091610Y-15697984D01*
X5091610Y-15697984D02*
X5110658Y-15707508D01*
X5110658Y-15707508D02*
X5120182Y-15717031D01*
X5120182Y-15717031D02*
X5129705Y-15736079D01*
X5129705Y-15736079D02*
X5139229Y-15774174D01*
X5139229Y-15774174D02*
X5139229Y-15821793D01*
X5139229Y-15821793D02*
X5129705Y-15859888D01*
X5129705Y-15859888D02*
X5120182Y-15878936D01*
X5120182Y-15878936D02*
X5110658Y-15888460D01*
X5110658Y-15888460D02*
X5091610Y-15897984D01*
X5091610Y-15897984D02*
X5072563Y-15897984D01*
X5072563Y-15897984D02*
X5053515Y-15888460D01*
X5053515Y-15888460D02*
X5043991Y-15878936D01*
X5043991Y-15878936D02*
X5034467Y-15859888D01*
X5034467Y-15859888D02*
X5024944Y-15821793D01*
X5024944Y-15821793D02*
X5024944Y-15774174D01*
X5024944Y-15774174D02*
X5034467Y-15736079D01*
X5034467Y-15736079D02*
X5043991Y-15717031D01*
X5043991Y-15717031D02*
X5053515Y-15707508D01*
X5053515Y-15707508D02*
X5072563Y-15697984D01*
X5263039Y-15697984D02*
X5282086Y-15697984D01*
X5282086Y-15697984D02*
X5301134Y-15707508D01*
X5301134Y-15707508D02*
X5310658Y-15717031D01*
X5310658Y-15717031D02*
X5320182Y-15736079D01*
X5320182Y-15736079D02*
X5329705Y-15774174D01*
X5329705Y-15774174D02*
X5329705Y-15821793D01*
X5329705Y-15821793D02*
X5320182Y-15859888D01*
X5320182Y-15859888D02*
X5310658Y-15878936D01*
X5310658Y-15878936D02*
X5301134Y-15888460D01*
X5301134Y-15888460D02*
X5282086Y-15897984D01*
X5282086Y-15897984D02*
X5263039Y-15897984D01*
X5263039Y-15897984D02*
X5243991Y-15888460D01*
X5243991Y-15888460D02*
X5234467Y-15878936D01*
X5234467Y-15878936D02*
X5224944Y-15859888D01*
X5224944Y-15859888D02*
X5215420Y-15821793D01*
X5215420Y-15821793D02*
X5215420Y-15774174D01*
X5215420Y-15774174D02*
X5224944Y-15736079D01*
X5224944Y-15736079D02*
X5234467Y-15717031D01*
X5234467Y-15717031D02*
X5243991Y-15707508D01*
X5243991Y-15707508D02*
X5263039Y-15697984D01*
X5415420Y-15897984D02*
X5415420Y-15764650D01*
X5415420Y-15783698D02*
X5424944Y-15774174D01*
X5424944Y-15774174D02*
X5443991Y-15764650D01*
X5443991Y-15764650D02*
X5472563Y-15764650D01*
X5472563Y-15764650D02*
X5491610Y-15774174D01*
X5491610Y-15774174D02*
X5501134Y-15793222D01*
X5501134Y-15793222D02*
X5501134Y-15897984D01*
X5501134Y-15793222D02*
X5510658Y-15774174D01*
X5510658Y-15774174D02*
X5529705Y-15764650D01*
X5529705Y-15764650D02*
X5558277Y-15764650D01*
X5558277Y-15764650D02*
X5577325Y-15774174D01*
X5577325Y-15774174D02*
X5586848Y-15793222D01*
X5586848Y-15793222D02*
X5586848Y-15897984D01*
X5682086Y-15897984D02*
X5682086Y-15764650D01*
X5682086Y-15783698D02*
X5691610Y-15774174D01*
X5691610Y-15774174D02*
X5710658Y-15764650D01*
X5710658Y-15764650D02*
X5739229Y-15764650D01*
X5739229Y-15764650D02*
X5758277Y-15774174D01*
X5758277Y-15774174D02*
X5767801Y-15793222D01*
X5767801Y-15793222D02*
X5767801Y-15897984D01*
X5767801Y-15793222D02*
X5777324Y-15774174D01*
X5777324Y-15774174D02*
X5796372Y-15764650D01*
X5796372Y-15764650D02*
X5824943Y-15764650D01*
X5824943Y-15764650D02*
X5843991Y-15774174D01*
X5843991Y-15774174D02*
X5853515Y-15793222D01*
X5853515Y-15793222D02*
X5853515Y-15897984D01*
X6243991Y-15688460D02*
X6072563Y-15945603D01*
X6501134Y-15697984D02*
X6520182Y-15697984D01*
X6520182Y-15697984D02*
X6539229Y-15707508D01*
X6539229Y-15707508D02*
X6548753Y-15717031D01*
X6548753Y-15717031D02*
X6558277Y-15736079D01*
X6558277Y-15736079D02*
X6567801Y-15774174D01*
X6567801Y-15774174D02*
X6567801Y-15821793D01*
X6567801Y-15821793D02*
X6558277Y-15859888D01*
X6558277Y-15859888D02*
X6548753Y-15878936D01*
X6548753Y-15878936D02*
X6539229Y-15888460D01*
X6539229Y-15888460D02*
X6520182Y-15897984D01*
X6520182Y-15897984D02*
X6501134Y-15897984D01*
X6501134Y-15897984D02*
X6482086Y-15888460D01*
X6482086Y-15888460D02*
X6472563Y-15878936D01*
X6472563Y-15878936D02*
X6463039Y-15859888D01*
X6463039Y-15859888D02*
X6453515Y-15821793D01*
X6453515Y-15821793D02*
X6453515Y-15774174D01*
X6453515Y-15774174D02*
X6463039Y-15736079D01*
X6463039Y-15736079D02*
X6472563Y-15717031D01*
X6472563Y-15717031D02*
X6482086Y-15707508D01*
X6482086Y-15707508D02*
X6501134Y-15697984D01*
X6653515Y-15878936D02*
X6663039Y-15888460D01*
X6663039Y-15888460D02*
X6653515Y-15897984D01*
X6653515Y-15897984D02*
X6643991Y-15888460D01*
X6643991Y-15888460D02*
X6653515Y-15878936D01*
X6653515Y-15878936D02*
X6653515Y-15897984D01*
X6786848Y-15697984D02*
X6805896Y-15697984D01*
X6805896Y-15697984D02*
X6824944Y-15707508D01*
X6824944Y-15707508D02*
X6834467Y-15717031D01*
X6834467Y-15717031D02*
X6843991Y-15736079D01*
X6843991Y-15736079D02*
X6853515Y-15774174D01*
X6853515Y-15774174D02*
X6853515Y-15821793D01*
X6853515Y-15821793D02*
X6843991Y-15859888D01*
X6843991Y-15859888D02*
X6834467Y-15878936D01*
X6834467Y-15878936D02*
X6824944Y-15888460D01*
X6824944Y-15888460D02*
X6805896Y-15897984D01*
X6805896Y-15897984D02*
X6786848Y-15897984D01*
X6786848Y-15897984D02*
X6767801Y-15888460D01*
X6767801Y-15888460D02*
X6758277Y-15878936D01*
X6758277Y-15878936D02*
X6748753Y-15859888D01*
X6748753Y-15859888D02*
X6739229Y-15821793D01*
X6739229Y-15821793D02*
X6739229Y-15774174D01*
X6739229Y-15774174D02*
X6748753Y-15736079D01*
X6748753Y-15736079D02*
X6758277Y-15717031D01*
X6758277Y-15717031D02*
X6767801Y-15707508D01*
X6767801Y-15707508D02*
X6786848Y-15697984D01*
X6929706Y-15717031D02*
X6939229Y-15707508D01*
X6939229Y-15707508D02*
X6958277Y-15697984D01*
X6958277Y-15697984D02*
X7005896Y-15697984D01*
X7005896Y-15697984D02*
X7024944Y-15707508D01*
X7024944Y-15707508D02*
X7034467Y-15717031D01*
X7034467Y-15717031D02*
X7043991Y-15736079D01*
X7043991Y-15736079D02*
X7043991Y-15755127D01*
X7043991Y-15755127D02*
X7034467Y-15783698D01*
X7034467Y-15783698D02*
X6920182Y-15897984D01*
X6920182Y-15897984D02*
X7043991Y-15897984D01*
X7110658Y-15697984D02*
X7243991Y-15697984D01*
X7243991Y-15697984D02*
X7158277Y-15897984D01*
X7405896Y-15697984D02*
X7367801Y-15697984D01*
X7367801Y-15697984D02*
X7348753Y-15707508D01*
X7348753Y-15707508D02*
X7339229Y-15717031D01*
X7339229Y-15717031D02*
X7320182Y-15745603D01*
X7320182Y-15745603D02*
X7310658Y-15783698D01*
X7310658Y-15783698D02*
X7310658Y-15859888D01*
X7310658Y-15859888D02*
X7320182Y-15878936D01*
X7320182Y-15878936D02*
X7329706Y-15888460D01*
X7329706Y-15888460D02*
X7348753Y-15897984D01*
X7348753Y-15897984D02*
X7386848Y-15897984D01*
X7386848Y-15897984D02*
X7405896Y-15888460D01*
X7405896Y-15888460D02*
X7415420Y-15878936D01*
X7415420Y-15878936D02*
X7424944Y-15859888D01*
X7424944Y-15859888D02*
X7424944Y-15812269D01*
X7424944Y-15812269D02*
X7415420Y-15793222D01*
X7415420Y-15793222D02*
X7405896Y-15783698D01*
X7405896Y-15783698D02*
X7386848Y-15774174D01*
X7386848Y-15774174D02*
X7348753Y-15774174D01*
X7348753Y-15774174D02*
X7329706Y-15783698D01*
X7329706Y-15783698D02*
X7320182Y-15793222D01*
X7320182Y-15793222D02*
X7310658Y-15812269D01*
X7501134Y-15697984D02*
X7501134Y-15736079D01*
X7577325Y-15697984D02*
X7577325Y-15736079D01*
X7872563Y-15974174D02*
X7863039Y-15964650D01*
X7863039Y-15964650D02*
X7843991Y-15936079D01*
X7843991Y-15936079D02*
X7834468Y-15917031D01*
X7834468Y-15917031D02*
X7824944Y-15888460D01*
X7824944Y-15888460D02*
X7815420Y-15840841D01*
X7815420Y-15840841D02*
X7815420Y-15802746D01*
X7815420Y-15802746D02*
X7824944Y-15755127D01*
X7824944Y-15755127D02*
X7834468Y-15726555D01*
X7834468Y-15726555D02*
X7843991Y-15707508D01*
X7843991Y-15707508D02*
X7863039Y-15678936D01*
X7863039Y-15678936D02*
X7872563Y-15669412D01*
X8043991Y-15697984D02*
X7948753Y-15697984D01*
X7948753Y-15697984D02*
X7939229Y-15793222D01*
X7939229Y-15793222D02*
X7948753Y-15783698D01*
X7948753Y-15783698D02*
X7967801Y-15774174D01*
X7967801Y-15774174D02*
X8015420Y-15774174D01*
X8015420Y-15774174D02*
X8034468Y-15783698D01*
X8034468Y-15783698D02*
X8043991Y-15793222D01*
X8043991Y-15793222D02*
X8053515Y-15812269D01*
X8053515Y-15812269D02*
X8053515Y-15859888D01*
X8053515Y-15859888D02*
X8043991Y-15878936D01*
X8043991Y-15878936D02*
X8034468Y-15888460D01*
X8034468Y-15888460D02*
X8015420Y-15897984D01*
X8015420Y-15897984D02*
X7967801Y-15897984D01*
X7967801Y-15897984D02*
X7948753Y-15888460D01*
X7948753Y-15888460D02*
X7939229Y-15878936D01*
X8129706Y-15717031D02*
X8139229Y-15707508D01*
X8139229Y-15707508D02*
X8158277Y-15697984D01*
X8158277Y-15697984D02*
X8205896Y-15697984D01*
X8205896Y-15697984D02*
X8224944Y-15707508D01*
X8224944Y-15707508D02*
X8234468Y-15717031D01*
X8234468Y-15717031D02*
X8243991Y-15736079D01*
X8243991Y-15736079D02*
X8243991Y-15755127D01*
X8243991Y-15755127D02*
X8234468Y-15783698D01*
X8234468Y-15783698D02*
X8120182Y-15897984D01*
X8120182Y-15897984D02*
X8243991Y-15897984D01*
X8482087Y-15897984D02*
X8482087Y-15697984D01*
X8567801Y-15897984D02*
X8567801Y-15793222D01*
X8567801Y-15793222D02*
X8558277Y-15774174D01*
X8558277Y-15774174D02*
X8539230Y-15764650D01*
X8539230Y-15764650D02*
X8510658Y-15764650D01*
X8510658Y-15764650D02*
X8491611Y-15774174D01*
X8491611Y-15774174D02*
X8482087Y-15783698D01*
X8691611Y-15897984D02*
X8672563Y-15888460D01*
X8672563Y-15888460D02*
X8663039Y-15878936D01*
X8663039Y-15878936D02*
X8653515Y-15859888D01*
X8653515Y-15859888D02*
X8653515Y-15802746D01*
X8653515Y-15802746D02*
X8663039Y-15783698D01*
X8663039Y-15783698D02*
X8672563Y-15774174D01*
X8672563Y-15774174D02*
X8691611Y-15764650D01*
X8691611Y-15764650D02*
X8720182Y-15764650D01*
X8720182Y-15764650D02*
X8739230Y-15774174D01*
X8739230Y-15774174D02*
X8748753Y-15783698D01*
X8748753Y-15783698D02*
X8758277Y-15802746D01*
X8758277Y-15802746D02*
X8758277Y-15859888D01*
X8758277Y-15859888D02*
X8748753Y-15878936D01*
X8748753Y-15878936D02*
X8739230Y-15888460D01*
X8739230Y-15888460D02*
X8720182Y-15897984D01*
X8720182Y-15897984D02*
X8691611Y-15897984D01*
X8872563Y-15897984D02*
X8853515Y-15888460D01*
X8853515Y-15888460D02*
X8843992Y-15869412D01*
X8843992Y-15869412D02*
X8843992Y-15697984D01*
X9024944Y-15888460D02*
X9005896Y-15897984D01*
X9005896Y-15897984D02*
X8967801Y-15897984D01*
X8967801Y-15897984D02*
X8948753Y-15888460D01*
X8948753Y-15888460D02*
X8939230Y-15869412D01*
X8939230Y-15869412D02*
X8939230Y-15793222D01*
X8939230Y-15793222D02*
X8948753Y-15774174D01*
X8948753Y-15774174D02*
X8967801Y-15764650D01*
X8967801Y-15764650D02*
X9005896Y-15764650D01*
X9005896Y-15764650D02*
X9024944Y-15774174D01*
X9024944Y-15774174D02*
X9034468Y-15793222D01*
X9034468Y-15793222D02*
X9034468Y-15812269D01*
X9034468Y-15812269D02*
X8939230Y-15831317D01*
X9110658Y-15888460D02*
X9129706Y-15897984D01*
X9129706Y-15897984D02*
X9167801Y-15897984D01*
X9167801Y-15897984D02*
X9186849Y-15888460D01*
X9186849Y-15888460D02*
X9196373Y-15869412D01*
X9196373Y-15869412D02*
X9196373Y-15859888D01*
X9196373Y-15859888D02*
X9186849Y-15840841D01*
X9186849Y-15840841D02*
X9167801Y-15831317D01*
X9167801Y-15831317D02*
X9139230Y-15831317D01*
X9139230Y-15831317D02*
X9120182Y-15821793D01*
X9120182Y-15821793D02*
X9110658Y-15802746D01*
X9110658Y-15802746D02*
X9110658Y-15793222D01*
X9110658Y-15793222D02*
X9120182Y-15774174D01*
X9120182Y-15774174D02*
X9139230Y-15764650D01*
X9139230Y-15764650D02*
X9167801Y-15764650D01*
X9167801Y-15764650D02*
X9186849Y-15774174D01*
X9263039Y-15974174D02*
X9272563Y-15964650D01*
X9272563Y-15964650D02*
X9291611Y-15936079D01*
X9291611Y-15936079D02*
X9301134Y-15917031D01*
X9301134Y-15917031D02*
X9310658Y-15888460D01*
X9310658Y-15888460D02*
X9320182Y-15840841D01*
X9320182Y-15840841D02*
X9320182Y-15802746D01*
X9320182Y-15802746D02*
X9310658Y-15755127D01*
X9310658Y-15755127D02*
X9301134Y-15726555D01*
X9301134Y-15726555D02*
X9291611Y-15707508D01*
X9291611Y-15707508D02*
X9272563Y-15678936D01*
X9272563Y-15678936D02*
X9263039Y-15669412D01*
D14*
X4252500Y-16025500D02*
X4252500Y-16115500D01*
X4207500Y-16070500D02*
X4297500Y-16070500D01*
D11*
X4596372Y-15961984D02*
X4615420Y-15961984D01*
X4615420Y-15961984D02*
X4634467Y-15971508D01*
X4634467Y-15971508D02*
X4643991Y-15981031D01*
X4643991Y-15981031D02*
X4653515Y-16000079D01*
X4653515Y-16000079D02*
X4663039Y-16038174D01*
X4663039Y-16038174D02*
X4663039Y-16085793D01*
X4663039Y-16085793D02*
X4653515Y-16123888D01*
X4653515Y-16123888D02*
X4643991Y-16142936D01*
X4643991Y-16142936D02*
X4634467Y-16152460D01*
X4634467Y-16152460D02*
X4615420Y-16161984D01*
X4615420Y-16161984D02*
X4596372Y-16161984D01*
X4596372Y-16161984D02*
X4577324Y-16152460D01*
X4577324Y-16152460D02*
X4567801Y-16142936D01*
X4567801Y-16142936D02*
X4558277Y-16123888D01*
X4558277Y-16123888D02*
X4548753Y-16085793D01*
X4548753Y-16085793D02*
X4548753Y-16038174D01*
X4548753Y-16038174D02*
X4558277Y-16000079D01*
X4558277Y-16000079D02*
X4567801Y-15981031D01*
X4567801Y-15981031D02*
X4577324Y-15971508D01*
X4577324Y-15971508D02*
X4596372Y-15961984D01*
X4748753Y-16142936D02*
X4758277Y-16152460D01*
X4758277Y-16152460D02*
X4748753Y-16161984D01*
X4748753Y-16161984D02*
X4739229Y-16152460D01*
X4739229Y-16152460D02*
X4748753Y-16142936D01*
X4748753Y-16142936D02*
X4748753Y-16161984D01*
X4853515Y-16161984D02*
X4891610Y-16161984D01*
X4891610Y-16161984D02*
X4910658Y-16152460D01*
X4910658Y-16152460D02*
X4920182Y-16142936D01*
X4920182Y-16142936D02*
X4939229Y-16114365D01*
X4939229Y-16114365D02*
X4948753Y-16076269D01*
X4948753Y-16076269D02*
X4948753Y-16000079D01*
X4948753Y-16000079D02*
X4939229Y-15981031D01*
X4939229Y-15981031D02*
X4929705Y-15971508D01*
X4929705Y-15971508D02*
X4910658Y-15961984D01*
X4910658Y-15961984D02*
X4872563Y-15961984D01*
X4872563Y-15961984D02*
X4853515Y-15971508D01*
X4853515Y-15971508D02*
X4843991Y-15981031D01*
X4843991Y-15981031D02*
X4834467Y-16000079D01*
X4834467Y-16000079D02*
X4834467Y-16047698D01*
X4834467Y-16047698D02*
X4843991Y-16066746D01*
X4843991Y-16066746D02*
X4853515Y-16076269D01*
X4853515Y-16076269D02*
X4872563Y-16085793D01*
X4872563Y-16085793D02*
X4910658Y-16085793D01*
X4910658Y-16085793D02*
X4929705Y-16076269D01*
X4929705Y-16076269D02*
X4939229Y-16066746D01*
X4939229Y-16066746D02*
X4948753Y-16047698D01*
X5072563Y-15961984D02*
X5091610Y-15961984D01*
X5091610Y-15961984D02*
X5110658Y-15971508D01*
X5110658Y-15971508D02*
X5120182Y-15981031D01*
X5120182Y-15981031D02*
X5129705Y-16000079D01*
X5129705Y-16000079D02*
X5139229Y-16038174D01*
X5139229Y-16038174D02*
X5139229Y-16085793D01*
X5139229Y-16085793D02*
X5129705Y-16123888D01*
X5129705Y-16123888D02*
X5120182Y-16142936D01*
X5120182Y-16142936D02*
X5110658Y-16152460D01*
X5110658Y-16152460D02*
X5091610Y-16161984D01*
X5091610Y-16161984D02*
X5072563Y-16161984D01*
X5072563Y-16161984D02*
X5053515Y-16152460D01*
X5053515Y-16152460D02*
X5043991Y-16142936D01*
X5043991Y-16142936D02*
X5034467Y-16123888D01*
X5034467Y-16123888D02*
X5024944Y-16085793D01*
X5024944Y-16085793D02*
X5024944Y-16038174D01*
X5024944Y-16038174D02*
X5034467Y-16000079D01*
X5034467Y-16000079D02*
X5043991Y-15981031D01*
X5043991Y-15981031D02*
X5053515Y-15971508D01*
X5053515Y-15971508D02*
X5072563Y-15961984D01*
X5263039Y-15961984D02*
X5282086Y-15961984D01*
X5282086Y-15961984D02*
X5301134Y-15971508D01*
X5301134Y-15971508D02*
X5310658Y-15981031D01*
X5310658Y-15981031D02*
X5320182Y-16000079D01*
X5320182Y-16000079D02*
X5329705Y-16038174D01*
X5329705Y-16038174D02*
X5329705Y-16085793D01*
X5329705Y-16085793D02*
X5320182Y-16123888D01*
X5320182Y-16123888D02*
X5310658Y-16142936D01*
X5310658Y-16142936D02*
X5301134Y-16152460D01*
X5301134Y-16152460D02*
X5282086Y-16161984D01*
X5282086Y-16161984D02*
X5263039Y-16161984D01*
X5263039Y-16161984D02*
X5243991Y-16152460D01*
X5243991Y-16152460D02*
X5234467Y-16142936D01*
X5234467Y-16142936D02*
X5224944Y-16123888D01*
X5224944Y-16123888D02*
X5215420Y-16085793D01*
X5215420Y-16085793D02*
X5215420Y-16038174D01*
X5215420Y-16038174D02*
X5224944Y-16000079D01*
X5224944Y-16000079D02*
X5234467Y-15981031D01*
X5234467Y-15981031D02*
X5243991Y-15971508D01*
X5243991Y-15971508D02*
X5263039Y-15961984D01*
X5415420Y-16161984D02*
X5415420Y-16028650D01*
X5415420Y-16047698D02*
X5424944Y-16038174D01*
X5424944Y-16038174D02*
X5443991Y-16028650D01*
X5443991Y-16028650D02*
X5472563Y-16028650D01*
X5472563Y-16028650D02*
X5491610Y-16038174D01*
X5491610Y-16038174D02*
X5501134Y-16057222D01*
X5501134Y-16057222D02*
X5501134Y-16161984D01*
X5501134Y-16057222D02*
X5510658Y-16038174D01*
X5510658Y-16038174D02*
X5529705Y-16028650D01*
X5529705Y-16028650D02*
X5558277Y-16028650D01*
X5558277Y-16028650D02*
X5577325Y-16038174D01*
X5577325Y-16038174D02*
X5586848Y-16057222D01*
X5586848Y-16057222D02*
X5586848Y-16161984D01*
X5682086Y-16161984D02*
X5682086Y-16028650D01*
X5682086Y-16047698D02*
X5691610Y-16038174D01*
X5691610Y-16038174D02*
X5710658Y-16028650D01*
X5710658Y-16028650D02*
X5739229Y-16028650D01*
X5739229Y-16028650D02*
X5758277Y-16038174D01*
X5758277Y-16038174D02*
X5767801Y-16057222D01*
X5767801Y-16057222D02*
X5767801Y-16161984D01*
X5767801Y-16057222D02*
X5777324Y-16038174D01*
X5777324Y-16038174D02*
X5796372Y-16028650D01*
X5796372Y-16028650D02*
X5824943Y-16028650D01*
X5824943Y-16028650D02*
X5843991Y-16038174D01*
X5843991Y-16038174D02*
X5853515Y-16057222D01*
X5853515Y-16057222D02*
X5853515Y-16161984D01*
X6243991Y-15952460D02*
X6072563Y-16209603D01*
X6501134Y-15961984D02*
X6520182Y-15961984D01*
X6520182Y-15961984D02*
X6539229Y-15971508D01*
X6539229Y-15971508D02*
X6548753Y-15981031D01*
X6548753Y-15981031D02*
X6558277Y-16000079D01*
X6558277Y-16000079D02*
X6567801Y-16038174D01*
X6567801Y-16038174D02*
X6567801Y-16085793D01*
X6567801Y-16085793D02*
X6558277Y-16123888D01*
X6558277Y-16123888D02*
X6548753Y-16142936D01*
X6548753Y-16142936D02*
X6539229Y-16152460D01*
X6539229Y-16152460D02*
X6520182Y-16161984D01*
X6520182Y-16161984D02*
X6501134Y-16161984D01*
X6501134Y-16161984D02*
X6482086Y-16152460D01*
X6482086Y-16152460D02*
X6472563Y-16142936D01*
X6472563Y-16142936D02*
X6463039Y-16123888D01*
X6463039Y-16123888D02*
X6453515Y-16085793D01*
X6453515Y-16085793D02*
X6453515Y-16038174D01*
X6453515Y-16038174D02*
X6463039Y-16000079D01*
X6463039Y-16000079D02*
X6472563Y-15981031D01*
X6472563Y-15981031D02*
X6482086Y-15971508D01*
X6482086Y-15971508D02*
X6501134Y-15961984D01*
X6653515Y-16142936D02*
X6663039Y-16152460D01*
X6663039Y-16152460D02*
X6653515Y-16161984D01*
X6653515Y-16161984D02*
X6643991Y-16152460D01*
X6643991Y-16152460D02*
X6653515Y-16142936D01*
X6653515Y-16142936D02*
X6653515Y-16161984D01*
X6786848Y-15961984D02*
X6805896Y-15961984D01*
X6805896Y-15961984D02*
X6824944Y-15971508D01*
X6824944Y-15971508D02*
X6834467Y-15981031D01*
X6834467Y-15981031D02*
X6843991Y-16000079D01*
X6843991Y-16000079D02*
X6853515Y-16038174D01*
X6853515Y-16038174D02*
X6853515Y-16085793D01*
X6853515Y-16085793D02*
X6843991Y-16123888D01*
X6843991Y-16123888D02*
X6834467Y-16142936D01*
X6834467Y-16142936D02*
X6824944Y-16152460D01*
X6824944Y-16152460D02*
X6805896Y-16161984D01*
X6805896Y-16161984D02*
X6786848Y-16161984D01*
X6786848Y-16161984D02*
X6767801Y-16152460D01*
X6767801Y-16152460D02*
X6758277Y-16142936D01*
X6758277Y-16142936D02*
X6748753Y-16123888D01*
X6748753Y-16123888D02*
X6739229Y-16085793D01*
X6739229Y-16085793D02*
X6739229Y-16038174D01*
X6739229Y-16038174D02*
X6748753Y-16000079D01*
X6748753Y-16000079D02*
X6758277Y-15981031D01*
X6758277Y-15981031D02*
X6767801Y-15971508D01*
X6767801Y-15971508D02*
X6786848Y-15961984D01*
X6920182Y-15961984D02*
X7043991Y-15961984D01*
X7043991Y-15961984D02*
X6977325Y-16038174D01*
X6977325Y-16038174D02*
X7005896Y-16038174D01*
X7005896Y-16038174D02*
X7024944Y-16047698D01*
X7024944Y-16047698D02*
X7034467Y-16057222D01*
X7034467Y-16057222D02*
X7043991Y-16076269D01*
X7043991Y-16076269D02*
X7043991Y-16123888D01*
X7043991Y-16123888D02*
X7034467Y-16142936D01*
X7034467Y-16142936D02*
X7024944Y-16152460D01*
X7024944Y-16152460D02*
X7005896Y-16161984D01*
X7005896Y-16161984D02*
X6948753Y-16161984D01*
X6948753Y-16161984D02*
X6929706Y-16152460D01*
X6929706Y-16152460D02*
X6920182Y-16142936D01*
X7224944Y-15961984D02*
X7129706Y-15961984D01*
X7129706Y-15961984D02*
X7120182Y-16057222D01*
X7120182Y-16057222D02*
X7129706Y-16047698D01*
X7129706Y-16047698D02*
X7148753Y-16038174D01*
X7148753Y-16038174D02*
X7196372Y-16038174D01*
X7196372Y-16038174D02*
X7215420Y-16047698D01*
X7215420Y-16047698D02*
X7224944Y-16057222D01*
X7224944Y-16057222D02*
X7234467Y-16076269D01*
X7234467Y-16076269D02*
X7234467Y-16123888D01*
X7234467Y-16123888D02*
X7224944Y-16142936D01*
X7224944Y-16142936D02*
X7215420Y-16152460D01*
X7215420Y-16152460D02*
X7196372Y-16161984D01*
X7196372Y-16161984D02*
X7148753Y-16161984D01*
X7148753Y-16161984D02*
X7129706Y-16152460D01*
X7129706Y-16152460D02*
X7120182Y-16142936D01*
X7405896Y-16028650D02*
X7405896Y-16161984D01*
X7358277Y-15952460D02*
X7310658Y-16095317D01*
X7310658Y-16095317D02*
X7434467Y-16095317D01*
X7501134Y-15961984D02*
X7501134Y-16000079D01*
X7577325Y-15961984D02*
X7577325Y-16000079D01*
X7872563Y-16238174D02*
X7863039Y-16228650D01*
X7863039Y-16228650D02*
X7843991Y-16200079D01*
X7843991Y-16200079D02*
X7834468Y-16181031D01*
X7834468Y-16181031D02*
X7824944Y-16152460D01*
X7824944Y-16152460D02*
X7815420Y-16104841D01*
X7815420Y-16104841D02*
X7815420Y-16066746D01*
X7815420Y-16066746D02*
X7824944Y-16019127D01*
X7824944Y-16019127D02*
X7834468Y-15990555D01*
X7834468Y-15990555D02*
X7843991Y-15971508D01*
X7843991Y-15971508D02*
X7863039Y-15942936D01*
X7863039Y-15942936D02*
X7872563Y-15933412D01*
X8043991Y-15961984D02*
X7948753Y-15961984D01*
X7948753Y-15961984D02*
X7939229Y-16057222D01*
X7939229Y-16057222D02*
X7948753Y-16047698D01*
X7948753Y-16047698D02*
X7967801Y-16038174D01*
X7967801Y-16038174D02*
X8015420Y-16038174D01*
X8015420Y-16038174D02*
X8034468Y-16047698D01*
X8034468Y-16047698D02*
X8043991Y-16057222D01*
X8043991Y-16057222D02*
X8053515Y-16076269D01*
X8053515Y-16076269D02*
X8053515Y-16123888D01*
X8053515Y-16123888D02*
X8043991Y-16142936D01*
X8043991Y-16142936D02*
X8034468Y-16152460D01*
X8034468Y-16152460D02*
X8015420Y-16161984D01*
X8015420Y-16161984D02*
X7967801Y-16161984D01*
X7967801Y-16161984D02*
X7948753Y-16152460D01*
X7948753Y-16152460D02*
X7939229Y-16142936D01*
X8129706Y-15981031D02*
X8139229Y-15971508D01*
X8139229Y-15971508D02*
X8158277Y-15961984D01*
X8158277Y-15961984D02*
X8205896Y-15961984D01*
X8205896Y-15961984D02*
X8224944Y-15971508D01*
X8224944Y-15971508D02*
X8234468Y-15981031D01*
X8234468Y-15981031D02*
X8243991Y-16000079D01*
X8243991Y-16000079D02*
X8243991Y-16019127D01*
X8243991Y-16019127D02*
X8234468Y-16047698D01*
X8234468Y-16047698D02*
X8120182Y-16161984D01*
X8120182Y-16161984D02*
X8243991Y-16161984D01*
X8482087Y-16161984D02*
X8482087Y-15961984D01*
X8567801Y-16161984D02*
X8567801Y-16057222D01*
X8567801Y-16057222D02*
X8558277Y-16038174D01*
X8558277Y-16038174D02*
X8539230Y-16028650D01*
X8539230Y-16028650D02*
X8510658Y-16028650D01*
X8510658Y-16028650D02*
X8491611Y-16038174D01*
X8491611Y-16038174D02*
X8482087Y-16047698D01*
X8691611Y-16161984D02*
X8672563Y-16152460D01*
X8672563Y-16152460D02*
X8663039Y-16142936D01*
X8663039Y-16142936D02*
X8653515Y-16123888D01*
X8653515Y-16123888D02*
X8653515Y-16066746D01*
X8653515Y-16066746D02*
X8663039Y-16047698D01*
X8663039Y-16047698D02*
X8672563Y-16038174D01*
X8672563Y-16038174D02*
X8691611Y-16028650D01*
X8691611Y-16028650D02*
X8720182Y-16028650D01*
X8720182Y-16028650D02*
X8739230Y-16038174D01*
X8739230Y-16038174D02*
X8748753Y-16047698D01*
X8748753Y-16047698D02*
X8758277Y-16066746D01*
X8758277Y-16066746D02*
X8758277Y-16123888D01*
X8758277Y-16123888D02*
X8748753Y-16142936D01*
X8748753Y-16142936D02*
X8739230Y-16152460D01*
X8739230Y-16152460D02*
X8720182Y-16161984D01*
X8720182Y-16161984D02*
X8691611Y-16161984D01*
X8872563Y-16161984D02*
X8853515Y-16152460D01*
X8853515Y-16152460D02*
X8843992Y-16133412D01*
X8843992Y-16133412D02*
X8843992Y-15961984D01*
X9024944Y-16152460D02*
X9005896Y-16161984D01*
X9005896Y-16161984D02*
X8967801Y-16161984D01*
X8967801Y-16161984D02*
X8948753Y-16152460D01*
X8948753Y-16152460D02*
X8939230Y-16133412D01*
X8939230Y-16133412D02*
X8939230Y-16057222D01*
X8939230Y-16057222D02*
X8948753Y-16038174D01*
X8948753Y-16038174D02*
X8967801Y-16028650D01*
X8967801Y-16028650D02*
X9005896Y-16028650D01*
X9005896Y-16028650D02*
X9024944Y-16038174D01*
X9024944Y-16038174D02*
X9034468Y-16057222D01*
X9034468Y-16057222D02*
X9034468Y-16076269D01*
X9034468Y-16076269D02*
X8939230Y-16095317D01*
X9110658Y-16152460D02*
X9129706Y-16161984D01*
X9129706Y-16161984D02*
X9167801Y-16161984D01*
X9167801Y-16161984D02*
X9186849Y-16152460D01*
X9186849Y-16152460D02*
X9196373Y-16133412D01*
X9196373Y-16133412D02*
X9196373Y-16123888D01*
X9196373Y-16123888D02*
X9186849Y-16104841D01*
X9186849Y-16104841D02*
X9167801Y-16095317D01*
X9167801Y-16095317D02*
X9139230Y-16095317D01*
X9139230Y-16095317D02*
X9120182Y-16085793D01*
X9120182Y-16085793D02*
X9110658Y-16066746D01*
X9110658Y-16066746D02*
X9110658Y-16057222D01*
X9110658Y-16057222D02*
X9120182Y-16038174D01*
X9120182Y-16038174D02*
X9139230Y-16028650D01*
X9139230Y-16028650D02*
X9167801Y-16028650D01*
X9167801Y-16028650D02*
X9186849Y-16038174D01*
X9263039Y-16238174D02*
X9272563Y-16228650D01*
X9272563Y-16228650D02*
X9291611Y-16200079D01*
X9291611Y-16200079D02*
X9301134Y-16181031D01*
X9301134Y-16181031D02*
X9310658Y-16152460D01*
X9310658Y-16152460D02*
X9320182Y-16104841D01*
X9320182Y-16104841D02*
X9320182Y-16066746D01*
X9320182Y-16066746D02*
X9310658Y-16019127D01*
X9310658Y-16019127D02*
X9301134Y-15990555D01*
X9301134Y-15990555D02*
X9291611Y-15971508D01*
X9291611Y-15971508D02*
X9272563Y-15942936D01*
X9272563Y-15942936D02*
X9263039Y-15933412D01*
D15*
X4282856Y-16369856D02*
X4282856Y-16299144D01*
X4212144Y-16299144D01*
X4212144Y-16369856D01*
X4282856Y-16369856D01*
D11*
X4663039Y-16425984D02*
X4548753Y-16425984D01*
X4605896Y-16425984D02*
X4605896Y-16225984D01*
X4605896Y-16225984D02*
X4586848Y-16254555D01*
X4586848Y-16254555D02*
X4567801Y-16273603D01*
X4567801Y-16273603D02*
X4548753Y-16283127D01*
X4748753Y-16406936D02*
X4758277Y-16416460D01*
X4758277Y-16416460D02*
X4748753Y-16425984D01*
X4748753Y-16425984D02*
X4739229Y-16416460D01*
X4739229Y-16416460D02*
X4748753Y-16406936D01*
X4748753Y-16406936D02*
X4748753Y-16425984D01*
X4882086Y-16225984D02*
X4901134Y-16225984D01*
X4901134Y-16225984D02*
X4920182Y-16235508D01*
X4920182Y-16235508D02*
X4929705Y-16245031D01*
X4929705Y-16245031D02*
X4939229Y-16264079D01*
X4939229Y-16264079D02*
X4948753Y-16302174D01*
X4948753Y-16302174D02*
X4948753Y-16349793D01*
X4948753Y-16349793D02*
X4939229Y-16387888D01*
X4939229Y-16387888D02*
X4929705Y-16406936D01*
X4929705Y-16406936D02*
X4920182Y-16416460D01*
X4920182Y-16416460D02*
X4901134Y-16425984D01*
X4901134Y-16425984D02*
X4882086Y-16425984D01*
X4882086Y-16425984D02*
X4863039Y-16416460D01*
X4863039Y-16416460D02*
X4853515Y-16406936D01*
X4853515Y-16406936D02*
X4843991Y-16387888D01*
X4843991Y-16387888D02*
X4834467Y-16349793D01*
X4834467Y-16349793D02*
X4834467Y-16302174D01*
X4834467Y-16302174D02*
X4843991Y-16264079D01*
X4843991Y-16264079D02*
X4853515Y-16245031D01*
X4853515Y-16245031D02*
X4863039Y-16235508D01*
X4863039Y-16235508D02*
X4882086Y-16225984D01*
X5072563Y-16225984D02*
X5091610Y-16225984D01*
X5091610Y-16225984D02*
X5110658Y-16235508D01*
X5110658Y-16235508D02*
X5120182Y-16245031D01*
X5120182Y-16245031D02*
X5129705Y-16264079D01*
X5129705Y-16264079D02*
X5139229Y-16302174D01*
X5139229Y-16302174D02*
X5139229Y-16349793D01*
X5139229Y-16349793D02*
X5129705Y-16387888D01*
X5129705Y-16387888D02*
X5120182Y-16406936D01*
X5120182Y-16406936D02*
X5110658Y-16416460D01*
X5110658Y-16416460D02*
X5091610Y-16425984D01*
X5091610Y-16425984D02*
X5072563Y-16425984D01*
X5072563Y-16425984D02*
X5053515Y-16416460D01*
X5053515Y-16416460D02*
X5043991Y-16406936D01*
X5043991Y-16406936D02*
X5034467Y-16387888D01*
X5034467Y-16387888D02*
X5024944Y-16349793D01*
X5024944Y-16349793D02*
X5024944Y-16302174D01*
X5024944Y-16302174D02*
X5034467Y-16264079D01*
X5034467Y-16264079D02*
X5043991Y-16245031D01*
X5043991Y-16245031D02*
X5053515Y-16235508D01*
X5053515Y-16235508D02*
X5072563Y-16225984D01*
X5263039Y-16225984D02*
X5282086Y-16225984D01*
X5282086Y-16225984D02*
X5301134Y-16235508D01*
X5301134Y-16235508D02*
X5310658Y-16245031D01*
X5310658Y-16245031D02*
X5320182Y-16264079D01*
X5320182Y-16264079D02*
X5329705Y-16302174D01*
X5329705Y-16302174D02*
X5329705Y-16349793D01*
X5329705Y-16349793D02*
X5320182Y-16387888D01*
X5320182Y-16387888D02*
X5310658Y-16406936D01*
X5310658Y-16406936D02*
X5301134Y-16416460D01*
X5301134Y-16416460D02*
X5282086Y-16425984D01*
X5282086Y-16425984D02*
X5263039Y-16425984D01*
X5263039Y-16425984D02*
X5243991Y-16416460D01*
X5243991Y-16416460D02*
X5234467Y-16406936D01*
X5234467Y-16406936D02*
X5224944Y-16387888D01*
X5224944Y-16387888D02*
X5215420Y-16349793D01*
X5215420Y-16349793D02*
X5215420Y-16302174D01*
X5215420Y-16302174D02*
X5224944Y-16264079D01*
X5224944Y-16264079D02*
X5234467Y-16245031D01*
X5234467Y-16245031D02*
X5243991Y-16235508D01*
X5243991Y-16235508D02*
X5263039Y-16225984D01*
X5415420Y-16425984D02*
X5415420Y-16292650D01*
X5415420Y-16311698D02*
X5424944Y-16302174D01*
X5424944Y-16302174D02*
X5443991Y-16292650D01*
X5443991Y-16292650D02*
X5472563Y-16292650D01*
X5472563Y-16292650D02*
X5491610Y-16302174D01*
X5491610Y-16302174D02*
X5501134Y-16321222D01*
X5501134Y-16321222D02*
X5501134Y-16425984D01*
X5501134Y-16321222D02*
X5510658Y-16302174D01*
X5510658Y-16302174D02*
X5529705Y-16292650D01*
X5529705Y-16292650D02*
X5558277Y-16292650D01*
X5558277Y-16292650D02*
X5577325Y-16302174D01*
X5577325Y-16302174D02*
X5586848Y-16321222D01*
X5586848Y-16321222D02*
X5586848Y-16425984D01*
X5682086Y-16425984D02*
X5682086Y-16292650D01*
X5682086Y-16311698D02*
X5691610Y-16302174D01*
X5691610Y-16302174D02*
X5710658Y-16292650D01*
X5710658Y-16292650D02*
X5739229Y-16292650D01*
X5739229Y-16292650D02*
X5758277Y-16302174D01*
X5758277Y-16302174D02*
X5767801Y-16321222D01*
X5767801Y-16321222D02*
X5767801Y-16425984D01*
X5767801Y-16321222D02*
X5777324Y-16302174D01*
X5777324Y-16302174D02*
X5796372Y-16292650D01*
X5796372Y-16292650D02*
X5824943Y-16292650D01*
X5824943Y-16292650D02*
X5843991Y-16302174D01*
X5843991Y-16302174D02*
X5853515Y-16321222D01*
X5853515Y-16321222D02*
X5853515Y-16425984D01*
X6243991Y-16216460D02*
X6072563Y-16473603D01*
X6501134Y-16225984D02*
X6520182Y-16225984D01*
X6520182Y-16225984D02*
X6539229Y-16235508D01*
X6539229Y-16235508D02*
X6548753Y-16245031D01*
X6548753Y-16245031D02*
X6558277Y-16264079D01*
X6558277Y-16264079D02*
X6567801Y-16302174D01*
X6567801Y-16302174D02*
X6567801Y-16349793D01*
X6567801Y-16349793D02*
X6558277Y-16387888D01*
X6558277Y-16387888D02*
X6548753Y-16406936D01*
X6548753Y-16406936D02*
X6539229Y-16416460D01*
X6539229Y-16416460D02*
X6520182Y-16425984D01*
X6520182Y-16425984D02*
X6501134Y-16425984D01*
X6501134Y-16425984D02*
X6482086Y-16416460D01*
X6482086Y-16416460D02*
X6472563Y-16406936D01*
X6472563Y-16406936D02*
X6463039Y-16387888D01*
X6463039Y-16387888D02*
X6453515Y-16349793D01*
X6453515Y-16349793D02*
X6453515Y-16302174D01*
X6453515Y-16302174D02*
X6463039Y-16264079D01*
X6463039Y-16264079D02*
X6472563Y-16245031D01*
X6472563Y-16245031D02*
X6482086Y-16235508D01*
X6482086Y-16235508D02*
X6501134Y-16225984D01*
X6653515Y-16406936D02*
X6663039Y-16416460D01*
X6663039Y-16416460D02*
X6653515Y-16425984D01*
X6653515Y-16425984D02*
X6643991Y-16416460D01*
X6643991Y-16416460D02*
X6653515Y-16406936D01*
X6653515Y-16406936D02*
X6653515Y-16425984D01*
X6786848Y-16225984D02*
X6805896Y-16225984D01*
X6805896Y-16225984D02*
X6824944Y-16235508D01*
X6824944Y-16235508D02*
X6834467Y-16245031D01*
X6834467Y-16245031D02*
X6843991Y-16264079D01*
X6843991Y-16264079D02*
X6853515Y-16302174D01*
X6853515Y-16302174D02*
X6853515Y-16349793D01*
X6853515Y-16349793D02*
X6843991Y-16387888D01*
X6843991Y-16387888D02*
X6834467Y-16406936D01*
X6834467Y-16406936D02*
X6824944Y-16416460D01*
X6824944Y-16416460D02*
X6805896Y-16425984D01*
X6805896Y-16425984D02*
X6786848Y-16425984D01*
X6786848Y-16425984D02*
X6767801Y-16416460D01*
X6767801Y-16416460D02*
X6758277Y-16406936D01*
X6758277Y-16406936D02*
X6748753Y-16387888D01*
X6748753Y-16387888D02*
X6739229Y-16349793D01*
X6739229Y-16349793D02*
X6739229Y-16302174D01*
X6739229Y-16302174D02*
X6748753Y-16264079D01*
X6748753Y-16264079D02*
X6758277Y-16245031D01*
X6758277Y-16245031D02*
X6767801Y-16235508D01*
X6767801Y-16235508D02*
X6786848Y-16225984D01*
X6920182Y-16225984D02*
X7043991Y-16225984D01*
X7043991Y-16225984D02*
X6977325Y-16302174D01*
X6977325Y-16302174D02*
X7005896Y-16302174D01*
X7005896Y-16302174D02*
X7024944Y-16311698D01*
X7024944Y-16311698D02*
X7034467Y-16321222D01*
X7034467Y-16321222D02*
X7043991Y-16340269D01*
X7043991Y-16340269D02*
X7043991Y-16387888D01*
X7043991Y-16387888D02*
X7034467Y-16406936D01*
X7034467Y-16406936D02*
X7024944Y-16416460D01*
X7024944Y-16416460D02*
X7005896Y-16425984D01*
X7005896Y-16425984D02*
X6948753Y-16425984D01*
X6948753Y-16425984D02*
X6929706Y-16416460D01*
X6929706Y-16416460D02*
X6920182Y-16406936D01*
X7139229Y-16425984D02*
X7177325Y-16425984D01*
X7177325Y-16425984D02*
X7196372Y-16416460D01*
X7196372Y-16416460D02*
X7205896Y-16406936D01*
X7205896Y-16406936D02*
X7224944Y-16378365D01*
X7224944Y-16378365D02*
X7234467Y-16340269D01*
X7234467Y-16340269D02*
X7234467Y-16264079D01*
X7234467Y-16264079D02*
X7224944Y-16245031D01*
X7224944Y-16245031D02*
X7215420Y-16235508D01*
X7215420Y-16235508D02*
X7196372Y-16225984D01*
X7196372Y-16225984D02*
X7158277Y-16225984D01*
X7158277Y-16225984D02*
X7139229Y-16235508D01*
X7139229Y-16235508D02*
X7129706Y-16245031D01*
X7129706Y-16245031D02*
X7120182Y-16264079D01*
X7120182Y-16264079D02*
X7120182Y-16311698D01*
X7120182Y-16311698D02*
X7129706Y-16330746D01*
X7129706Y-16330746D02*
X7139229Y-16340269D01*
X7139229Y-16340269D02*
X7158277Y-16349793D01*
X7158277Y-16349793D02*
X7196372Y-16349793D01*
X7196372Y-16349793D02*
X7215420Y-16340269D01*
X7215420Y-16340269D02*
X7224944Y-16330746D01*
X7224944Y-16330746D02*
X7234467Y-16311698D01*
X7405896Y-16292650D02*
X7405896Y-16425984D01*
X7358277Y-16216460D02*
X7310658Y-16359317D01*
X7310658Y-16359317D02*
X7434467Y-16359317D01*
X7501134Y-16225984D02*
X7501134Y-16264079D01*
X7577325Y-16225984D02*
X7577325Y-16264079D01*
X7872563Y-16502174D02*
X7863039Y-16492650D01*
X7863039Y-16492650D02*
X7843991Y-16464079D01*
X7843991Y-16464079D02*
X7834468Y-16445031D01*
X7834468Y-16445031D02*
X7824944Y-16416460D01*
X7824944Y-16416460D02*
X7815420Y-16368841D01*
X7815420Y-16368841D02*
X7815420Y-16330746D01*
X7815420Y-16330746D02*
X7824944Y-16283127D01*
X7824944Y-16283127D02*
X7834468Y-16254555D01*
X7834468Y-16254555D02*
X7843991Y-16235508D01*
X7843991Y-16235508D02*
X7863039Y-16206936D01*
X7863039Y-16206936D02*
X7872563Y-16197412D01*
X7986848Y-16225984D02*
X8005896Y-16225984D01*
X8005896Y-16225984D02*
X8024944Y-16235508D01*
X8024944Y-16235508D02*
X8034468Y-16245031D01*
X8034468Y-16245031D02*
X8043991Y-16264079D01*
X8043991Y-16264079D02*
X8053515Y-16302174D01*
X8053515Y-16302174D02*
X8053515Y-16349793D01*
X8053515Y-16349793D02*
X8043991Y-16387888D01*
X8043991Y-16387888D02*
X8034468Y-16406936D01*
X8034468Y-16406936D02*
X8024944Y-16416460D01*
X8024944Y-16416460D02*
X8005896Y-16425984D01*
X8005896Y-16425984D02*
X7986848Y-16425984D01*
X7986848Y-16425984D02*
X7967801Y-16416460D01*
X7967801Y-16416460D02*
X7958277Y-16406936D01*
X7958277Y-16406936D02*
X7948753Y-16387888D01*
X7948753Y-16387888D02*
X7939229Y-16349793D01*
X7939229Y-16349793D02*
X7939229Y-16302174D01*
X7939229Y-16302174D02*
X7948753Y-16264079D01*
X7948753Y-16264079D02*
X7958277Y-16245031D01*
X7958277Y-16245031D02*
X7967801Y-16235508D01*
X7967801Y-16235508D02*
X7986848Y-16225984D01*
X8291610Y-16425984D02*
X8291610Y-16225984D01*
X8377325Y-16425984D02*
X8377325Y-16321222D01*
X8377325Y-16321222D02*
X8367801Y-16302174D01*
X8367801Y-16302174D02*
X8348753Y-16292650D01*
X8348753Y-16292650D02*
X8320182Y-16292650D01*
X8320182Y-16292650D02*
X8301134Y-16302174D01*
X8301134Y-16302174D02*
X8291610Y-16311698D01*
X8501134Y-16425984D02*
X8482087Y-16416460D01*
X8482087Y-16416460D02*
X8472563Y-16406936D01*
X8472563Y-16406936D02*
X8463039Y-16387888D01*
X8463039Y-16387888D02*
X8463039Y-16330746D01*
X8463039Y-16330746D02*
X8472563Y-16311698D01*
X8472563Y-16311698D02*
X8482087Y-16302174D01*
X8482087Y-16302174D02*
X8501134Y-16292650D01*
X8501134Y-16292650D02*
X8529706Y-16292650D01*
X8529706Y-16292650D02*
X8548753Y-16302174D01*
X8548753Y-16302174D02*
X8558277Y-16311698D01*
X8558277Y-16311698D02*
X8567801Y-16330746D01*
X8567801Y-16330746D02*
X8567801Y-16387888D01*
X8567801Y-16387888D02*
X8558277Y-16406936D01*
X8558277Y-16406936D02*
X8548753Y-16416460D01*
X8548753Y-16416460D02*
X8529706Y-16425984D01*
X8529706Y-16425984D02*
X8501134Y-16425984D01*
X8682087Y-16425984D02*
X8663039Y-16416460D01*
X8663039Y-16416460D02*
X8653515Y-16397412D01*
X8653515Y-16397412D02*
X8653515Y-16225984D01*
X8834468Y-16416460D02*
X8815420Y-16425984D01*
X8815420Y-16425984D02*
X8777325Y-16425984D01*
X8777325Y-16425984D02*
X8758277Y-16416460D01*
X8758277Y-16416460D02*
X8748753Y-16397412D01*
X8748753Y-16397412D02*
X8748753Y-16321222D01*
X8748753Y-16321222D02*
X8758277Y-16302174D01*
X8758277Y-16302174D02*
X8777325Y-16292650D01*
X8777325Y-16292650D02*
X8815420Y-16292650D01*
X8815420Y-16292650D02*
X8834468Y-16302174D01*
X8834468Y-16302174D02*
X8843992Y-16321222D01*
X8843992Y-16321222D02*
X8843992Y-16340269D01*
X8843992Y-16340269D02*
X8748753Y-16359317D01*
X8920182Y-16416460D02*
X8939230Y-16425984D01*
X8939230Y-16425984D02*
X8977325Y-16425984D01*
X8977325Y-16425984D02*
X8996373Y-16416460D01*
X8996373Y-16416460D02*
X9005896Y-16397412D01*
X9005896Y-16397412D02*
X9005896Y-16387888D01*
X9005896Y-16387888D02*
X8996373Y-16368841D01*
X8996373Y-16368841D02*
X8977325Y-16359317D01*
X8977325Y-16359317D02*
X8948753Y-16359317D01*
X8948753Y-16359317D02*
X8929706Y-16349793D01*
X8929706Y-16349793D02*
X8920182Y-16330746D01*
X8920182Y-16330746D02*
X8920182Y-16321222D01*
X8920182Y-16321222D02*
X8929706Y-16302174D01*
X8929706Y-16302174D02*
X8948753Y-16292650D01*
X8948753Y-16292650D02*
X8977325Y-16292650D01*
X8977325Y-16292650D02*
X8996373Y-16302174D01*
X9243992Y-16349793D02*
X9396373Y-16349793D01*
X9320182Y-16425984D02*
X9320182Y-16273603D01*
X9624944Y-16225984D02*
X9748754Y-16225984D01*
X9748754Y-16225984D02*
X9682087Y-16302174D01*
X9682087Y-16302174D02*
X9710658Y-16302174D01*
X9710658Y-16302174D02*
X9729706Y-16311698D01*
X9729706Y-16311698D02*
X9739230Y-16321222D01*
X9739230Y-16321222D02*
X9748754Y-16340269D01*
X9748754Y-16340269D02*
X9748754Y-16387888D01*
X9748754Y-16387888D02*
X9739230Y-16406936D01*
X9739230Y-16406936D02*
X9729706Y-16416460D01*
X9729706Y-16416460D02*
X9710658Y-16425984D01*
X9710658Y-16425984D02*
X9653515Y-16425984D01*
X9653515Y-16425984D02*
X9634468Y-16416460D01*
X9634468Y-16416460D02*
X9624944Y-16406936D01*
X9977325Y-16416460D02*
X9996373Y-16425984D01*
X9996373Y-16425984D02*
X10034468Y-16425984D01*
X10034468Y-16425984D02*
X10053516Y-16416460D01*
X10053516Y-16416460D02*
X10063039Y-16397412D01*
X10063039Y-16397412D02*
X10063039Y-16387888D01*
X10063039Y-16387888D02*
X10053516Y-16368841D01*
X10053516Y-16368841D02*
X10034468Y-16359317D01*
X10034468Y-16359317D02*
X10005896Y-16359317D01*
X10005896Y-16359317D02*
X9986849Y-16349793D01*
X9986849Y-16349793D02*
X9977325Y-16330746D01*
X9977325Y-16330746D02*
X9977325Y-16321222D01*
X9977325Y-16321222D02*
X9986849Y-16302174D01*
X9986849Y-16302174D02*
X10005896Y-16292650D01*
X10005896Y-16292650D02*
X10034468Y-16292650D01*
X10034468Y-16292650D02*
X10053516Y-16302174D01*
X10177325Y-16425984D02*
X10158277Y-16416460D01*
X10158277Y-16416460D02*
X10148754Y-16397412D01*
X10148754Y-16397412D02*
X10148754Y-16225984D01*
X10282087Y-16425984D02*
X10263039Y-16416460D01*
X10263039Y-16416460D02*
X10253516Y-16406936D01*
X10253516Y-16406936D02*
X10243992Y-16387888D01*
X10243992Y-16387888D02*
X10243992Y-16330746D01*
X10243992Y-16330746D02*
X10253516Y-16311698D01*
X10253516Y-16311698D02*
X10263039Y-16302174D01*
X10263039Y-16302174D02*
X10282087Y-16292650D01*
X10282087Y-16292650D02*
X10310658Y-16292650D01*
X10310658Y-16292650D02*
X10329706Y-16302174D01*
X10329706Y-16302174D02*
X10339230Y-16311698D01*
X10339230Y-16311698D02*
X10348754Y-16330746D01*
X10348754Y-16330746D02*
X10348754Y-16387888D01*
X10348754Y-16387888D02*
X10339230Y-16406936D01*
X10339230Y-16406936D02*
X10329706Y-16416460D01*
X10329706Y-16416460D02*
X10310658Y-16425984D01*
X10310658Y-16425984D02*
X10282087Y-16425984D01*
X10405897Y-16292650D02*
X10482087Y-16292650D01*
X10434468Y-16225984D02*
X10434468Y-16397412D01*
X10434468Y-16397412D02*
X10443992Y-16416460D01*
X10443992Y-16416460D02*
X10463039Y-16425984D01*
X10463039Y-16425984D02*
X10482087Y-16425984D01*
X10539230Y-16416460D02*
X10558277Y-16425984D01*
X10558277Y-16425984D02*
X10596373Y-16425984D01*
X10596373Y-16425984D02*
X10615420Y-16416460D01*
X10615420Y-16416460D02*
X10624944Y-16397412D01*
X10624944Y-16397412D02*
X10624944Y-16387888D01*
X10624944Y-16387888D02*
X10615420Y-16368841D01*
X10615420Y-16368841D02*
X10596373Y-16359317D01*
X10596373Y-16359317D02*
X10567801Y-16359317D01*
X10567801Y-16359317D02*
X10548754Y-16349793D01*
X10548754Y-16349793D02*
X10539230Y-16330746D01*
X10539230Y-16330746D02*
X10539230Y-16321222D01*
X10539230Y-16321222D02*
X10548754Y-16302174D01*
X10548754Y-16302174D02*
X10567801Y-16292650D01*
X10567801Y-16292650D02*
X10596373Y-16292650D01*
X10596373Y-16292650D02*
X10615420Y-16302174D01*
X10691611Y-16502174D02*
X10701135Y-16492650D01*
X10701135Y-16492650D02*
X10720182Y-16464079D01*
X10720182Y-16464079D02*
X10729706Y-16445031D01*
X10729706Y-16445031D02*
X10739230Y-16416460D01*
X10739230Y-16416460D02*
X10748754Y-16368841D01*
X10748754Y-16368841D02*
X10748754Y-16330746D01*
X10748754Y-16330746D02*
X10739230Y-16283127D01*
X10739230Y-16283127D02*
X10729706Y-16254555D01*
X10729706Y-16254555D02*
X10720182Y-16235508D01*
X10720182Y-16235508D02*
X10701135Y-16206936D01*
X10701135Y-16206936D02*
X10691611Y-16197412D01*
D16*
X4242500Y-16653500D02*
X4297500Y-16598500D01*
X4242500Y-16543500D01*
X4187500Y-16598500D01*
X4242500Y-16653500D01*
D11*
X4663039Y-16689984D02*
X4548753Y-16689984D01*
X4605896Y-16689984D02*
X4605896Y-16489984D01*
X4605896Y-16489984D02*
X4586848Y-16518555D01*
X4586848Y-16518555D02*
X4567801Y-16537603D01*
X4567801Y-16537603D02*
X4548753Y-16547127D01*
X4748753Y-16670936D02*
X4758277Y-16680460D01*
X4758277Y-16680460D02*
X4748753Y-16689984D01*
X4748753Y-16689984D02*
X4739229Y-16680460D01*
X4739229Y-16680460D02*
X4748753Y-16670936D01*
X4748753Y-16670936D02*
X4748753Y-16689984D01*
X4948753Y-16689984D02*
X4834467Y-16689984D01*
X4891610Y-16689984D02*
X4891610Y-16489984D01*
X4891610Y-16489984D02*
X4872563Y-16518555D01*
X4872563Y-16518555D02*
X4853515Y-16537603D01*
X4853515Y-16537603D02*
X4834467Y-16547127D01*
X5072563Y-16489984D02*
X5091610Y-16489984D01*
X5091610Y-16489984D02*
X5110658Y-16499508D01*
X5110658Y-16499508D02*
X5120182Y-16509031D01*
X5120182Y-16509031D02*
X5129705Y-16528079D01*
X5129705Y-16528079D02*
X5139229Y-16566174D01*
X5139229Y-16566174D02*
X5139229Y-16613793D01*
X5139229Y-16613793D02*
X5129705Y-16651888D01*
X5129705Y-16651888D02*
X5120182Y-16670936D01*
X5120182Y-16670936D02*
X5110658Y-16680460D01*
X5110658Y-16680460D02*
X5091610Y-16689984D01*
X5091610Y-16689984D02*
X5072563Y-16689984D01*
X5072563Y-16689984D02*
X5053515Y-16680460D01*
X5053515Y-16680460D02*
X5043991Y-16670936D01*
X5043991Y-16670936D02*
X5034467Y-16651888D01*
X5034467Y-16651888D02*
X5024944Y-16613793D01*
X5024944Y-16613793D02*
X5024944Y-16566174D01*
X5024944Y-16566174D02*
X5034467Y-16528079D01*
X5034467Y-16528079D02*
X5043991Y-16509031D01*
X5043991Y-16509031D02*
X5053515Y-16499508D01*
X5053515Y-16499508D02*
X5072563Y-16489984D01*
X5263039Y-16489984D02*
X5282086Y-16489984D01*
X5282086Y-16489984D02*
X5301134Y-16499508D01*
X5301134Y-16499508D02*
X5310658Y-16509031D01*
X5310658Y-16509031D02*
X5320182Y-16528079D01*
X5320182Y-16528079D02*
X5329705Y-16566174D01*
X5329705Y-16566174D02*
X5329705Y-16613793D01*
X5329705Y-16613793D02*
X5320182Y-16651888D01*
X5320182Y-16651888D02*
X5310658Y-16670936D01*
X5310658Y-16670936D02*
X5301134Y-16680460D01*
X5301134Y-16680460D02*
X5282086Y-16689984D01*
X5282086Y-16689984D02*
X5263039Y-16689984D01*
X5263039Y-16689984D02*
X5243991Y-16680460D01*
X5243991Y-16680460D02*
X5234467Y-16670936D01*
X5234467Y-16670936D02*
X5224944Y-16651888D01*
X5224944Y-16651888D02*
X5215420Y-16613793D01*
X5215420Y-16613793D02*
X5215420Y-16566174D01*
X5215420Y-16566174D02*
X5224944Y-16528079D01*
X5224944Y-16528079D02*
X5234467Y-16509031D01*
X5234467Y-16509031D02*
X5243991Y-16499508D01*
X5243991Y-16499508D02*
X5263039Y-16489984D01*
X5415420Y-16689984D02*
X5415420Y-16556650D01*
X5415420Y-16575698D02*
X5424944Y-16566174D01*
X5424944Y-16566174D02*
X5443991Y-16556650D01*
X5443991Y-16556650D02*
X5472563Y-16556650D01*
X5472563Y-16556650D02*
X5491610Y-16566174D01*
X5491610Y-16566174D02*
X5501134Y-16585222D01*
X5501134Y-16585222D02*
X5501134Y-16689984D01*
X5501134Y-16585222D02*
X5510658Y-16566174D01*
X5510658Y-16566174D02*
X5529705Y-16556650D01*
X5529705Y-16556650D02*
X5558277Y-16556650D01*
X5558277Y-16556650D02*
X5577325Y-16566174D01*
X5577325Y-16566174D02*
X5586848Y-16585222D01*
X5586848Y-16585222D02*
X5586848Y-16689984D01*
X5682086Y-16689984D02*
X5682086Y-16556650D01*
X5682086Y-16575698D02*
X5691610Y-16566174D01*
X5691610Y-16566174D02*
X5710658Y-16556650D01*
X5710658Y-16556650D02*
X5739229Y-16556650D01*
X5739229Y-16556650D02*
X5758277Y-16566174D01*
X5758277Y-16566174D02*
X5767801Y-16585222D01*
X5767801Y-16585222D02*
X5767801Y-16689984D01*
X5767801Y-16585222D02*
X5777324Y-16566174D01*
X5777324Y-16566174D02*
X5796372Y-16556650D01*
X5796372Y-16556650D02*
X5824943Y-16556650D01*
X5824943Y-16556650D02*
X5843991Y-16566174D01*
X5843991Y-16566174D02*
X5853515Y-16585222D01*
X5853515Y-16585222D02*
X5853515Y-16689984D01*
X6243991Y-16480460D02*
X6072563Y-16737603D01*
X6501134Y-16489984D02*
X6520182Y-16489984D01*
X6520182Y-16489984D02*
X6539229Y-16499508D01*
X6539229Y-16499508D02*
X6548753Y-16509031D01*
X6548753Y-16509031D02*
X6558277Y-16528079D01*
X6558277Y-16528079D02*
X6567801Y-16566174D01*
X6567801Y-16566174D02*
X6567801Y-16613793D01*
X6567801Y-16613793D02*
X6558277Y-16651888D01*
X6558277Y-16651888D02*
X6548753Y-16670936D01*
X6548753Y-16670936D02*
X6539229Y-16680460D01*
X6539229Y-16680460D02*
X6520182Y-16689984D01*
X6520182Y-16689984D02*
X6501134Y-16689984D01*
X6501134Y-16689984D02*
X6482086Y-16680460D01*
X6482086Y-16680460D02*
X6472563Y-16670936D01*
X6472563Y-16670936D02*
X6463039Y-16651888D01*
X6463039Y-16651888D02*
X6453515Y-16613793D01*
X6453515Y-16613793D02*
X6453515Y-16566174D01*
X6453515Y-16566174D02*
X6463039Y-16528079D01*
X6463039Y-16528079D02*
X6472563Y-16509031D01*
X6472563Y-16509031D02*
X6482086Y-16499508D01*
X6482086Y-16499508D02*
X6501134Y-16489984D01*
X6653515Y-16670936D02*
X6663039Y-16680460D01*
X6663039Y-16680460D02*
X6653515Y-16689984D01*
X6653515Y-16689984D02*
X6643991Y-16680460D01*
X6643991Y-16680460D02*
X6653515Y-16670936D01*
X6653515Y-16670936D02*
X6653515Y-16689984D01*
X6786848Y-16489984D02*
X6805896Y-16489984D01*
X6805896Y-16489984D02*
X6824944Y-16499508D01*
X6824944Y-16499508D02*
X6834467Y-16509031D01*
X6834467Y-16509031D02*
X6843991Y-16528079D01*
X6843991Y-16528079D02*
X6853515Y-16566174D01*
X6853515Y-16566174D02*
X6853515Y-16613793D01*
X6853515Y-16613793D02*
X6843991Y-16651888D01*
X6843991Y-16651888D02*
X6834467Y-16670936D01*
X6834467Y-16670936D02*
X6824944Y-16680460D01*
X6824944Y-16680460D02*
X6805896Y-16689984D01*
X6805896Y-16689984D02*
X6786848Y-16689984D01*
X6786848Y-16689984D02*
X6767801Y-16680460D01*
X6767801Y-16680460D02*
X6758277Y-16670936D01*
X6758277Y-16670936D02*
X6748753Y-16651888D01*
X6748753Y-16651888D02*
X6739229Y-16613793D01*
X6739229Y-16613793D02*
X6739229Y-16566174D01*
X6739229Y-16566174D02*
X6748753Y-16528079D01*
X6748753Y-16528079D02*
X6758277Y-16509031D01*
X6758277Y-16509031D02*
X6767801Y-16499508D01*
X6767801Y-16499508D02*
X6786848Y-16489984D01*
X7024944Y-16556650D02*
X7024944Y-16689984D01*
X6977325Y-16480460D02*
X6929706Y-16623317D01*
X6929706Y-16623317D02*
X7053515Y-16623317D01*
X7110658Y-16489984D02*
X7234467Y-16489984D01*
X7234467Y-16489984D02*
X7167801Y-16566174D01*
X7167801Y-16566174D02*
X7196372Y-16566174D01*
X7196372Y-16566174D02*
X7215420Y-16575698D01*
X7215420Y-16575698D02*
X7224944Y-16585222D01*
X7224944Y-16585222D02*
X7234467Y-16604269D01*
X7234467Y-16604269D02*
X7234467Y-16651888D01*
X7234467Y-16651888D02*
X7224944Y-16670936D01*
X7224944Y-16670936D02*
X7215420Y-16680460D01*
X7215420Y-16680460D02*
X7196372Y-16689984D01*
X7196372Y-16689984D02*
X7139229Y-16689984D01*
X7139229Y-16689984D02*
X7120182Y-16680460D01*
X7120182Y-16680460D02*
X7110658Y-16670936D01*
X7301134Y-16489984D02*
X7424944Y-16489984D01*
X7424944Y-16489984D02*
X7358277Y-16566174D01*
X7358277Y-16566174D02*
X7386848Y-16566174D01*
X7386848Y-16566174D02*
X7405896Y-16575698D01*
X7405896Y-16575698D02*
X7415420Y-16585222D01*
X7415420Y-16585222D02*
X7424944Y-16604269D01*
X7424944Y-16604269D02*
X7424944Y-16651888D01*
X7424944Y-16651888D02*
X7415420Y-16670936D01*
X7415420Y-16670936D02*
X7405896Y-16680460D01*
X7405896Y-16680460D02*
X7386848Y-16689984D01*
X7386848Y-16689984D02*
X7329706Y-16689984D01*
X7329706Y-16689984D02*
X7310658Y-16680460D01*
X7310658Y-16680460D02*
X7301134Y-16670936D01*
X7501134Y-16489984D02*
X7501134Y-16528079D01*
X7577325Y-16489984D02*
X7577325Y-16528079D01*
X7872563Y-16766174D02*
X7863039Y-16756650D01*
X7863039Y-16756650D02*
X7843991Y-16728079D01*
X7843991Y-16728079D02*
X7834468Y-16709031D01*
X7834468Y-16709031D02*
X7824944Y-16680460D01*
X7824944Y-16680460D02*
X7815420Y-16632841D01*
X7815420Y-16632841D02*
X7815420Y-16594746D01*
X7815420Y-16594746D02*
X7824944Y-16547127D01*
X7824944Y-16547127D02*
X7834468Y-16518555D01*
X7834468Y-16518555D02*
X7843991Y-16499508D01*
X7843991Y-16499508D02*
X7863039Y-16470936D01*
X7863039Y-16470936D02*
X7872563Y-16461412D01*
X8043991Y-16489984D02*
X7948753Y-16489984D01*
X7948753Y-16489984D02*
X7939229Y-16585222D01*
X7939229Y-16585222D02*
X7948753Y-16575698D01*
X7948753Y-16575698D02*
X7967801Y-16566174D01*
X7967801Y-16566174D02*
X8015420Y-16566174D01*
X8015420Y-16566174D02*
X8034468Y-16575698D01*
X8034468Y-16575698D02*
X8043991Y-16585222D01*
X8043991Y-16585222D02*
X8053515Y-16604269D01*
X8053515Y-16604269D02*
X8053515Y-16651888D01*
X8053515Y-16651888D02*
X8043991Y-16670936D01*
X8043991Y-16670936D02*
X8034468Y-16680460D01*
X8034468Y-16680460D02*
X8015420Y-16689984D01*
X8015420Y-16689984D02*
X7967801Y-16689984D01*
X7967801Y-16689984D02*
X7948753Y-16680460D01*
X7948753Y-16680460D02*
X7939229Y-16670936D01*
X8224944Y-16489984D02*
X8186848Y-16489984D01*
X8186848Y-16489984D02*
X8167801Y-16499508D01*
X8167801Y-16499508D02*
X8158277Y-16509031D01*
X8158277Y-16509031D02*
X8139229Y-16537603D01*
X8139229Y-16537603D02*
X8129706Y-16575698D01*
X8129706Y-16575698D02*
X8129706Y-16651888D01*
X8129706Y-16651888D02*
X8139229Y-16670936D01*
X8139229Y-16670936D02*
X8148753Y-16680460D01*
X8148753Y-16680460D02*
X8167801Y-16689984D01*
X8167801Y-16689984D02*
X8205896Y-16689984D01*
X8205896Y-16689984D02*
X8224944Y-16680460D01*
X8224944Y-16680460D02*
X8234468Y-16670936D01*
X8234468Y-16670936D02*
X8243991Y-16651888D01*
X8243991Y-16651888D02*
X8243991Y-16604269D01*
X8243991Y-16604269D02*
X8234468Y-16585222D01*
X8234468Y-16585222D02*
X8224944Y-16575698D01*
X8224944Y-16575698D02*
X8205896Y-16566174D01*
X8205896Y-16566174D02*
X8167801Y-16566174D01*
X8167801Y-16566174D02*
X8148753Y-16575698D01*
X8148753Y-16575698D02*
X8139229Y-16585222D01*
X8139229Y-16585222D02*
X8129706Y-16604269D01*
X8482087Y-16689984D02*
X8482087Y-16489984D01*
X8567801Y-16689984D02*
X8567801Y-16585222D01*
X8567801Y-16585222D02*
X8558277Y-16566174D01*
X8558277Y-16566174D02*
X8539230Y-16556650D01*
X8539230Y-16556650D02*
X8510658Y-16556650D01*
X8510658Y-16556650D02*
X8491611Y-16566174D01*
X8491611Y-16566174D02*
X8482087Y-16575698D01*
X8691611Y-16689984D02*
X8672563Y-16680460D01*
X8672563Y-16680460D02*
X8663039Y-16670936D01*
X8663039Y-16670936D02*
X8653515Y-16651888D01*
X8653515Y-16651888D02*
X8653515Y-16594746D01*
X8653515Y-16594746D02*
X8663039Y-16575698D01*
X8663039Y-16575698D02*
X8672563Y-16566174D01*
X8672563Y-16566174D02*
X8691611Y-16556650D01*
X8691611Y-16556650D02*
X8720182Y-16556650D01*
X8720182Y-16556650D02*
X8739230Y-16566174D01*
X8739230Y-16566174D02*
X8748753Y-16575698D01*
X8748753Y-16575698D02*
X8758277Y-16594746D01*
X8758277Y-16594746D02*
X8758277Y-16651888D01*
X8758277Y-16651888D02*
X8748753Y-16670936D01*
X8748753Y-16670936D02*
X8739230Y-16680460D01*
X8739230Y-16680460D02*
X8720182Y-16689984D01*
X8720182Y-16689984D02*
X8691611Y-16689984D01*
X8872563Y-16689984D02*
X8853515Y-16680460D01*
X8853515Y-16680460D02*
X8843992Y-16661412D01*
X8843992Y-16661412D02*
X8843992Y-16489984D01*
X9024944Y-16680460D02*
X9005896Y-16689984D01*
X9005896Y-16689984D02*
X8967801Y-16689984D01*
X8967801Y-16689984D02*
X8948753Y-16680460D01*
X8948753Y-16680460D02*
X8939230Y-16661412D01*
X8939230Y-16661412D02*
X8939230Y-16585222D01*
X8939230Y-16585222D02*
X8948753Y-16566174D01*
X8948753Y-16566174D02*
X8967801Y-16556650D01*
X8967801Y-16556650D02*
X9005896Y-16556650D01*
X9005896Y-16556650D02*
X9024944Y-16566174D01*
X9024944Y-16566174D02*
X9034468Y-16585222D01*
X9034468Y-16585222D02*
X9034468Y-16604269D01*
X9034468Y-16604269D02*
X8939230Y-16623317D01*
X9110658Y-16680460D02*
X9129706Y-16689984D01*
X9129706Y-16689984D02*
X9167801Y-16689984D01*
X9167801Y-16689984D02*
X9186849Y-16680460D01*
X9186849Y-16680460D02*
X9196373Y-16661412D01*
X9196373Y-16661412D02*
X9196373Y-16651888D01*
X9196373Y-16651888D02*
X9186849Y-16632841D01*
X9186849Y-16632841D02*
X9167801Y-16623317D01*
X9167801Y-16623317D02*
X9139230Y-16623317D01*
X9139230Y-16623317D02*
X9120182Y-16613793D01*
X9120182Y-16613793D02*
X9110658Y-16594746D01*
X9110658Y-16594746D02*
X9110658Y-16585222D01*
X9110658Y-16585222D02*
X9120182Y-16566174D01*
X9120182Y-16566174D02*
X9139230Y-16556650D01*
X9139230Y-16556650D02*
X9167801Y-16556650D01*
X9167801Y-16556650D02*
X9186849Y-16566174D01*
X9263039Y-16766174D02*
X9272563Y-16756650D01*
X9272563Y-16756650D02*
X9291611Y-16728079D01*
X9291611Y-16728079D02*
X9301134Y-16709031D01*
X9301134Y-16709031D02*
X9310658Y-16680460D01*
X9310658Y-16680460D02*
X9320182Y-16632841D01*
X9320182Y-16632841D02*
X9320182Y-16594746D01*
X9320182Y-16594746D02*
X9310658Y-16547127D01*
X9310658Y-16547127D02*
X9301134Y-16518555D01*
X9301134Y-16518555D02*
X9291611Y-16499508D01*
X9291611Y-16499508D02*
X9272563Y-16470936D01*
X9272563Y-16470936D02*
X9263039Y-16461412D01*
M02*
